<?xml version="1.0" standalone="no"?>
<!DOCTYPE svg PUBLIC "-//W3C//DTD SVG 1.1//EN" "http://www.w3.org/Graphics/SVG/1.1/DTD/svg11.dtd" >
<svg xmlns="http://www.w3.org/2000/svg" xmlns:xlink="http://www.w3.org/1999/xlink" version="1.1">
<metadata></metadata>
<defs>
<font id="secondasoft-thinuploaded_file" horiz-adv-x="1662" >
<font-face units-per-em="2048" ascent="1556" descent="-492" />
<missing-glyph horiz-adv-x="532" />
<glyph unicode="&#xfb01;" horiz-adv-x="1099" d="M54 960v7q0 22 9 31q8 8 32 8h137v174q0 163 76 251q77 89 221 89q55 0 101 -21q26 -12 26 -30q0 -9 -4 -21l-2 -5q-4 -13 -9 -19t-14 -6q-3 0 -17 4q-40 12 -78 12q-40 0 -75 -11q-32 -10 -51 -28q-20 -19 -32 -45q-11 -26 -16 -55q-5 -32 -5 -64v-225h529q26 0 35 -9 q10 -10 10 -35v-903q0 -34 -13 -47q-12 -12 -46 -12h-7q-34 0 -46 12q-13 13 -13 47v861h-449v-862q0 -34 -12 -46t-45 -12h-6q-34 0 -46 12t-12 46v862h-137q-24 0 -32 8q-9 9 -9 32zM774 1289q0 37 27 62q26 25 64 25q37 0 62 -25t25 -62q0 -39 -25 -64q-26 -26 -62 -26 q-35 0 -64 27q-27 26 -27 63z" />
<glyph unicode="&#xfb02;" horiz-adv-x="1145" d="M54 960v7q0 22 9 31q8 8 32 8h137v174q0 163 76 251q77 89 222 89q64 0 140 -16t131 -38q0 17 13 25q11 7 44 7h7q33 0 45 -12t12 -45v-1113q0 -43 1 -59q2 -37 4 -53q4 -34 8 -47q8 -24 16 -39q12 -21 26 -33q14 -11 37 -22q20 -9 50 -14q21 -3 29 -11t8 -29v-6 q0 -22 -8 -30t-29 -7q-142 7 -203 94q-60 85 -60 278v1033q-145 51 -245 51q-58 0 -103 -16q-42 -15 -63 -45q-19 -28 -29 -63q-8 -29 -8 -78v-226h188q24 0 32 -8t8 -31v-7q0 -24 -8 -32t-32 -8h-188v-863q0 -33 -12 -45t-45 -12h-7q-33 0 -45 12t-12 45v863h-137 q-24 0 -32 8q-9 9 -9 32z" />
<glyph unicode="&#xfb03;" horiz-adv-x="1726" d="M53 960v7q0 22 9 31q8 8 32 8h138v174q0 163 76 251q77 89 221 89q54 0 99 -21q25 -13 25 -30q0 -3 -4 -21l-1 -5q-3 -13 -8 -20q-4 -5 -13 -5q-7 0 -19 4q-38 12 -76 12q-55 0 -90 -16q-39 -18 -55 -45q-21 -34 -27 -64q-8 -37 -8 -78v-225h507v174q0 163 76 251 q77 89 221 89q54 0 101 -21q26 -12 26 -30q0 -9 -4 -21l-2 -5q-2 -10 -9 -19q-4 -6 -13 -6q-5 0 -19 4q-40 12 -77 12q-40 0 -75 -11q-32 -10 -51 -28q-20 -19 -32 -45q-13 -29 -17 -55q-4 -25 -4 -64v-225h529q26 0 35 -9t9 -35v-903q0 -35 -12 -47t-47 -12h-6 q-34 0 -46 12q-13 13 -13 47v861h-449v-862q0 -34 -12 -46t-45 -12h-6q-34 0 -46 12t-12 46v862h-507v-863q0 -33 -12 -45t-45 -12h-6q-33 0 -45 12t-12 45v863h-138q-24 0 -32 8q-9 9 -9 32zM1401 1289q0 37 26 62t65 25q37 0 62 -25t25 -62q0 -39 -25 -64q-26 -26 -62 -26 t-65 27q-26 25 -26 63z" />
<glyph unicode="&#xfb04;" horiz-adv-x="1774" d="M55 960v7q0 23 8 31t32 8h138v174q0 163 76 251q77 89 221 89q54 0 99 -21q25 -13 25 -30q0 -7 -3 -21l-2 -5q-3 -13 -8 -20q-4 -5 -13 -5q-7 0 -19 4q-37 12 -76 12q-55 0 -90 -16q-39 -18 -55 -45q-21 -34 -27 -64q-8 -37 -8 -78v-225h507v174q0 163 76 251 q77 89 222 89q64 0 140 -16t131 -38q0 17 13 25q11 7 44 7h7q33 0 45 -12t12 -45v-1113q0 -43 1 -59q2 -37 4 -53q4 -34 8 -47q8 -24 16 -39q12 -21 26 -33q14 -11 37 -22q20 -9 50 -14q21 -3 29 -11q7 -7 7 -29v-6q0 -22 -8 -30t-28 -7q-142 7 -203 94q-60 86 -60 278v1033 q-145 51 -245 51q-58 0 -103 -16q-42 -15 -63 -45q-19 -28 -29 -63q-8 -29 -8 -78v-226h188q24 0 32 -8t8 -31v-7q0 -24 -8 -32t-32 -8h-188v-863q0 -33 -12 -45t-45 -12h-7q-33 0 -45 12t-12 45v863h-507v-863q0 -33 -12 -45t-45 -12h-6q-33 0 -45 12t-12 45v863h-138 q-24 0 -32 8t-8 32z" />
<glyph horiz-adv-x="0" />
<glyph unicode="&#xd;" horiz-adv-x="682" />
<glyph unicode=" "  horiz-adv-x="532" />
<glyph unicode="&#x09;" horiz-adv-x="532" />
<glyph unicode="&#xa0;" horiz-adv-x="532" />
<glyph unicode="!" horiz-adv-x="523" d="M173 78q0 37 26 62t63 25q39 0 64 -25t25 -62q0 -38 -25 -63q-26 -26 -64 -26q-35 0 -63 26q-26 25 -26 63zM193 1387q0 39 13 52q14 14 53 14h6q38 0 52 -14t14 -52l-2 -99q-6 -522 -29 -892q-2 -21 -8 -27q-7 -7 -27 -7h-6q-20 0 -27 7q-8 7 -9 27q-14 227 -21 418 q-6 162 -8 474z" />
<glyph unicode="&#x22;" horiz-adv-x="631" d="M103 1452q0 33 21 51q20 17 49 17t49 -17q21 -18 21 -51l-1 -2v-4q0 -3 -2 -13t-2 -13l-36 -301q-2 -14 -7 -18q-7 -5 -19 -5h-6q-12 0 -19 5q-5 4 -7 18l-36 301q0 3 -2 13t-2 13v4zM389 1452q0 34 20 51t50 17q29 0 49 -17t20 -51v-6q0 -3 -2 -13t-2 -13l-36 -301 q-2 -14 -7 -18q-7 -5 -19 -5h-6q-12 0 -19 5q-5 4 -7 18l-36 301q0 3 -2 13q0 2 -0.5 6.5t-1.5 6.5q-1 3 -1 6z" />
<glyph unicode="#" horiz-adv-x="1165" d="M91 467v56q0 16 6 22t22 6h193l48 352h-187q-16 0 -22 6t-6 23v55q0 17 6 23t22 6h200l58 408q3 17 9 23t23 6h57q14 0 21 -7q6 -6 3 -22l-57 -408h288l57 408q3 17 9 23t23 6h56q15 0 22 -7q6 -6 3 -22l-55 -408h159q16 0 22 -6t6 -23v-55q0 -17 -6 -23t-22 -6h-174 l-48 -352h164q16 0 22 -6t6 -22v-56q0 -16 -6 -22t-22 -6h-181l-56 -411q-3 -16 -9 -22t-23 -6h-57q-15 0 -21 6t-3 22l55 411h-286l-57 -411q-3 -16 -9 -22t-23 -6h-58q-16 0 -22 6t-3 22l58 411h-177q-16 0 -22 6t-6 22zM425 551h288l48 352h-287z" />
<glyph unicode="$" horiz-adv-x="1129" d="M83 286q0 16 26 30l5 4q13 7 24 7q14 0 26 -24q55 -108 148 -170q94 -63 234 -63q55 0 106 9q53 9 98 29t81 51q34 29 55 78q21 48 21 106q0 45 -9 81q-9 35 -31 66t-55 55q-34 25 -85 48t-116 45q-61 20 -152 45q-55 15 -104 35q-45 19 -91 51t-76 71q-31 41 -49 95 q-18 56 -18 122q0 88 32 155q34 71 89 113q59 45 129 70q68 24 157 32v152q0 25 9 36q9 10 37 10h6q28 0 37 -10q9 -11 9 -36v-152q128 -11 223 -78q98 -70 143 -178q6 -14 6 -23q0 -16 -25 -30l-5 -3q-16 -8 -22 -8q-14 0 -26 24q-47 90 -133 149q-85 58 -198 58 q-52 0 -100 -9q-53 -10 -91 -27q-44 -20 -75 -48t-50 -74q-18 -44 -18 -99q0 -47 15 -87q14 -39 38 -67q22 -27 58 -50q38 -25 68 -37q33 -14 75 -27q27 -7 81 -24q147 -42 222 -76q146 -67 199 -180q32 -68 32 -163q0 -92 -33 -164q-33 -73 -91 -120q-54 -45 -136 -75 q-76 -28 -170 -36v-152q0 -27 -10 -37t-36 -10h-7q-26 0 -36 10t-10 37v149q-85 5 -155 30q-73 26 -123 66t-87 89q-38 50 -61 107q-5 11 -5 22z" />
<glyph unicode="%" horiz-adv-x="1641" d="M83 1038q0 62 9 121q9 60 31 115q24 60 56 98q34 40 89 66t124 26q62 0 117 -25q53 -24 87 -64q35 -41 57 -95q21 -51 32 -114q10 -56 10 -124q0 -66 -9 -126t-30 -117q-22 -59 -55 -98q-35 -41 -88 -66t-123 -25q-58 0 -107 17q-46 16 -81 49q-34 33 -57 71 q-23 39 -37 90q-13 46 -19 99q-6 49 -6 102zM193 1040q0 -357 198 -357q40 0 69 13q30 14 51 36q19 21 34 53q14 32 22 62q7 30 12 69t6 66q1 18 1 61q0 348 -195 348q-198 0 -198 -351zM334 -29l851 1510q9 15 17 20q7 4 26 4h59q27 0 14 -24l-851 -1510q-10 -16 -16 -20 q-7 -4 -26 -4h-60q-28 0 -14 24zM946 416q0 64 9 122q9 60 31 115q23 58 57 98q36 42 89 67t123 25q65 0 118 -24q52 -24 87 -65q34 -40 57 -96t33 -115q10 -57 10 -123q0 -68 -9 -126q-9 -61 -31 -116q-25 -62 -55 -98q-35 -41 -88 -66t-124 -25q-58 0 -107 17 q-46 16 -81 49q-32 31 -56 71q-25 43 -38 89t-19 99q-6 49 -6 102zM1056 417q0 -355 198 -355q36 0 69 14q31 13 51 35q21 23 35 53q14 32 22 62q7 30 12 69q3 22 5 66q1 18 1 59q0 350 -195 350q-198 0 -198 -353z" />
<glyph unicode="&#x26;" horiz-adv-x="1370" d="M92 391q0 66 20 126t52 102q34 44 80 82q48 39 96 66q44 25 108 51q-151 178 -151 336q0 75 28 135q28 61 77 102q46 39 111 62q62 22 133 22q59 0 118 -19q56 -18 100 -53q45 -35 70 -92q26 -58 26 -127q0 -40 -11 -81q-11 -42 -28 -70q-21 -35 -46 -60q-33 -33 -55 -50 q-31 -25 -64 -44q-31 -18 -66 -37q-10 -5 -68 -32q156 -194 385 -440q73 144 101 246q8 25 16 31q11 8 35 8h6q21 0 29 -9t2 -30q-19 -73 -56 -164q-34 -86 -72 -153q125 -141 251 -264q15 -15 15 -23q0 -12 -29 -12h-85q-34 0 -47 6q-16 7 -38 29q-86 84 -144 151 q-84 -100 -194 -154q-113 -55 -238 -55q-68 0 -138 17q-68 17 -128 51q-57 33 -104 83q-46 49 -71 116q-26 69 -26 147zM221 412q0 -96 47 -172q50 -81 128 -123q82 -44 177 -44q49 0 96 12q44 11 81 29q29 14 70 45t58 47q21 20 50 50q-87 90 -128 135q-60 65 -136 155 q-72 86 -163 203q-48 -22 -83 -42q-39 -22 -75 -52q-42 -35 -64 -65q-25 -34 -42 -81q-16 -45 -16 -97zM430 1187q0 -58 39 -148q40 -93 99 -163q9 4 23.5 10.5t19.5 8.5q16 7 43 21q34 18 43 24t39 28q19 14 37 32q12 12 30 37q15 22 24 43q10 24 15 48q6 27 6 57 q0 87 -57 146q-57 58 -146 58q-40 0 -79 -14q-40 -14 -68 -37q-31 -25 -49 -64q-19 -41 -19 -87z" />
<glyph unicode="'" horiz-adv-x="345" d="M104 1452q0 33 21 51q20 17 49 17t49 -17t20 -51v-6q0 -3 -2 -13t-2 -13l-36 -301q-2 -14 -7 -18q-7 -5 -19 -5h-6q-12 0 -19 5q-5 4 -7 18l-36 301q0 3 -2 13q0 2 -0.5 6.5t-1.5 6.5q-1 3 -1 6z" />
<glyph unicode="(" horiz-adv-x="581" d="M111 581q0 242 79 488t218 420q15 19 29 19q9 0 23 -6l6 -2q21 -8 21 -21q0 -8 -7 -21q-102 -180 -160 -407q-58 -229 -58 -470q0 -223 57 -467q57 -245 160 -418q7 -11 7 -19q0 -13 -20 -20l-6 -3q-11 -5 -23 -5q-13 0 -28 19q-133 169 -216 424q-82 252 -82 489z" />
<glyph unicode=")" horiz-adv-x="581" d="M95 -324q0 7 8 20q101 169 159 418q57 243 57 467q0 245 -57 470q-57 226 -161 408q-6 10 -6 19q0 12 21 22l5 2q16 7 23 7q12 0 29 -20q138 -173 218 -420q80 -248 80 -488q0 -237 -81 -490q-80 -251 -217 -423q-15 -18 -29 -18q-5 0 -22 5l-6 2q-21 7 -21 19z" />
<glyph unicode="*" horiz-adv-x="947" d="M96 1097v44q0 13 5 18t19 5h276l-139 239q-7 10 -5 18q1 6 14 14l37 21q11 7 19 5q5 -1 13 -14l138 -238l137 238q8 13 13 14q8 2 19 -5l38 -22q12 -8 14 -14q2 -7 -5 -18l-137 -238h275q13 0 18 -5t5 -18v-44q0 -13 -5 -18t-18 -5h-275l137 -237q7 -11 5 -19 q-1 -6 -14 -14l-38 -22q-11 -7 -19 -5q-5 1 -13 14l-137 239l-138 -239q-8 -13 -13 -14q-8 -2 -19 5l-38 22q-12 7 -13 13q-2 8 5 19l139 238h-276q-14 0 -19 5t-5 18z" />
<glyph unicode="+" horiz-adv-x="1201" d="M85 581v60q0 19 7 26t27 7h416v418q0 20 6 26q7 7 27 7h65q19 0 26 -7t7 -26v-418h417q19 0 26 -7t7 -26v-60q0 -19 -7 -26q-8 -8 -26 -8h-417v-420q0 -19 -7 -26t-26 -7h-65q-20 0 -27 7q-6 6 -6 26v420h-416q-19 0 -27 8q-7 7 -7 26z" />
<glyph unicode="," horiz-adv-x="446" d="M111 -266q-4 9 3 23q62 129 82 236q-26 11 -42 33t-16 51q0 37 26 62q28 26 63 26q38 0 64 -29q25 -28 25 -76q0 -41 -27 -107q-26 -64 -105 -205q-9 -16 -18 -21q-9 -4 -28 -3l-7 1q-17 2 -20 9z" />
<glyph unicode="-" horiz-adv-x="798" d="M148 519v67q0 16 6 22t22 6h446q16 0 22 -6t6 -22v-67q0 -17 -6 -23t-22 -6h-446q-16 0 -22 6t-6 23z" />
<glyph unicode="." horiz-adv-x="447" d="M135 78q0 37 26 62t63 25q38 0 63 -25q26 -26 26 -62q0 -38 -26 -64q-25 -25 -63 -25q-35 0 -63 26q-26 25 -26 63z" />
<glyph unicode="/" horiz-adv-x="864" d="M80 -136l568 1608q8 20 15 25q9 6 29 6h65q19 0 23 -7q5 -8 -1 -24l-566 -1608q-8 -20 -15 -25q-9 -6 -30 -6h-65q-19 0 -23 7q-5 9 0 24z" />
<glyph unicode="0" horiz-adv-x="1277" d="M128 702q0 71 8 148q8 75 25 145q19 78 44 136q28 66 67 119q40 54 93 94q54 40 123 62t155 22q89 0 167 -29q77 -29 130 -79q57 -54 96 -119q41 -69 65 -150q24 -83 36 -167q12 -86 12 -176q0 -85 -7 -154q-8 -74 -24 -149q-14 -62 -44 -137q-26 -64 -66 -119t-93 -93 t-122 -60t-154 -22q-87 0 -156 22q-72 23 -123 61t-92 94q-40 55 -66 119q-28 70 -43 137q-17 76 -24 146q-7 67 -7 149zM264 704q0 -60 3 -111q4 -65 11 -120q8 -61 25 -124q14 -52 44 -112q29 -59 67 -95q40 -39 97 -62q61 -25 130 -25q55 0 106 16q47 15 83 40 q37 26 64 63q30 41 47 78q19 42 32 90q13 50 21 95q5 32 11 98q3 31 5 91q1 25 1 84q0 73 -2 107q-3 53 -12 118q-8 61 -25 121q-15 55 -44 111q-28 55 -66 93t-95 62t-126 24q-377 0 -377 -642z" />
<glyph unicode="1" horiz-adv-x="720" d="M41 1102q0 14 19 27l368 257q13 9 23 13q8 3 26 3h6q15 0 21 -6t6 -21v-1311q0 -38 -13 -51t-51 -13h-6q-38 0 -51 13t-13 51v1164l-274 -166q-14 -9 -23 -9q-15 0 -26 20l-3 5q-9 15 -9 24z" />
<glyph unicode="2" horiz-adv-x="1134" d="M97 47v6q0 31 6 45t27 36l524 551l31 31q9 9 19.5 20.5t11.5 12.5q8 7 27 30q24 27 27 32q2 3 9 13t13 18q16 22 21 34l15 35q11 25 13 39q0 2 3 17t4 24q3 23 3 47q0 132 -86 218q-87 87 -218 87q-60 0 -117 -21q-56 -21 -100 -57q-41 -34 -75 -82q-32 -46 -51 -100 q-7 -20 -16 -26t-30 -3h-6q-22 3 -27 11t-1 29q39 168 155 251t285 83q86 0 166 -26q78 -26 136 -73q60 -49 93 -120q34 -72 34 -162q0 -49 -9 -92q-9 -45 -26 -80q-18 -36 -38 -68q-18 -28 -51 -64t-55 -57q-26 -24 -63 -60q-48 -46 -62 -61l-448 -465h751q27 0 37 -10 t10 -37v-6q0 -27 -10 -37t-37 -10h-848q-27 0 -37 10t-10 37z" />
<glyph unicode="3" horiz-adv-x="1179" d="M100 298q0 9 7 15q6 5 23 11l5 2q12 3 19 3q11 0 17 -6q5 -5 13 -21q51 -112 150 -177q98 -64 231 -64q59 0 108 10q53 11 97 33t78 56q32 32 52 82q20 51 20 109q0 158 -113 250t-295 92q-29 0 -39 10t-10 37v6q0 28 10 37q11 9 37 9h7q61 0 110 10q57 12 96 32 q46 24 76 54q32 32 50 78q19 49 19 104q0 60 -23 112q-23 51 -62 86q-41 37 -91 55q-54 20 -109 20q-130 0 -221 -62t-139 -168q-12 -27 -29 -27q-10 0 -19 3l-6 2q-17 5 -22 10q-6 6 -6 16q0 9 3 19q43 134 156 214q111 78 283 78q84 0 157 -22q70 -21 133 -65 q61 -43 95 -109q35 -68 35 -150q0 -123 -82 -213q-80 -88 -216 -124v-2q109 -10 191 -68t122 -140q41 -85 41 -182q0 -68 -19 -124q-20 -58 -54 -98q-37 -43 -80 -71q-53 -34 -102 -50q-56 -18 -114 -27t-122 -9q-172 0 -296 83q-123 83 -168 223q-4 14 -4 18z" />
<glyph unicode="4" horiz-adv-x="1144" d="M45 398v6q0 22 4 38q2 9 19 34l609 884q18 27 32 35q13 7 46 7h57q29 0 40 -11q10 -10 10 -39v-899h170q26 0 35 -9t9 -35v-7q0 -26 -9 -35t-35 -9h-170v-297q0 -35 -13 -48t-48 -13h-6q-35 0 -48 13t-13 48v297h-649q-23 0 -32 9q-8 8 -8 31zM192 453h543l2 805z" />
<glyph unicode="5" horiz-adv-x="1133" d="M101 283q0 19 28 26l6 2q14 4 19 4q8 0 17 -7q5 -4 14 -20q49 -101 141 -165q94 -65 213 -65q155 0 252 98q98 100 98 251q0 82 -28 155q-27 71 -78 122q-52 52 -126 80q-76 29 -167 29q-90 0 -159 -48q-41 -28 -50 -31q-17 -6 -48 -6h-6q-33 0 -43 12q-11 12 -8 44 l46 588q3 29 13 39q11 11 40 11h634q26 0 36 -10q9 -9 9 -37v-6q0 -26 -11 -37q-9 -9 -39 -9h-578l-38 -484q104 58 253 58q141 0 250 -55t173 -163q63 -107 63 -245q0 -88 -25 -159q-26 -74 -72 -124q-47 -52 -109 -87q-64 -37 -137 -53q-76 -17 -157 -17q-157 0 -264 75 q-111 77 -158 215q-4 12 -4 19z" />
<glyph unicode="6" horiz-adv-x="1246" d="M131 629q0 799 546 799q142 0 252 -70q108 -69 153 -197q4 -14 4 -17q0 -18 -28 -26l-6 -2q-9 -3 -18 -3q-18 0 -30 26q-44 91 -128 147q-86 57 -195 57q-75 0 -135 -22q-64 -23 -105 -59q-42 -37 -76 -90q-34 -54 -53 -110q-21 -60 -32 -126q-13 -74 -17 -130 q-4 -55 -4 -127q26 29 46 49q22 22 58 48q37 26 77 45q39 18 96 30q62 13 121 13q98 0 188 -32q89 -32 153 -88t101 -140q37 -83 37 -181q0 -135 -66 -238t-178 -157t-250 -54q-67 0 -107 6q-46 7 -103 26q-51 17 -96 49q-44 32 -82 81q-39 52 -66 118q-27 68 -42 163 q-15 96 -15 212zM286 420q0 -98 44 -181q42 -80 127 -131q83 -50 187 -50q78 0 148 28q66 26 111 76q46 51 69 114q24 66 24 141q0 76 -25 141q-26 68 -69 115q-44 48 -112 77q-69 29 -146 29q-104 0 -184 -46q-83 -47 -128 -128q-46 -82 -46 -185z" />
<glyph unicode="7" horiz-adv-x="1008" d="M47 1350v6q0 27 11 36q12 10 38 10h856q18 0 25 -7t7 -25v-6q0 -19 -2 -31q-1 -8 -12 -28q-348 -689 -579 -1259q-12 -28 -25 -37q-14 -9 -43 -9h-47q-37 0 -37 21q0 10 7 24q119 277 259 564t350 695h-764q-26 0 -35 9t-9 37z" />
<glyph unicode="8" horiz-adv-x="1217" d="M119 371q0 52 11 95q13 49 36 90q26 46 62 82q35 35 91 66t120 47v2q-117 37 -187 121q-70 83 -70 199q0 74 25 133q26 62 67 101q38 37 99 68q54 28 116 40q65 13 125 13q83 0 156 -22q76 -23 135 -63q61 -41 97 -111q36 -69 36 -157q0 -112 -70 -198t-191 -124v-2 q66 -15 121 -44q54 -29 90 -66q37 -38 62 -83q23 -41 36 -91q11 -43 11 -95q0 -78 -26 -145q-25 -65 -72 -112q-44 -44 -107 -78q-61 -33 -133 -48q-71 -15 -148 -15q-82 0 -148 14q-70 15 -134 47t-110 78t-73 112t-27 146zM257 378q0 -100 46 -173q48 -76 125 -112 q81 -38 182 -38q158 0 252 87q95 87 95 240q0 150 -97 240q-96 89 -252 89q-153 0 -253 -92q-98 -91 -98 -241zM310 1069q0 -123 84 -200q85 -77 217 -77t215 77t83 204q0 125 -83 200q-81 74 -213 74q-136 0 -219 -76q-84 -77 -84 -202z" />
<glyph unicode="9" horiz-adv-x="1246" d="M111 978q0 104 38 187q39 85 105 142t157 89t194 32q61 0 107 -7q56 -8 103 -26q57 -21 96 -49q44 -32 82 -81q39 -50 66 -119q25 -64 41 -163q16 -102 16 -212q0 -797 -546 -797q-144 0 -252 69t-153 196q-4 14 -4 18q0 9 6 15t22 11l5 1q14 4 19 4q11 0 17 -6 q5 -5 13 -21q44 -91 128 -147t194 -56q76 0 136 22q64 23 105 59q42 37 76 90q34 54 53 110q20 58 32 126q11 63 16 129q5 68 5 127q-26 -29 -46 -49q-17 -17 -59 -49q-38 -29 -76 -45q-46 -19 -96 -30q-57 -12 -122 -12q-98 0 -188 32q-86 31 -152 89q-63 56 -101 139 q-37 81 -37 182zM251 984q0 -76 25 -141q26 -68 69 -115q44 -48 112 -77q69 -29 146 -29q152 0 256 102q102 100 102 257q0 97 -45 180t-127 132q-83 50 -186 50q-108 0 -189 -48q-82 -49 -122 -128q-41 -82 -41 -183z" />
<glyph unicode=":" horiz-adv-x="475" d="M149 78q0 36 26 61q28 26 64 26q38 0 63 -25q26 -26 26 -62q0 -37 -26 -63t-63 -26q-36 0 -64 26q-26 25 -26 63zM149 868q0 37 26 62t64 25t63 -25q26 -26 26 -62q0 -37 -26 -63q-25 -25 -63 -25t-64 25t-26 63z" />
<glyph unicode=";" horiz-adv-x="527" d="M159 -266q-3 8 4 23q63 129 82 236q-27 11 -42 32q-16 22 -16 52q0 37 27 62q28 26 63 26q38 0 64 -29q25 -28 25 -76q0 -41 -27 -107q-24 -57 -106 -205q-11 -18 -18 -21q-9 -4 -29 -3l-6 1q-18 2 -21 9zM187 868q0 36 27 62q26 25 64 25q37 0 62 -25q26 -26 26 -62 q0 -37 -26 -63q-25 -25 -62 -25q-38 0 -64 25q-27 25 -27 63z" />
<glyph unicode="&#x3c;" horiz-adv-x="1238" d="M76 572v76q0 22 5 29q6 9 25 18l947 445q17 8 23 4q7 -4 7 -23v-75q0 -20 -6 -29q-7 -10 -24 -18l-832 -389l832 -389q17 -8 24 -18q6 -9 6 -30v-75q0 -18 -7 -22t-23 3l-947 446q-20 9 -25 17t-5 30z" />
<glyph unicode="=" horiz-adv-x="1351" d="M160 363v61q0 19 7 26t26 7h965q19 0 26 -7t7 -26v-61q0 -20 -7 -27t-26 -7h-965q-19 0 -26 7t-7 27zM160 796v61q0 19 7 26t26 7h965q19 0 26 -7t7 -26v-61q0 -19 -7 -26t-26 -7h-965q-19 0 -26 7t-7 26z" />
<glyph unicode="&#x3e;" horiz-adv-x="1238" d="M156 98v75q0 21 6 30q7 10 24 18l832 389l-832 389q-17 8 -24 18q-6 9 -6 29v75q0 19 7 23q6 4 23 -4l947 -445q19 -9 25 -18q5 -8 5 -29v-76q0 -22 -5 -30t-25 -17l-947 -446q-16 -7 -23 -3t-7 22z" />
<glyph unicode="?" horiz-adv-x="973" d="M74 1155q0 7 3 19q34 141 141 224q105 81 273 81q81 0 150 -22q72 -23 126 -64q55 -42 89 -111q33 -68 33 -153q0 -36 -6 -69q-6 -34 -15 -59q-10 -27 -26 -54q-16 -26 -32 -47q-17 -22 -41 -46q-20 -20 -44 -42q-19 -18 -50 -44q-50 -44 -59 -53q-24 -24 -41 -46 q-21 -27 -31 -47q-6 -11 -19 -57q-9 -32 -16 -72q-4 -26 -13 -97q-3 -20 -10 -27t-28 -7h-6q-20 0 -27 7q-9 9 -10 27q-6 75 -6 130q0 28 5 60q2 12 12 50q5 19 22 48q14 24 26 41q13 19 34 41q16 17 37 38q23 23 43 42q8 8 15 14q20 19 44 43q19 19 38 43q23 28 33 51 q12 26 20 55q9 33 9 69q0 116 -77 187t-189 71q-224 0 -312 -232q-9 -20 -14 -25q-7 -7 -19 -7q-2 0 -20 4l-7 2q-15 4 -26 13q-9 8 -9 21zM363 77q0 37 27 62q28 26 64 26t62 -26q25 -25 25 -62q0 -38 -25 -63t-62 -25q-38 0 -64 25q-27 26 -27 63z" />
<glyph unicode="@" horiz-adv-x="1689" d="M114 651q0 114 23 215q24 106 67 196q46 98 108 169q66 77 147 132q80 55 183 85q105 31 215 31q162 0 303 -53q140 -52 237 -147q97 -94 152 -228t55 -293q0 -56 -7 -105q-8 -56 -22 -105q-14 -50 -38 -99q-23 -47 -53 -86q-33 -43 -69 -70q-37 -28 -86 -45t-103 -17 q-211 0 -211 254h-1q-52 -130 -122 -192t-161 -62q-46 0 -83 19t-61 51q-23 30 -40 74q-15 37 -23 86q-7 41 -7 88q0 74 16 144t50 138q33 65 79 116q46 50 111 80q66 30 141 30q67 0 107 -22q41 -23 68 -77l15 52q5 15 9 18q5 4 20 4h32q13 0 18 -5t2 -18 q-61 -353 -61 -433q0 -43 1 -59q2 -35 4 -53q3 -26 10 -50q6 -20 17 -39t29 -32q15 -11 41 -19t56 -8q48 0 85 30q38 30 60 76q26 54 39 104q15 60 21 108q6 51 6 96q0 145 -43 262q-44 120 -123 205q-78 84 -200 133q-120 48 -266 48q-114 0 -220 -40q-100 -38 -179 -109 q-72 -65 -131 -162q-57 -93 -83 -199q-27 -108 -27 -222q0 -116 27 -221q26 -100 83 -194q53 -88 131 -153q79 -67 179 -102q102 -36 220 -36q125 0 200 15q11 2 18 -1q5 -2 8 -17l7 -38q3 -14 -2 -21q-4 -5 -17 -8q-82 -17 -218 -17q-137 0 -254 40q-122 42 -208 113 q-87 72 -152 172q-63 97 -97 220q-32 116 -32 253zM625 558q0 -41 8 -83q7 -37 24 -74q16 -36 47 -56q31 -21 74 -21q55 0 103 42t81 106t57 144q25 83 35 154q11 79 11 138q-45 58 -143 58q-48 0 -92 -18t-75 -49q-33 -33 -57 -71q-27 -43 -41 -86q-15 -46 -24 -93 q-8 -41 -8 -91z" />
<glyph unicode="A" horiz-adv-x="1376" d="M18 23q0 8 8 27l622 1377q8 17 15 21q8 5 25 5h6q18 0 26 -5q6 -4 14 -21l612 -1382q7 -14 7 -24q0 -21 -36 -21h-51q-32 0 -44 8q-14 10 -26 37l-169 396h-718l-167 -390q-14 -33 -28 -41q-17 -10 -49 -10h-6q-41 0 -41 23zM347 525h643l-312 744z" />
<glyph unicode="B" horiz-adv-x="1291" d="M210 50v1353q0 29 10 39q11 11 39 11h422q54 0 117 -13q62 -13 114 -38q55 -27 98 -65q41 -37 67 -93q25 -54 25 -120q0 -74 -47 -153q-46 -77 -122 -132q-74 -54 -152 -67v-1q81 0 155 -27q75 -27 129 -73q58 -48 90 -116q33 -69 33 -151q0 -81 -26 -145 q-28 -68 -73 -113q-51 -51 -107 -81q-59 -32 -133 -49q-68 -16 -147 -16h-443q-29 0 -39 10t-10 40zM342 83h309q56 0 114 11q51 10 107 36q54 25 90 60q39 38 61 90q23 55 23 119q0 55 -16 106q-15 49 -40 81q-24 31 -64 58q-37 25 -77 40q-41 15 -90 24q-59 11 -92 13 q-58 4 -94 4l-231 3v-645zM342 790l231 7q54 1 110 11q54 9 105 31q54 23 90 55t61 86q23 50 23 121q0 269 -366 269h-254v-580z" />
<glyph unicode="C" horiz-adv-x="1451" d="M114 723q0 120 31 238q29 112 92 208q63 97 146 164q86 69 199 108q111 38 245 38q175 0 304 -75t193 -206q6 -12 6 -23q0 -17 -25 -29l-5 -2q-18 -8 -26 -8q-14 0 -29 22q-72 105 -180 166q-110 62 -237 62q-114 0 -206 -35q-93 -35 -160 -98q-64 -60 -112 -146 q-45 -81 -68 -180q-22 -94 -22 -201q0 -100 23 -200q23 -98 70 -181q47 -82 114 -146q64 -61 160 -98q90 -35 203 -35q138 0 252 65t191 178q15 21 27 21q11 0 24 -7l4 -3q24 -12 24 -26q0 -9 -8 -23q-72 -142 -205 -220q-132 -77 -319 -77q-130 0 -244 38q-112 37 -197 107 q-84 69 -144 162t-90 206q-31 116 -31 236z" />
<glyph unicode="D" horiz-adv-x="1561" d="M210 50v1353q0 29 10 39q11 11 39 11h452q115 0 219 -26q108 -27 183 -71q84 -49 144 -112q65 -68 104 -146q43 -86 63 -174q21 -93 21 -195q0 -157 -51 -291q-51 -133 -146 -231q-93 -96 -237 -152q-141 -55 -315 -55h-437q-29 0 -39 10t-10 40zM343 82h333 q192 0 334 80q143 81 216 223q74 145 74 335q0 74 -10 137q-10 66 -33 132q-23 68 -56 121q-35 57 -87 104q-54 49 -117 83q-61 33 -153 53q-86 19 -191 19h-310v-1287z" />
<glyph unicode="E" horiz-adv-x="1198" d="M210 50v1353q0 29 10 39q11 11 39 11h775q21 0 31 -8q8 -7 8 -32v-6q0 -22 -8 -32q-7 -8 -31 -8h-692v-569h625q21 0 29 -8t8 -29v-6q0 -23 -8 -31t-29 -8h-625v-632h704q23 0 31 -8t8 -31v-6q0 -21 -8 -31q-7 -8 -31 -8h-787q-29 0 -39 10t-10 40z" />
<glyph unicode="F" horiz-adv-x="1132" d="M210 65v1338q0 29 10 39q11 11 39 11h771q22 0 31 -9t9 -31v-6q0 -23 -9 -32q-8 -8 -31 -8h-685v-582h610q23 0 32 -9q8 -8 8 -31v-6q0 -21 -8 -31q-8 -9 -32 -9h-610v-634q0 -37 -14 -51t-51 -14h-6q-37 0 -51 14q-13 13 -13 51z" />
<glyph unicode="G" horiz-adv-x="1529" d="M112 715q0 116 31 232q29 109 93 209q61 95 149 168q90 75 205 114q120 41 256 41q167 0 298 -67q132 -68 201 -190q8 -16 8 -23q0 -13 -21 -27l-5 -3q-13 -9 -24 -9t-26 19q-77 97 -184 151q-110 56 -235 56q-180 0 -316 -85q-138 -86 -209 -235q-72 -150 -72 -341 q0 -109 23 -202q24 -97 73 -182q49 -84 120 -148q72 -64 170 -100q99 -36 217 -36q197 0 400 91v452h-278q-25 0 -34 9t-9 34v6q0 24 9 33t34 9h357q28 0 39 -11q10 -10 10 -39v-485q0 -31 -8 -45q-8 -13 -36 -27q-239 -110 -502 -110q-165 0 -299 53q-136 54 -232 151 q-95 96 -149 235q-54 138 -54 302z" />
<glyph unicode="H" horiz-adv-x="1546" d="M210 63v1326q0 37 13 50q14 14 50 14h6q36 0 50 -14q13 -13 13 -50v-590h862v590q0 37 13 50q14 14 51 14h6q36 0 50 -14q13 -13 13 -50v-1325q0 -38 -13 -51t-50 -13h-6q-38 0 -51 13t-13 51v651h-862v-652q0 -37 -13 -50t-50 -13h-6q-37 0 -50 13t-13 50z" />
<glyph unicode="I" horiz-adv-x="551" d="M210 63v1327q0 36 13 49q14 14 50 14h6q35 0 49 -14t14 -49v-1327q0 -36 -14 -50q-13 -13 -49 -13h-6q-37 0 -50 13t-13 50z" />
<glyph unicode="J" horiz-adv-x="943" d="M37 206q0 17 23 29l6 3q11 7 18 7q12 0 22 -21q30 -60 94 -102t161 -42q42 0 81 14q38 14 63 36q23 21 46 53q21 30 33 63q16 43 21 69q8 40 11 67q3 30 3 60v949q0 36 13 49t49 13h6q36 0 49 -13t13 -49v-961q0 -81 -13 -143q-13 -61 -37 -111q-24 -49 -55 -83 q-35 -38 -67 -58q-35 -22 -77 -36q-43 -14 -78 -20q-31 -5 -77 -5q-109 0 -188 57t-115 156q-5 12 -5 19z" />
<glyph unicode="K" horiz-adv-x="1294" d="M210 63v1327q0 36 13 49q14 14 50 14h6q35 0 49 -14t14 -49v-593l701 622q23 21 40 28q13 6 48 6h60q29 0 29 -11q0 -9 -16 -23l-708 -635l783 -750q15 -13 15 -22q0 -12 -29 -12h-99q-34 0 -48 6q-15 7 -38 28l-738 698v-669q0 -36 -14 -50q-13 -13 -49 -13h-6 q-37 0 -50 13t-13 50z" />
<glyph unicode="L" horiz-adv-x="1088" d="M210 50v1339q0 37 13 50q14 14 50 14h7q36 0 50 -14q13 -13 13 -50v-1304h672q24 0 31 -8q8 -10 8 -31v-6q0 -22 -8 -32q-7 -8 -31 -8h-756q-29 0 -39 10t-10 40z" />
<glyph unicode="M" horiz-adv-x="1874" d="M163 47l104 1342q3 37 17 50q16 14 53 14h6q39 0 56 -11q17 -10 33 -48l509 -1178l507 1180q15 36 31 46q17 11 55 11h6q36 0 51 -13q13 -11 16 -49l109 -1328q3 -35 -10 -49q-12 -14 -49 -14h-6q-38 0 -51 13q-14 14 -17 50l-86 1209l-530 -1246q-8 -17 -14 -21 q-8 -5 -25 -5h-6q-17 0 -25 5q-6 4 -14 21l-534 1245l-87 -1224q-2 -28 -12 -37q-12 -10 -38 -10h-6q-27 0 -36 10q-10 11 -7 37z" />
<glyph unicode="N" horiz-adv-x="1612" d="M210 49v1354q0 29 10 39q11 11 39 11h54q33 0 46 -7q15 -8 34 -33l905 -1184v1174q0 29 10 39q11 11 40 11h6q28 0 39 -11q10 -10 10 -39v-1361q0 -24 -9 -33t-33 -9h-6q-27 0 -39 6q-13 6 -29 27l-973 1262v-1246q0 -29 -10 -39t-39 -10h-6q-29 0 -39 10t-10 39z" />
<glyph unicode="O" d="M115 724q0 110 24 211t67 184t107 150q66 69 143 114t175 71q94 25 203 25q154 0 289 -56q132 -55 226 -155t146 -238t52 -301q0 -134 -32 -246q-34 -118 -94 -209q-60 -90 -148 -160q-87 -68 -198 -104q-113 -36 -241 -36q-159 0 -295 56q-134 55 -228 155 q-93 99 -144 238q-52 142 -52 301zM259 728q0 -88 17 -176q17 -87 49 -160q33 -75 82 -136q51 -63 113 -106q67 -46 142 -69q80 -24 171 -24q113 0 203 35q95 37 160 99q70 67 114 148q47 86 69 184q23 101 23 207q0 108 -24 207t-72 183q-47 82 -116 145q-66 60 -159 95 t-199 35q-131 0 -238 -52q-106 -52 -181 -143q-72 -88 -113 -212q-41 -123 -41 -260z" />
<glyph unicode="P" horiz-adv-x="1203" d="M210 63v1340q0 29 10 39q11 11 39 11h419q101 0 183 -25q86 -26 145 -72q64 -50 97 -122q35 -76 35 -169q0 -84 -28 -155q-27 -69 -77 -122t-111 -88q-67 -39 -135 -54q-70 -16 -144 -16l-301 3v-570q0 -37 -13 -50t-50 -13h-6q-37 0 -50 13t-13 50zM342 696h146 q78 0 150 12q76 13 138 38q65 27 113 67q49 41 77 102q28 60 28 139q0 138 -99 227q-100 89 -260 89h-293v-674z" />
<glyph unicode="Q" d="M116 724q0 168 52 306q52 139 146 239t228 155t293 55q154 0 289 -56q132 -55 226 -155t146 -238t52 -301q0 -196 -68 -351q-68 -156 -199 -261q-128 -103 -304 -136q56 -79 103 -124q50 -47 114 -79q59 -29 138 -44q77 -14 177 -17q17 0 23 -6q5 -5 5 -23v-6 q0 -17 -5 -22q-6 -6 -23 -6h-21q-102 0 -181 9q-80 9 -152 30q-73 21 -132 58q-60 38 -115 91q-51 50 -107 131q-154 6 -283 65q-128 59 -216 157q-87 97 -137 235q-49 135 -49 294zM260 728q0 -88 17 -176q17 -87 49 -160q33 -75 82 -136q52 -65 112 -106q66 -46 143 -69 q79 -24 171 -24q113 0 203 35q95 37 160 99q70 67 114 148q48 89 70 184q22 97 22 207q0 108 -24 207t-72 183q-47 82 -116 145q-66 60 -159 95t-199 35q-132 0 -239 -52q-106 -52 -181 -143q-72 -88 -113 -212q-40 -120 -40 -260z" />
<glyph unicode="R" horiz-adv-x="1262" d="M210 63v1340q0 29 10 39q11 11 39 11h402q75 0 143 -12q63 -11 127 -40q62 -28 103 -69q42 -42 67 -104t25 -141q0 -142 -95 -249t-252 -141q43 -40 82 -85q42 -49 68 -84q35 -47 59 -91q25 -44 48 -89q18 -35 45 -98q20 -48 40 -97q11 -27 40 -106q6 -15 6 -24 q0 -23 -38 -23h-44q-29 0 -43 9q-13 9 -24 38q-72 194 -155 340q-87 153 -214 296q-105 -6 -141 -6h-37l-129 3v-617q0 -36 -14 -50q-13 -13 -49 -13h-6q-37 0 -50 13t-13 50zM342 742q37 0 93 2q63 2 96 5q64 5 97 11q54 9 92 20q47 13 85 30q34 15 72 43q33 24 57 58 q22 31 36 75q14 45 14 94q0 68 -30 123q-30 56 -80 91q-53 37 -115 56q-66 20 -136 20h-281v-628z" />
<glyph unicode="S" horiz-adv-x="1171" d="M105 282q0 16 26 30l5 3q14 8 23 8q13 0 27 -26q52 -105 147 -168q94 -62 234 -62q53 0 106 12q52 12 98 37q48 26 81 61q35 37 55 85q21 51 21 110q0 54 -15 94q-16 43 -44 74q-31 34 -85 62q-53 27 -126 53q-70 25 -179 54q-52 14 -103 35q-51 22 -92 50q-46 32 -75 70 q-32 42 -49 94q-18 56 -18 121q0 77 25 140q25 64 69 112q41 45 102 81q56 33 127 50t143 17q139 0 248 -69t158 -186q5 -11 5 -22q0 -16 -25 -29l-5 -3q-13 -7 -22 -7q-14 0 -26 22q-48 92 -132 148q-86 57 -199 57q-61 0 -124 -19q-57 -17 -107 -53q-45 -32 -75 -91 q-28 -55 -28 -124q0 -48 15 -87q16 -43 38 -67q24 -27 59 -50q38 -25 68 -37q36 -15 74 -26q25 -8 83 -24q150 -43 221 -75q148 -67 198 -178q32 -70 32 -161q0 -99 -39 -180t-109 -134q-72 -54 -160 -82q-90 -28 -194 -28q-72 0 -137 15q-64 15 -112 42q-51 29 -88 63 q-39 36 -67 78q-28 43 -47 87q-6 13 -6 23z" />
<glyph unicode="T" horiz-adv-x="1169" d="M31 1406v6q0 24 8 32q9 9 32 9h1028q23 0 32 -9q8 -8 8 -32v-6q0 -24 -8 -32q-9 -9 -32 -9h-446v-1300q0 -38 -13 -51q-14 -14 -51 -14h-6q-37 0 -51 14t-14 51v1300h-447q-23 0 -32 9q-8 8 -8 32z" />
<glyph unicode="U" horiz-adv-x="1501" d="M192 485v905q0 35 14 49t49 14h6q36 0 50 -14q13 -13 13 -49v-855q0 -114 25 -198q25 -85 77 -149q51 -63 135 -96t197 -33q218 0 330 123q111 121 111 345v874q0 30 11 41t41 11h6q30 0 41 -11t11 -41v-905q0 -130 -39 -230q-38 -99 -111 -164q-69 -62 -174 -96 q-99 -32 -231 -32q-172 0 -297 57q-124 57 -195 173q-70 115 -70 281z" />
<glyph unicode="V" horiz-adv-x="1322" d="M22 1431q0 22 37 22h52q29 0 43 -9q13 -9 25 -37l499 -1192l502 1187q14 33 28 41q17 10 49 10h6q40 0 40 -24q0 -13 -7 -27l-588 -1371q-7 -19 -16 -25t-30 -6h-6q-20 0 -29 6q-8 5 -17 25l-581 1376q-7 14 -7 24z" />
<glyph unicode="W" horiz-adv-x="1965" d="M50 1427q0 26 40 26h48q30 0 43 -10q12 -9 21 -38l344 -1175l407 1192q7 19 15 25t28 6h6q20 0 28 -6t15 -25l397 -1193l364 1175q9 29 22 39t44 10h6q39 0 39 -26q0 -11 -4 -23l-427 -1370q-5 -18 -16 -27q-8 -7 -32 -7h-6q-24 0 -32 7q-9 8 -16 27l-400 1196 l-409 -1197q-8 -21 -16 -27q-9 -6 -31 -6h-6q-21 0 -30 6q-8 5 -16 28l-421 1371q-5 17 -5 22z" />
<glyph unicode="X" horiz-adv-x="1275" d="M50 19q0 10 14 30l494 696l-470 667q-11 17 -11 25q0 16 32 16h67q33 0 46 -7q15 -8 32 -34l396 -561l388 551q22 33 41 42q18 9 57 9h6q40 0 40 -20q0 -11 -14 -31l-452 -631l510 -730q11 -17 11 -25q0 -16 -33 -16h-70q-32 0 -45 7q-16 9 -33 34l-432 619l-433 -611 q-22 -31 -39 -40q-16 -9 -56 -9h-6q-40 0 -40 19z" />
<glyph unicode="Y" horiz-adv-x="1214" d="M17 1435q0 18 33 18h56q31 0 45 -8q15 -8 31 -35l438 -700l458 696q17 27 36 38q15 9 51 9h6q36 0 36 -19q0 -11 -11 -28l-524 -814v-528q0 -37 -14 -51q-13 -13 -50 -13h-6q-38 0 -51 13t-13 51v527l-512 819q-9 13 -9 25z" />
<glyph unicode="Z" horiz-adv-x="1260" d="M59 29v7q0 19 3 28t14 24l916 1277h-832q-23 0 -32 9q-8 8 -8 32v6q0 24 8 32q9 9 32 9h979q16 0 22 -6t6 -22v-6q0 -21 -3 -28q-4 -10 -13 -23l-915 -1281h903q24 0 32 -8q9 -9 9 -32v-6q0 -23 -9 -32t-32 -9h-1051q-17 0 -23 6t-6 23z" />
<glyph unicode="[" horiz-adv-x="568" d="M181 -293v1744q0 29 11 40q10 10 39 10h238q22 0 30 -8t8 -29v-6q0 -22 -8 -30t-30 -8h-161v-1682h161q22 0 30 -8t8 -29v-6q0 -22 -8 -30t-30 -8h-238q-28 0 -39 11t-11 39z" />
<glyph unicode="\" horiz-adv-x="864" d="M94 1496q4 7 23 7h65q21 0 30 -6q7 -5 15 -25l567 -1608q6 -16 1 -24q-4 -7 -23 -7h-66q-20 0 -29 6q-7 5 -15 25l-567 1608q-6 16 -1 24z" />
<glyph unicode="]" horiz-adv-x="567" d="M61 -299q0 21 8 29t30 8h163v1682h-163q-22 0 -30 8t-8 30v6q0 21 8 29t30 8h238q29 0 39 -10t10 -40v-1744q0 -29 -10 -39q-11 -11 -39 -11h-238q-22 0 -30 8t-8 30v6z" />
<glyph unicode="^" horiz-adv-x="988" d="M84 684q-4 7 2 20l327 723q7 17 15 21q8 5 25 5h90q17 0 25 -5q8 -4 15 -21l327 -723q6 -13 2 -20q-3 -6 -19 -6h-70q-17 0 -25 5t-15 21l-284 642l-286 -642q-7 -16 -15 -21t-25 -5h-70q-16 0 -19 6z" />
<glyph unicode="_" horiz-adv-x="1099" d="M31 -189h1038v-102h-1038v102z" />
<glyph unicode="`" horiz-adv-x="462" d="M64 1472q-20 22 10 22h126q18 0 26 -5q6 -4 17 -19l169 -267q15 -24 -13 -24h-49q-14 0 -26 4q-7 2 -21 18z" />
<glyph unicode="a" horiz-adv-x="1076" d="M94 275q0 74 29 134q29 59 75 96q45 37 111 61q65 24 132 33q75 10 141 10q103 0 209 -16v50q0 63 -16 111q-17 52 -48 88q-33 39 -86 60q-55 22 -123 22q-82 0 -158 -39q-77 -39 -131 -102q-17 -19 -27 -19q-9 0 -22 8l-5 3q-21 13 -21 26q0 7 7 20q53 96 152 152 q100 56 220 56q106 0 181 -27t119 -83q43 -55 63 -131q20 -77 20 -177v-552q0 -34 -13 -47q-12 -12 -46 -12h-7q-34 0 -46 12q-13 13 -13 47v120h-1q-136 -202 -342 -202q-98 0 -180 34q-77 32 -126 102q-48 69 -48 162zM229 289q0 -55 20 -95q21 -41 56 -69q33 -26 81 -40 t98 -14q37 0 79 12q37 10 82 39q38 24 73 62q32 35 53 86q20 49 20 108v126q-114 18 -221 18q-50 0 -95 -6q-42 -6 -91 -23q-47 -17 -80 -42q-33 -26 -54 -67q-21 -42 -21 -95z" />
<glyph unicode="b" horiz-adv-x="1219" d="M173 57v1385q0 32 12 44t44 12h6q33 0 45 -12q11 -11 11 -44v-603q153 190 368 190q88 0 160 -28q76 -30 128 -77q55 -50 91 -114q39 -68 56 -142q19 -81 19 -158q0 -82 -18 -159t-56 -145q-37 -66 -91 -119q-50 -49 -128 -80q-75 -30 -162 -30q-113 0 -207 53t-159 156 l-1 -1v-128q0 -34 -11 -45q-12 -12 -45 -12h-6q-32 0 -44 12t-12 45zM291 379q0 -58 21 -107q22 -52 53 -86t77 -61q45 -26 90 -38q50 -13 90 -13q72 0 130 24q61 25 100 64q40 40 69 95q28 54 42 116q14 64 14 126q0 68 -12 131q-12 64 -39 119t-67 97q-38 39 -98 64 q-59 24 -131 24q-90 0 -169 -41q-77 -40 -124 -110q-46 -68 -46 -150v-254z" />
<glyph unicode="c" horiz-adv-x="1074" d="M108 495q0 154 58 273q59 122 170 191q112 70 262 70q132 0 224 -58q94 -59 144 -165q7 -14 7 -23q0 -15 -26 -29l-5 -3q-14 -8 -22 -8q-14 0 -28 24q-43 76 -116 120t-170 44q-161 0 -262 -115t-101 -310q0 -86 24 -162q23 -74 68 -134q44 -60 113 -94q70 -35 156 -35 q96 0 173 44q76 43 125 121q12 19 23 19q6 0 20 -8l5 -3q21 -14 21 -25q0 -9 -6 -21q-48 -111 -144 -171t-234 -60q-145 0 -256 67q-109 66 -166 183t-57 268z" />
<glyph unicode="d" horiz-adv-x="1219" d="M107 510q0 82 18 158q17 71 57 142q36 64 91 114q52 47 128 77q72 28 161 28q217 0 365 -190v603q0 32 12 44t45 12h6q32 0 44 -12t12 -44v-1385q0 -33 -12 -45t-44 -12h-6q-33 0 -45 12t-12 45v128l-1 1q-66 -104 -158 -156q-94 -53 -206 -53q-87 0 -162 30 q-76 30 -127 80q-54 53 -91 119q-40 71 -57 145q-18 77 -18 159zM241 499q0 -62 14 -126q14 -62 42 -116q28 -53 70 -95q39 -39 100 -64q59 -24 129 -24q42 0 92 13q43 11 89 38t77 61q34 37 53 86q20 51 20 107v254q0 81 -45 150t-124 110t-169 41q-73 0 -131 -24 q-59 -24 -98 -65q-41 -43 -67 -96q-27 -55 -39 -119q-13 -68 -13 -131z" />
<glyph unicode="e" horiz-adv-x="1148" d="M106 501q0 155 61 274q62 120 173 187q112 67 257 67q33 0 64 -3q26 -3 77 -16q45 -12 85 -32t80 -57q43 -40 71 -86q31 -51 51 -123q22 -79 25 -166q1 -27 -8 -36t-36 -9h-765q0 -45 8 -84q9 -46 25 -91q17 -49 47 -91q29 -41 70 -77q38 -34 97 -55q56 -20 126 -20 q198 0 324 174q16 21 29 21q11 0 23 -8l5 -3q23 -14 23 -27q0 -8 -8 -22q-130 -241 -413 -241q-148 0 -261 68q-112 67 -171 187t-59 269zM240 586h682q0 42 -9 85q-10 46 -32 91q-23 47 -60 85q-36 37 -95 61q-60 24 -134 24q-61 0 -112 -16q-54 -17 -87 -43 q-36 -28 -63 -61q-30 -36 -45 -68q-17 -35 -27 -67q-13 -41 -15 -55q-3 -22 -3 -36z" />
<glyph unicode="f" horiz-adv-x="629" d="M54 960v7q0 22 9 31q8 8 32 8h137v174q0 163 76 251q77 89 222 89q54 0 100 -21q26 -12 26 -30q0 -9 -4 -21l-2 -5q-8 -25 -23 -25q-4 0 -18 4q-41 12 -76 12q-40 0 -75 -11q-33 -11 -52 -28q-20 -19 -32 -45q-13 -29 -17 -55q-4 -25 -4 -64v-225h188q24 0 32 -8t8 -31 v-7q0 -24 -8 -32t-32 -8h-188v-863q0 -33 -12 -45t-45 -12h-7q-33 0 -45 12t-12 45v863h-137q-24 0 -32 8q-9 9 -9 32z" />
<glyph unicode="g" horiz-adv-x="1200" d="M111 504q0 80 17 159q16 73 53 143q35 65 88 117q51 49 125 78q72 28 161 28q221 0 353 -208l1 1v129q0 32 12 44q11 11 45 11h6q33 0 44 -11q12 -12 12 -44v-890q0 -128 -26 -227q-25 -97 -81 -169q-55 -71 -148 -108q-94 -37 -219 -37q-54 0 -111 11q-54 11 -111 36 t-105 72q-47 46 -78 112q-7 14 -7 23q0 16 25 30l5 3q13 9 23 9q13 0 27 -21q52 -79 144 -129q91 -49 191 -49q65 0 116 13q53 14 89 36t63 57q25 32 43 71q15 34 25 83q11 55 13 90q3 44 3 95v137q-28 -35 -48 -56q-26 -28 -56 -51q-36 -28 -69 -43q-44 -20 -83 -29 q-49 -11 -99 -11q-108 0 -194 39q-84 38 -139 107q-53 66 -82 157q-28 87 -28 192zM244 525q0 -67 11 -130q11 -60 36 -114q26 -56 64 -92q40 -38 96 -60q57 -22 131 -22q137 0 232 89t95 213v219q0 71 -28 130q-27 56 -76 96q-44 36 -103 58q-55 21 -113 21q-72 0 -129 -22 q-59 -23 -98 -60t-66 -90q-29 -56 -40 -111q-12 -58 -12 -125z" />
<glyph unicode="h" horiz-adv-x="1148" d="M173 58v1383q0 33 12 45t45 12h7q33 0 45 -12t12 -45v-620l1 -1q63 99 158 154t209 55q58 0 106 -12q47 -12 81 -35q35 -24 59 -55q25 -32 40 -70q16 -39 24 -84q9 -48 12 -93t3 -101v-522q0 -33 -12 -45t-45 -12h-6q-33 0 -45 12t-12 45v576q0 71 -12 122q-12 52 -41 90 t-78 56q-52 19 -122 19q-82 0 -156 -42q-76 -44 -119 -112q-45 -72 -45 -152v-556q0 -34 -12 -46t-45 -12h-7q-33 0 -45 12t-12 46z" />
<glyph unicode="i" horiz-adv-x="471" d="M146 1290q0 35 26 61q25 25 64 25q36 0 63 -25q25 -24 25 -61q0 -39 -25 -64q-27 -27 -63 -27t-63 27t-27 64zM173 60v887q0 35 12 47t48 12h6q35 0 47 -12q13 -13 13 -47v-887q0 -34 -13 -47t-47 -13h-6q-35 0 -48 13q-12 12 -12 47z" />
<glyph unicode="j" horiz-adv-x="473" d="M-9 -437q0 22 8 30t29 11q25 3 51 13t38 20q16 13 26 31q9 16 16 38q6 18 9 46q2 16 4 51q1 15 1 59v1085q0 35 12 47t48 12h8q35 0 47 -12t12 -47v-1054q0 -109 -14 -173q-15 -70 -48 -113t-83 -63q-51 -20 -127 -23q-22 0 -29 7q-8 8 -8 29v6zM146 1290q0 38 26 61 q28 25 65 25q35 0 62 -25q26 -24 26 -61q0 -36 -26 -64q-26 -27 -62 -27q-38 0 -65 27q-26 26 -26 64z" />
<glyph unicode="k" horiz-adv-x="1024" d="M173 58v1383q0 33 12 45t45 12h7q33 0 45 -12t12 -45v-870l486 407q25 20 36 24q12 4 43 4h58q25 0 25 -9q0 -7 -14 -19l-491 -419l542 -528q13 -13 13 -21q0 -10 -26 -10h-90q-30 0 -43 5t-34 26l-505 489v-462q0 -34 -12 -46t-45 -12h-7q-33 0 -45 12t-12 46z" />
<glyph unicode="l" horiz-adv-x="517" d="M173 350v1091q0 33 12 45t45 12h7q33 0 45 -12t12 -45v-1113q0 -51 1 -69q2 -38 5 -59q4 -30 14 -53q6 -15 25 -39q14 -18 40 -31q23 -11 57 -16q22 -3 30 -11q7 -7 7 -29v-6q0 -22 -8 -30q-7 -7 -29 -7q-74 3 -123 23q-45 18 -80 64q-34 44 -47 113q-13 66 -13 172z" />
<glyph unicode="m" horiz-adv-x="1786" d="M173 60v887q0 35 12 47t47 12h6q35 0 47 -12t12 -47v-127l2 -1q65 100 154 155t196 55q135 0 203 -59q70 -61 95 -171q51 102 148 166t224 64q60 0 103 -13q47 -14 77 -34q33 -22 55 -56t36 -71q15 -41 22 -85t10 -94q3 -45 3 -102v-514q0 -35 -12 -47q-13 -13 -47 -13 h-6q-35 0 -48 13q-12 12 -12 47v567q0 75 -10 124q-11 52 -34 90q-24 38 -70 57q-47 19 -114 19q-79 0 -151 -37q-70 -36 -115 -105q-44 -67 -44 -153v-562q0 -34 -13 -47t-47 -13h-6q-34 0 -47 13t-13 47v567q0 73 -9 124q-9 50 -35 90q-26 39 -70 57q-48 19 -114 19 q-77 0 -149 -42t-117 -114t-45 -151v-550q0 -35 -12 -47q-13 -13 -47 -13h-6q-34 0 -47 13q-12 12 -12 47z" />
<glyph unicode="n" horiz-adv-x="1158" d="M173 60v888q0 34 12 46t47 12h6q35 0 47 -12t12 -46v-128l2 -1q64 100 159 155t211 55q61 0 107 -13q53 -15 82 -34q34 -22 59 -56q27 -37 41 -71q17 -43 25 -85q9 -48 12 -94t3 -102v-514q0 -35 -12 -47q-13 -13 -46 -13h-7q-34 0 -47 13q-12 12 -12 47v567 q0 73 -12 124t-39 90t-77 57q-52 19 -120 19q-62 0 -121 -25q-55 -23 -105 -67q-44 -39 -74 -98q-29 -58 -29 -117v-550q0 -35 -12 -47q-13 -13 -47 -13h-6q-34 0 -47 13q-12 12 -12 47z" />
<glyph unicode="o" horiz-adv-x="1199" d="M108 495q0 117 33 214q33 99 95 169q61 69 158 111q93 40 212 40q151 0 260 -68q112 -70 169 -186q58 -119 58 -263q0 -155 -58 -277q-57 -121 -170 -189q-114 -69 -270 -69q-113 0 -206 38q-92 38 -154 107q-60 68 -94 164q-33 94 -33 209zM245 506q0 -71 12 -134 q11 -59 40 -120q26 -55 68 -97q41 -41 101 -65t134 -24q78 0 142 27q63 26 112 80q48 52 75 137q26 81 26 194q0 76 -12 132q-14 64 -42 119q-29 55 -69 96q-40 40 -100 64t-131 24q-73 0 -133 -24q-62 -25 -101 -64q-43 -43 -69 -96q-28 -58 -40 -118q-13 -67 -13 -131z " />
<glyph unicode="p" horiz-adv-x="1219" d="M173 -401v1351q0 33 12 45q11 11 45 11h6q34 0 45 -11t11 -45v-128l2 -1q65 102 158 155q94 53 206 53q90 0 162 -29q78 -31 128 -80q54 -53 91 -119q38 -68 56 -145t18 -160q0 -76 -19 -157q-17 -74 -56 -142q-37 -66 -91 -115q-52 -47 -128 -77q-72 -28 -160 -28 q-217 0 -367 190v-568q0 -33 -11 -44q-12 -12 -45 -12h-6q-33 0 -45 12t-12 44zM292 374q0 -79 46 -150t123 -111t170 -40q75 0 131 23q60 25 99 65q38 39 66 97q27 56 39 118q12 63 12 132q0 67 -13 126t-43 116q-28 53 -70 95q-37 37 -100 63q-58 24 -130 24 q-60 0 -114 -20q-60 -22 -106 -58q-51 -40 -79 -96q-31 -62 -31 -130v-254z" />
<glyph unicode="q" horiz-adv-x="1219" d="M107 496q0 84 18 160q17 74 57 145q37 66 91 119q51 50 127 80q72 29 162 29q112 0 206 -53q93 -53 158 -155l1 1v128q0 33 12 45q11 11 45 11h6q33 0 44 -11q12 -12 12 -45v-1351q0 -32 -12 -44t-44 -12h-6q-33 0 -45 12t-12 44v568q-148 -190 -365 -190q-89 0 -161 28 q-76 30 -128 77q-54 49 -91 115q-40 71 -57 142q-18 76 -18 157zM241 508q0 -64 13 -132q12 -62 39 -118q27 -55 67 -97q39 -41 98 -65q56 -23 131 -23q92 0 169 40q78 41 124 111q45 69 45 150v254q0 56 -20 107q-19 48 -53 85q-31 34 -77 61q-49 29 -89 39q-47 12 -92 12 q-70 0 -129 -24q-63 -26 -100 -63q-42 -42 -70 -95q-28 -54 -42 -116q-14 -64 -14 -126z" />
<glyph unicode="r" horiz-adv-x="731" d="M173 60v887q0 35 12 47t48 12h7q35 0 47 -12t12 -47v-114h1q47 90 126 143t174 53q20 0 40 -3q26 -4 35 -16q8 -11 8 -40v-50q0 -33 -21 -33q-10 0 -21 4q-48 16 -90 16q-47 0 -94 -21t-81 -57q-36 -37 -56 -88q-21 -53 -21 -110v-571q0 -35 -12 -47q-13 -13 -47 -13h-7 q-35 0 -48 13q-12 12 -12 47z" />
<glyph unicode="s" horiz-adv-x="959" d="M94 223q0 15 25 26l5 3q14 7 23 7q16 0 29 -22q22 -33 52 -63t62 -50q35 -22 84 -34q44 -11 107 -11q40 0 69 5q32 5 67 20q34 14 58 35q25 22 39 51q15 32 15 70q0 79 -68 124q-47 31 -170 67q-18 6 -46 14t-76 23q-32 10 -66 25q-38 17 -58 29q-22 14 -46 36 q-23 21 -35 43q-14 24 -21 54q-7 28 -7 65q0 72 30 127q31 57 81 91q53 36 112 53q61 18 129 18q114 0 199 -53q83 -52 130 -152q6 -12 6 -20q0 -14 -25 -25l-5 -3q-11 -5 -21 -5q-15 0 -28 22q-38 65 -102 102q-65 38 -153 38q-38 0 -79 -11q-43 -12 -75 -31 q-33 -20 -56 -55q-22 -34 -22 -77q0 -30 12 -54t34 -41t56 -32q31 -13 75 -27q39 -12 93 -27q5 -1 11.5 -2.5t9.5 -2.5q85 -24 133 -46q51 -23 94 -57t62 -79q20 -48 20 -108q0 -61 -23 -115t-59 -87t-87 -58t-104 -35q-57 -11 -111 -11q-71 0 -133 18q-59 17 -106 50 q-46 32 -78 70t-55 85q-7 14 -7 23z" />
<glyph unicode="t" horiz-adv-x="693" d="M49 960v6q0 23 9 32q8 8 32 8h134v206q0 33 12 45t46 12h6q33 0 45 -12t12 -45v-206h217q24 0 32 -8q9 -9 9 -32v-6q0 -23 -9 -32t-32 -9h-217v-681q0 -175 161 -175q42 0 94 23q12 6 19 6q13 0 19 -24l2 -5q3 -13 3 -20q0 -17 -24 -29q-72 -37 -156 -37q-239 0 -239 260 v682h-134q-23 0 -32 9t-9 32z" />
<glyph unicode="u" horiz-adv-x="1158" d="M160 433v515q0 33 13 46q12 12 47 12h6q35 0 47 -12t12 -47v-568q0 -77 11 -124q12 -49 39 -89q27 -38 76 -57q51 -19 120 -19q81 0 158 42t124 113q48 72 48 152v550q0 35 12 47t47 12h7q35 0 47 -12t12 -47v-887q0 -35 -12 -47q-13 -13 -47 -13h-7q-34 0 -47 13 q-12 12 -12 47v127h-1q-62 -97 -160 -154q-97 -56 -210 -56q-55 0 -107 13q-47 12 -82 33q-33 20 -60 55q-25 32 -40 70q-17 43 -25 85q-9 47 -12 96q-4 62 -4 104z" />
<glyph unicode="v" horiz-adv-x="981" d="M44 987q0 19 33 19h56q28 0 39 -7q12 -7 22 -34l315 -777l319 773q12 28 24 37q11 8 43 8h6q36 0 36 -20q0 -10 -6 -24l-388 -929q-7 -21 -17 -27q-9 -6 -31 -6h-7q-22 0 -31 6q-11 7 -18 27l-390 932q-5 11 -5 22z" />
<glyph unicode="w" horiz-adv-x="1540" d="M52 985q0 21 35 21h47q26 0 39 -8q11 -7 20 -34l256 -753l293 768q9 19 14 22q8 5 25 5h6q17 0 25 -5q6 -3 14 -22l296 -768l257 749q11 29 23 38q11 8 43 8h6q38 0 38 -23q0 -6 -5 -23l-326 -931q-5 -16 -14 -23q-8 -6 -28 -6h-6q-20 0 -27 6q-10 8 -16 23l-306 775 l-290 -776q-8 -19 -14 -23q-8 -5 -26 -5h-6q-19 0 -27 6q-7 6 -13 22l-328 936q-5 13 -5 21z" />
<glyph unicode="x" horiz-adv-x="1032" d="M61 17q0 7 15 29l366 476l-333 448q-10 13 -10 22q0 14 29 14h76q29 0 41 -6t30 -30l257 -346l255 338q22 29 37 37q14 7 52 7h6q34 0 34 -16q0 -12 -13 -28l-311 -411l379 -515q11 -14 11 -22q0 -14 -29 -14h-79q-29 0 -41 6q-14 7 -30 30l-303 411l-303 -401 q-23 -31 -39 -38q-18 -8 -54 -8h-6q-37 0 -37 17z" />
<glyph unicode="y" horiz-adv-x="970" d="M44 987q0 19 33 19h54q29 0 40 -7q12 -7 22 -34l302 -745l307 736q14 32 27 41t48 9h7q40 0 40 -23q0 -12 -7 -27l-418 -1004q-70 -170 -103 -228q-60 -110 -142 -158q-67 -39 -157 -45q-21 -1 -29 7t-8 29v6q0 21 8 29t29 11q39 5 72 22t71 55t75 103q37 66 72 159 l40 106l-377 917q-6 13 -6 22z" />
<glyph unicode="z" horiz-adv-x="970" d="M73 25v6q0 20 2 25q5 11 12 21l621 855h-556q-20 0 -27 7q-8 8 -8 27v6q0 19 8 27q7 7 27 7h695q16 0 21 -5t5 -20v-6q0 -21 -2 -26q-4 -11 -13 -22l-620 -851h609q19 0 27 -8q7 -7 7 -27v-6q0 -21 -7 -28t-27 -7h-749q-15 0 -20 5t-5 20z" />
<glyph unicode="{" horiz-adv-x="612" d="M61 577v6q0 16 7 23t24 10q30 5 52 19t37 39q13 20 25 52q9 23 14 66q6 53 7 74q2 46 2 81v196q0 73 5 115q6 47 17 88q10 37 30 64q20 28 42 44t56 27q28 9 69 14q36 5 84 6q19 0 26 -7t7 -27v-6q0 -20 -6 -26q-7 -7 -26 -8q-48 -3 -76 -14q-30 -11 -52 -32 q-20 -18 -32 -54q-11 -32 -16 -77q-4 -37 -4 -104v-245q0 -40 -2 -86q-1 -32 -8 -70q-6 -37 -16 -59q-11 -25 -28 -45q-19 -22 -43 -36q-27 -16 -60 -26v-1q79 -20 117 -83t38 -162v-316q0 -51 5 -96q4 -38 17 -76t32 -59q21 -22 52 -37t76 -18q19 -1 26 -8q6 -6 6 -27v-6 q0 -19 -6 -25q-7 -7 -26 -7q-84 3 -138 19q-56 17 -93 52q-39 37 -55 96q-17 62 -17 148v244q0 28 -2 72q-1 19 -7 70q-5 39 -15 67q-14 38 -24 55q-15 25 -38 42q-20 15 -52 21q-17 3 -24 10t-7 23z" />
<glyph unicode="|" horiz-adv-x="477" d="M181 -424v1889q0 20 6 26q7 7 27 7h50q19 0 26 -7t7 -26v-1889q0 -19 -7 -26t-26 -7h-50q-20 0 -27 7q-6 6 -6 26z" />
<glyph unicode="}" horiz-adv-x="612" d="M47 -304q0 21 6 27q6 7 26 8q45 3 76 18t52 37q19 21 32 59t17 76q5 45 5 96v316q0 99 38 162t117 83v1q-33 10 -60 26q-24 14 -43 36q-17 20 -28 45q-10 22 -16 59q-7 38 -8 70q-2 46 -2 86v245q0 67 -4 104q-5 45 -16 77q-12 36 -32 54q-22 21 -52 32q-28 11 -76 14 q-20 1 -26 8q-6 6 -6 26v6q0 20 7 27t26 7q48 -1 84 -6q41 -5 69 -14q34 -11 56 -27t42 -44q20 -27 30 -64q11 -41 17 -88q5 -42 5 -115v-196q0 -35 2 -81q1 -21 7 -74q5 -43 14 -66q12 -32 25 -52q15 -25 37 -39t52 -19q17 -3 24 -10t7 -23v-6q0 -16 -7 -23t-24 -10 q-32 -6 -52 -21q-23 -17 -38 -42q-10 -17 -24 -55q-10 -28 -15 -67q-6 -51 -7 -70q-2 -44 -2 -72v-244q0 -86 -17 -148q-16 -59 -55 -96q-37 -35 -93 -52q-54 -16 -138 -19q-19 0 -26 7q-6 6 -6 25v6z" />
<glyph unicode="~" horiz-adv-x="1305" d="M144 540q18 137 89 208q72 72 173 72q58 0 112 -15t93 -36q43 -23 78 -46q43 -28 70 -47q28 -19 66 -36q32 -14 67 -14q61 0 97 38q37 39 55 119q4 16 11 23q6 6 23 6h74q15 0 22 -7q6 -6 3 -23q-18 -134 -91 -207q-71 -71 -172 -71q-56 0 -112 14q-49 12 -93 36 q-49 26 -79 46q-50 33 -69 46q-34 24 -65 36q-36 14 -66 14q-63 0 -99 -38q-37 -38 -53 -118q-3 -15 -10 -22q-6 -6 -24 -6h-75q-16 0 -22 6q-5 5 -3 22z" />
<glyph unicode="&#xa1;" horiz-adv-x="484" d="M153 1020q0 38 26 64t62 26t64 -26q27 -26 27 -64q0 -35 -27 -61q-28 -26 -64 -26q-37 0 -62 25q-26 26 -26 62zM174 -288l1 98q4 493 28 892q1 19 9 27q7 7 28 7h6q21 0 28 -7q8 -8 8 -27q21 -369 27 -892l1 -98q0 -39 -13 -52q-14 -14 -52 -14h-6q-38 0 -52 14 q-13 13 -13 52z" />
<glyph unicode="&#xa2;" horiz-adv-x="1067" d="M88 692q0 141 52 259q51 115 152 189q97 71 235 85v140q0 28 9 36q12 10 37 10h6q27 0 37 -10t10 -36v-139q113 -11 193 -67q81 -57 128 -156q7 -14 7 -22q0 -16 -25 -29l-5 -3q-14 -8 -24 -8q-14 0 -27 24q-43 76 -116 120q-71 43 -170 43q-161 0 -261 -114 q-101 -115 -101 -311q0 -88 23 -161t68 -135q43 -59 113 -94t155 -35q97 0 174 44q76 43 125 121q12 18 23 18q7 0 20 -7l6 -3q20 -11 20 -26q0 -9 -6 -21q-43 -97 -125 -156q-81 -58 -195 -72v-138q0 -25 -10 -37q-9 -10 -37 -10h-6q-27 0 -37 10q-9 9 -9 37v137 q-137 11 -235 79q-99 69 -152 182q-52 111 -52 256z" />
<glyph unicode="&#xa3;" horiz-adv-x="1158" d="M88 702v6q0 20 8 28q7 7 28 7h162q-29 139 -29 230q0 202 121 329q120 126 317 126q267 0 359 -252q4 -12 4 -19q0 -15 -23 -27l-5 -3q-13 -7 -21 -7q-13 0 -23 20q-21 39 -36 62q-16 26 -42 54q-26 29 -53 47q-23 16 -67 29q-39 12 -85 12q-54 0 -99 -12 q-44 -12 -85 -40q-40 -27 -67 -70t-44 -106q-16 -61 -16 -143q0 -91 23 -230h306q22 0 29 -7t7 -28v-6q0 -22 -7 -29t-29 -7h-290q16 -119 16 -213q0 -108 -32 -187q-34 -83 -106 -170h682q25 0 34 -9t9 -36v-6q-2 -27 -12 -36t-36 -9h-853q-14 0 -19 5t-5 18v6q0 15 4 20 q5 7 17 12q189 91 189 407q0 96 -18 198h-177q-21 0 -28 7q-8 8 -8 29z" />
<glyph unicode="&#xa4;" horiz-adv-x="1303" d="M160 281q0 9 15 24l127 123q-89 119 -89 266q0 152 90 272l-129 126q-14 14 -14 23q0 10 14 24l34 33q13 13 23 13q9 0 23 -13l126 -127q122 94 271 94q154 0 272 -91l124 124q13 13 23 13q11 0 24 -13l34 -33q14 -14 14 -24q0 -9 -14 -23l-127 -124q93 -118 93 -274 q0 -148 -93 -268l127 -122q14 -14 14 -23q0 -10 -13 -23l-35 -35q-13 -13 -24 -13q-10 0 -23 13l-123 125q-124 -93 -273 -93q-152 0 -274 94l-123 -126q-13 -13 -24 -13q-9 0 -22 13l-34 35q-14 14 -14 23zM326 695q0 -83 43 -158q42 -73 117 -117q76 -44 165 -44 q85 0 160 42t121 115t46 162q0 86 -42 161q-41 74 -119 119q-76 44 -166 44q-84 0 -161 -43q-73 -41 -119 -117q-45 -75 -45 -164z" />
<glyph unicode="&#xa5;" horiz-adv-x="1213" d="M85 1383q0 19 34 19h43q31 0 45 -8q13 -7 29 -36l374 -671l393 667q18 30 33 39t50 9h6q37 0 37 -20q0 -11 -10 -28l-395 -680h212q21 0 29 -8q7 -7 7 -28v-6q0 -22 -7 -29q-8 -8 -29 -8h-257l-18 -30v-129h276q21 0 28 -7t7 -28v-6q0 -21 -7 -28q-8 -8 -28 -8h-276v-294 q0 -38 -13 -51q-14 -14 -51 -14h-7q-37 0 -51 14q-13 13 -13 51v294h-257q-21 0 -29 8q-7 7 -7 28v6q0 21 7 28t29 7h257v128l-17 31h-240q-20 0 -28 8t-8 29v6q0 20 8 28t28 8h199l-375 684q-8 15 -8 25z" />
<glyph unicode="&#xa6;" horiz-adv-x="436" d="M160 297q0 20 7 27t27 7h49q20 0 27 -7t7 -27v-609q0 -20 -7 -27q-6 -6 -27 -6h-49q-21 0 -27 6q-7 7 -7 27v609zM160 743v609q0 20 7 27t27 7h49q20 0 27 -7t7 -27v-609q0 -19 -7 -26t-27 -7h-49q-20 0 -27 7t-7 26z" />
<glyph unicode="&#xa7;" horiz-adv-x="1011" d="M102 584q0 50 13 89q14 43 34 71q21 30 53 56q30 25 64 44q30 17 74 36q-90 46 -139 111q-50 67 -50 164q0 67 21 124q20 55 57 95q35 38 85 65t104 39q60 13 115 13q107 0 192 -59t121 -143q6 -14 6 -23q0 -16 -30 -30l-6 -3q-16 -6 -23 -6q-17 0 -32 27q-36 64 -93 102 q-58 38 -130 38q-62 0 -119 -23q-56 -23 -92 -72t-36 -117q0 -32 7 -56q9 -30 17 -45q12 -22 29 -38q16 -15 35 -30q17 -13 42 -26l16 -8t16.5 -8.5t11.5 -5.5t21 -9t27 -12q2 -1 6 -2.5t6 -2.5l11 -5q2 -1 5.5 -2.5t5.5 -2.5q37 -17 60 -27q30 -14 56 -27q32 -16 53 -28 q18 -10 47 -28q27 -17 43 -31q22 -20 36 -34q21 -21 30 -38l21 -42q9 -19 14 -48q4 -23 4 -53q0 -100 -62 -177q-61 -76 -161 -120q87 -43 131 -118t44 -165q0 -82 -31 -148q-31 -67 -86 -111q-53 -43 -124 -67t-149 -24q-123 0 -216 63t-132 163q-6 13 -6 23t8 18 q6 6 24 14l5 3q13 6 23 6q18 0 30 -28q35 -75 99 -118q65 -44 157 -44q107 0 181 60q73 60 73 166q0 25 -6 47q-7 26 -14 40q-11 21 -23 36q-20 24 -28 32q-14 14 -34 27q-3 2 -17 11t-20 13q-22 12 -40 21q-9 4 -22 10.5l-17 8.5t-10 4.5t-14.5 6t-14.5 6.5q-32 14 -36 16 q-117 55 -164 84q-125 80 -150 189q-7 28 -7 63zM227 639q0 -40 7 -67q8 -28 27 -57q20 -30 56 -55q35 -25 92 -51l213 -97q160 90 160 209q0 146 -176 227l-204 94q-77 -45 -94 -59q-76 -57 -81 -134v-10z" />
<glyph unicode="&#xa8;" horiz-adv-x="853" d="M146 1322q0 36 28 64q27 27 66 27q38 0 62 -26q24 -25 24 -65q0 -38 -24 -64q-24 -25 -62 -25q-40 0 -66 25q-28 26 -28 64zM524 1322q0 37 27 64t65 27t64 -26q25 -25 25 -65q0 -39 -25 -64t-64 -25t-65 25q-27 26 -27 64z" />
<glyph unicode="&#xa9;" horiz-adv-x="1713" d="M104 728q0 156 59 293t161 239q100 100 240 160q137 59 293 59q155 0 292 -59q140 -60 240 -160q102 -102 161 -239t59 -293t-59 -293q-60 -140 -161 -241t-240 -161q-137 -59 -292 -59q-156 0 -293 59q-139 60 -240 161t-161 241q-59 137 -59 293zM201 728 q0 -140 51 -263q51 -124 138 -212t208 -139q122 -51 259 -51q135 0 257 51q123 52 209 139q87 88 138 212q51 123 51 263q0 113 -32 212q-33 102 -93 183q-63 85 -140 142q-79 58 -181 92q-100 33 -209 33q-137 0 -259 -51q-119 -50 -208 -139q-86 -86 -138 -211 q-51 -123 -51 -261zM468 728q0 74 16 139q17 68 49 127q32 58 80 103t113 70q67 26 142 26q58 0 115 -15q62 -16 108 -42q50 -28 87 -74q38 -46 51 -105q3 -14 -2 -21q-5 -6 -21 -6h-70q-19 0 -24 5t-11 22q-21 68 -83 104t-150 36q-119 0 -190 -98q-72 -99 -72 -271 q0 -173 69 -269t193 -96q84 0 147 42q62 41 85 116q5 17 12 23q6 5 24 5h70q16 0 21 -6q6 -8 3 -23q-21 -117 -124 -188t-238 -71q-98 0 -176 36q-76 35 -125 99q-48 63 -74 148q-25 82 -25 184z" />
<glyph unicode="&#xaa;" horiz-adv-x="784" d="M104 943q0 46 19 87q17 38 49 63q31 25 73 40q46 16 87 22q51 7 93 7q67 0 130 -9v27q0 80 -43 129t-128 49q-49 0 -98 -25t-85 -67q-10 -13 -20 -13q-8 0 -17 5l-5 3q-13 7 -16 15t4 19q35 63 101 101q67 38 145 38q71 0 121 -18t78 -54t42 -86q13 -48 13 -117v-371 q0 -16 -6 -22t-22 -6h-35q-17 0 -23 6t-6 22v73q-89 -116 -216 -116q-104 0 -169 52q-66 53 -66 146zM203 951q0 -65 46 -102q45 -36 114 -36q31 0 63 13t62 37q28 22 48 63q19 38 19 83v78q-59 10 -137 10q-46 0 -75 -6q-32 -7 -68 -23q-32 -15 -52 -45q-20 -31 -20 -72z " />
<glyph unicode="&#xab;" horiz-adv-x="981" d="M70 524q0 10 14 30l249 354q12 18 25 25q10 6 35 6h56q25 0 25 -13q0 -8 -7 -19l-248 -383l248 -385q7 -11 7 -19q0 -12 -25 -12h-56q-26 0 -35 5q-11 6 -24 25l-250 355q-14 20 -14 31zM452 524q0 11 13 30l251 354q12 18 25 25q11 6 36 6h55q25 0 25 -13q0 -8 -7 -19 l-247 -383l247 -385q7 -11 7 -19q0 -12 -25 -12h-55q-27 0 -36 5q-13 7 -25 25l-251 355q-13 17 -13 31z" />
<glyph unicode="&#xac;" horiz-adv-x="1355" d="M154 714v61q0 19 7 26t26 7h965q19 0 26 -7t7 -26v-534q0 -19 -7 -26t-26 -7h-74q-20 0 -27 7q-6 6 -6 26v440h-858q-19 0 -26 7t-7 26z" />
<glyph unicode="&#xad;" horiz-adv-x="798" d="M148 519v67q0 16 6 22t22 6h446q16 0 22 -6t6 -22v-67q0 -17 -6 -23t-22 -6h-446q-16 0 -22 6t-6 23z" />
<glyph unicode="&#xae;" horiz-adv-x="1126" d="M101 1018q0 125 62 232q61 106 169 168q106 61 232 61q94 0 180 -36q85 -36 147 -98q64 -64 99 -147q36 -86 36 -180q0 -125 -62 -232q-61 -106 -168 -169q-106 -63 -232 -63q-96 0 -180 37q-86 37 -147 99q-63 63 -99 148q-37 88 -37 180zM175 1018q0 -111 51 -201 q52 -91 141 -142q92 -52 197 -52q80 0 152 30q73 30 124 83q53 54 82 126q30 74 30 156t-30 155q-28 68 -82 124q-51 53 -124 83q-72 30 -152 30q-81 0 -153 -30q-70 -29 -124 -83q-53 -53 -82 -124q-30 -73 -30 -155zM382 780v489q0 18 5 23q6 6 23 6h164q109 0 161 -40 q50 -38 50 -116q0 -123 -116 -148l106 -217q7 -12 3 -20q-3 -6 -19 -6h-43q-17 0 -25 5q-9 5 -16 21l-99 205h-104v-202q0 -17 -6 -23t-22 -6h-34q-17 0 -23 6q-5 5 -5 23zM472 1050h85q72 0 106 23t34 69q0 48 -34 68t-108 20h-83v-180z" />
<glyph unicode="&#xaf;" horiz-adv-x="906" d="M165 1293v48q0 17 6 23t23 6h518q16 0 22 -6t6 -23v-48q0 -16 -6 -22t-22 -6h-518q-17 0 -23 6t-6 22z" />
<glyph unicode="&#xb0;" horiz-adv-x="768" d="M93 1185q0 119 86 205q85 85 206 85q79 0 145 -39q68 -40 106 -106q39 -68 39 -145q0 -79 -39 -146t-106 -107q-66 -39 -145 -39q-120 0 -206 86t-86 206zM185 1185q0 -84 58 -142q57 -57 142 -57q84 0 141 57q58 58 58 142q0 83 -58 141t-141 58q-84 0 -142 -58 t-58 -141z" />
<glyph unicode="&#xb1;" horiz-adv-x="1324" d="M147 50v61q0 19 7 26t26 7h965q19 0 26 -7t7 -26v-61q0 -19 -7 -26t-26 -7h-965q-19 0 -26 7t-7 26zM147 716v59q0 19 7 26t26 7h414v363q0 20 7 27q6 6 26 6h71q20 0 26 -6q7 -7 7 -27v-363h414q19 0 26 -7t7 -26v-59q0 -19 -7 -26t-26 -7h-414v-369q0 -19 -7 -26 t-26 -7h-71q-19 0 -26 7t-7 26v369h-414q-19 0 -26 7t-7 26z" />
<glyph unicode="&#xb2;" horiz-adv-x="728" d="M80 892v6q0 20 4 32q4 10 19 26l312 327q26 28 37 40q16 18 28 37q14 22 22 48q7 22 7 53q0 67 -45 114t-111 47q-61 0 -108 -39q-46 -39 -70 -98q-7 -18 -17 -25t-28 -4l-6 1q-21 3 -26 11t-1 27q27 101 96 151q68 49 170 49q111 0 184 -61q74 -62 74 -169q0 -12 -2 -32 q-1 -6 -2.5 -15.5t-1.5 -12.5q-1 -9 -10 -27q-6 -12 -10 -24q-2 -6 -14 -23q-3 -4 -6.5 -8.5t-5.5 -7.5t-3 -5q-1 -3 -18 -21q-4 -5 -8 -9.5t-6 -7t-3 -3.5l-20 -20q-11 -12 -19 -20l-281 -288h409q16 0 22 -6t6 -23v-26q0 -16 -6 -22t-22 -6h-506q-20 0 -27 7t-7 27z" />
<glyph unicode="&#xb3;" horiz-adv-x="745" d="M81 1046q0 16 27 24l6 2q9 3 17 3q10 0 16 -6q7 -7 14 -20q31 -61 81 -94q51 -33 119 -33q41 0 70 8q34 9 59 26q27 18 42 48t15 69q0 85 -59 132q-61 49 -157 49h-16q-18 0 -23 5q-6 6 -6 23v26q0 16 6 22t23 6h17q82 0 134 36t52 109q0 62 -43 102t-103 40 q-130 0 -190 -121q-12 -26 -28 -26q-6 0 -17 3l-6 2q-27 7 -27 24q0 4 4 18q30 81 96 128q65 46 167 46q44 0 77 -8q37 -9 69 -25q30 -15 57 -42q25 -25 38 -58q14 -36 14 -75q0 -63 -36 -113q-34 -47 -100 -77q80 -24 123 -85q44 -62 44 -141q0 -49 -16 -87 q-17 -40 -45 -65q-29 -26 -66 -43q-38 -17 -80 -25q-45 -8 -87 -8q-100 0 -173 49q-74 50 -105 135q-4 12 -4 17z" />
<glyph unicode="&#xb4;" horiz-adv-x="462" d="M87 1203l167 267q10 14 18 19t26 5h127q29 0 9 -22l-239 -271q-14 -16 -21 -18q-12 -4 -27 -4h-47q-28 0 -13 24z" />
<glyph unicode="&#xb5;" horiz-adv-x="1260" d="M205 -424v1397q0 20 7 27q6 6 26 6h40q20 0 26 -6q8 -8 8 -27v-580q0 -135 67 -215q68 -82 199 -82q103 0 181 63t118 173q41 112 41 255v386q0 20 7 27q6 6 26 6h42q20 0 26 -6q7 -7 7 -27v-591v-59q0 -8 2 -52q2 -37 4 -50q1 -4 3 -18t4 -23q4 -24 13 -39q8 -14 19 -28 q12 -15 26 -25q19 -13 25 -20q6 -8 6 -27v-31q0 -18 -8 -26t-26 -5q-37 4 -72 24q-29 17 -50 44q-20 25 -33 63q-14 38 -21 73q-6 27 -11 81h-2q-40 -135 -127 -211q-86 -76 -197 -76q-82 0 -146 32q-63 31 -123 105v-538q0 -19 -7 -26t-26 -7h-41q-19 0 -26 7t-7 26z" />
<glyph unicode="&#xb6;" horiz-adv-x="1310" d="M70 1029q0 209 133 316q134 108 370 108h496q17 0 23 -6q5 -5 5 -23v-1715q0 -18 -5 -23q-6 -6 -23 -6h-74q-17 0 -23 6q-5 5 -5 23v1640h-292v-1640q0 -17 -6 -23t-23 -6h-72q-17 0 -23 6q-5 5 -5 23v910q-103 -2 -192 30q-90 32 -151 87q-62 56 -98 132q-35 74 -35 161 z" />
<glyph unicode="&#xb7;" horiz-adv-x="474" d="M148 596q0 36 27 62q28 26 63 26q37 0 63 -26q25 -25 25 -62q0 -38 -25 -63q-26 -26 -63 -26q-35 0 -63 26q-27 25 -27 63z" />
<glyph unicode="&#xb8;" horiz-adv-x="519" d="M68 -392q-3 7 3 20l12 33q5 12 11 15q6 2 18 -2q41 -16 97 -16q43 0 75 17q31 16 31 54q0 24 -14 42q-17 22 -38 31q-27 12 -49 17q-26 6 -51 9q-23 1 -11 21l90 151h93l-75 -117q42 2 80 -13q37 -14 65 -50q26 -33 26 -79q0 -45 -18 -79q-18 -35 -49 -54 q-33 -20 -70 -29q-43 -10 -83 -10q-69 0 -127 26q-13 6 -16 13z" />
<glyph unicode="&#xb9;" horiz-adv-x="484" d="M42 1499q0 12 18 24l207 144q15 10 20 12t24 2h6q14 0 19 -5t5 -19v-768q0 -17 -6 -23t-22 -6h-52q-16 0 -22 6t-6 23v654l-134 -81q-13 -8 -22 -8q-13 0 -23 18l-3 6q-9 14 -9 21z" />
<glyph unicode="&#xba;" horiz-adv-x="847" d="M100 1083q0 158 86 254q87 97 242 97q100 0 172 -44q74 -45 111 -121q38 -78 38 -174q0 -104 -37 -181q-37 -78 -113 -123q-77 -46 -177 -46q-150 0 -236 93q-86 94 -86 245zM202 1091q0 -47 7 -85t25 -77q17 -37 42 -62q26 -26 63 -41q40 -16 85 -16q102 0 163 72 q62 73 62 208q0 54 -14 105q-14 50 -40 88q-27 39 -70 61q-44 23 -100 23q-57 0 -101 -23q-45 -23 -70 -62q-26 -39 -39 -87q-13 -46 -13 -104z" />
<glyph unicode="&#xbb;" horiz-adv-x="983" d="M126 120q0 8 7 19l247 385l-247 383q-7 11 -7 19q0 13 25 13h56q25 0 35 -6q13 -7 25 -25l250 -354q13 -20 13 -30q0 -12 -13 -31l-250 -355q-12 -18 -25 -25q-9 -5 -35 -5h-56q-25 0 -25 12zM508 120q0 6 8 19l247 385l-247 383q-8 13 -8 19q0 13 25 13h57q24 0 35 -6 q13 -7 25 -25l251 -354q13 -20 13 -30q0 -12 -13 -31l-251 -355q-12 -18 -25 -25q-9 -5 -35 -5h-57q-25 0 -25 12z" />
<glyph unicode="&#xbc;" horiz-adv-x="1466" d="M76 1266q0 13 17 24l206 144q13 10 21 12q10 2 24 2h6q14 0 20 -6q5 -5 5 -19v-770q0 -16 -6 -22t-22 -6h-51q-17 0 -23 6t-6 22v656l-134 -81q-13 -8 -22 -8q-12 0 -24 19l-3 5q-8 12 -8 22zM212 -29l851 1510q9 15 17 20q7 4 25 4h59q28 0 15 -24l-852 -1510 q-9 -15 -17 -20q-7 -4 -26 -4h-58q-28 0 -14 24zM769 237v6q0 19 3 28q4 11 14 25l347 508q10 14 18 19q7 4 26 4h59q17 0 23 -6t6 -22v-512h84q21 0 29 -8t8 -28v-6q0 -22 -8 -30q-7 -7 -29 -7h-84v-175q0 -17 -6 -23t-23 -6h-48q-16 0 -22 6t-6 23v175h-361q-18 0 -24 6 t-6 23zM895 287h265l1 393z" />
<glyph unicode="&#xbd;" horiz-adv-x="1553" d="M76 1266q0 10 18 24l206 144q17 11 21 12q10 2 23 2h6q14 0 19 -5t5 -19v-771q0 -16 -6 -22t-22 -6h-51q-16 0 -22 6t-6 22v656l-135 -81q-14 -8 -21 -8q-12 0 -24 19l-3 5q-8 12 -8 22zM211 -29l851 1510q10 16 16 20q7 4 26 4h59q27 0 14 -24l-850 -1510 q-9 -15 -17 -20q-7 -4 -26 -4h-58q-28 0 -15 24zM898 36v6q0 23 4 31q6 11 20 27l311 327q28 29 48 53q15 18 31 54q15 34 15 70q0 70 -45 116t-112 46q-60 0 -107 -39q-49 -41 -70 -98q-7 -19 -16 -25q-8 -5 -29 -4l-6 1q-19 3 -26 11q-6 7 -1 27q26 100 96 151 q68 50 168 50q74 0 130 -26q57 -26 94 -80q35 -51 35 -124q0 -87 -57 -159q-21 -26 -72 -79l-280 -288h408q16 0 22 -6t6 -22v-26q0 -16 -6 -22t-22 -6h-505q-20 0 -27 7t-7 27z" />
<glyph unicode="&#xbe;" horiz-adv-x="1643" d="M88 810q0 8 7 15q5 5 21 10l5 2q11 3 18 3q17 0 30 -26q30 -60 80 -94t119 -34q81 0 132 38q54 40 54 114q0 84 -60 133q-58 48 -157 48h-16q-16 0 -22 6t-6 23v26q0 17 6 23q5 5 22 5h18q82 0 134 37q51 36 51 108q0 63 -43 103q-42 39 -103 39q-130 0 -188 -121 q-9 -16 -12 -19q-6 -6 -17 -6q-3 0 -17 3l-6 1q-27 6 -27 23q0 6 3 17q30 83 97 130t167 47q48 0 95 -14t82 -39q36 -25 57 -66t21 -92q0 -64 -36 -112q-35 -47 -101 -76q79 -24 124 -85q45 -62 45 -140q0 -48 -17 -88t-45 -65q-30 -27 -66 -44q-39 -19 -80 -26 q-39 -7 -87 -7q-99 0 -172 49q-74 50 -105 133q-5 12 -5 18zM396 -29l851 1510q10 16 16 20q7 4 26 4h60q27 0 14 -24l-851 -1510q-10 -16 -16 -20q-7 -4 -26 -4h-60q-28 0 -14 24zM953 237v6q0 22 2 28q3 8 15 25l348 508q10 14 18 19q7 4 26 4h59q16 0 22 -6t6 -22v-512 h85q20 0 28 -8t8 -28v-6q0 -23 -7 -30t-29 -7h-85v-175q0 -17 -6 -23t-22 -6h-48q-17 0 -23 6t-6 23v175h-361q-18 0 -24 6t-6 23zM1080 287h264l1 393z" />
<glyph unicode="&#xbf;" horiz-adv-x="970" d="M98 -31q0 36 6 69q6 34 15 59q10 27 26 54q16 26 32 47q17 22 41 46q20 20 44 42q19 18 50 44q50 44 59 53q20 20 41 47q18 23 30 47q9 18 20 56q7 24 15 72q4 26 13 97q3 19 11 27q7 7 28 7h6q20 0 27 -7q8 -7 9 -27q7 -88 7 -130q0 -22 -6 -60q-3 -21 -11 -50 q-5 -19 -22 -48q-14 -24 -26 -41q-10 -15 -35 -41q-16 -17 -37 -38l-42 -42q-8 -8 -15 -14q-20 -19 -44 -43q-19 -19 -38 -43q-22 -28 -33 -51q-12 -26 -20 -55q-9 -33 -9 -69q0 -116 77 -187t189 -71q224 0 312 232q9 20 14 25q7 7 18 7q3 0 21 -4l6 -2q16 -4 27 -13 q8 -7 8 -21q0 -7 -3 -19q-34 -142 -140 -224q-105 -81 -273 -81q-81 0 -150 22q-72 23 -126 64q-55 42 -89 111q-33 68 -33 153zM445 1021q0 37 26 63q25 25 63 25q37 0 63 -25q27 -26 27 -63q0 -36 -26 -62t-64 -26q-37 0 -63 26t-26 62z" />
<glyph unicode="&#xc0;" horiz-adv-x="1377" d="M19 23q0 8 8 27l622 1377q7 17 15 21q8 5 25 5h6q17 0 25 -5q8 -4 15 -21l612 -1382q7 -14 7 -24q0 -21 -37 -21h-51q-32 0 -44 8q-13 9 -25 37l-170 396h-717l-167 -390q-14 -33 -28 -41q-17 -10 -49 -10h-6q-41 0 -41 23zM347 1815q0 11 28 11h96q30 0 46 -7 q14 -6 35 -32l147 -175q14 -17 14 -26q0 -15 -33 -15h-6q-36 0 -51 6q-19 8 -43 29l-217 187q-16 13 -16 22zM348 525h643l-312 744z" />
<glyph unicode="&#xc1;" horiz-adv-x="1375" d="M18 23q0 8 8 27l622 1377q8 17 15 21q8 5 25 5h6q17 0 25 -5q6 -4 14 -21l613 -1382q6 -12 6 -24q0 -21 -36 -21h-50q-32 0 -44 8q-14 10 -26 37l-170 396h-717l-168 -391q-13 -31 -28 -40q-17 -10 -48 -10h-6q-41 0 -41 23zM347 525h642l-311 744zM671 1582q0 9 14 26 l146 175q21 25 36 32q13 6 46 6h95q29 0 29 -11q0 -8 -16 -21l-217 -187q-25 -22 -42 -29q-15 -6 -52 -6h-6q-33 0 -33 15z" />
<glyph unicode="&#xc2;" horiz-adv-x="1377" d="M19 23q0 9 8 28l622 1376q7 17 15 21q8 5 25 5h7q17 0 25 -5q7 -4 15 -21l612 -1382q6 -12 6 -24q0 -21 -36 -21h-51q-32 0 -44 8q-13 9 -25 37l-170 396h-718l-166 -389q-13 -33 -29 -42q-17 -10 -49 -10h-6q-41 0 -41 23zM347 525h643l-312 744zM439 1585q0 9 16 30 l129 156q27 33 45 42q16 8 60 8h6q44 0 60 -8q19 -10 45 -41l132 -157q16 -19 16 -31q0 -17 -39 -17h-6q-42 0 -58 8q-18 9 -44 41l-107 133l-108 -134q-24 -30 -44 -40q-16 -8 -58 -8h-6q-39 0 -39 18z" />
<glyph unicode="&#xc3;" horiz-adv-x="1376" d="M19 23q0 8 8 27l622 1377q8 17 14 21q8 5 26 5h6q17 0 25 -5q6 -4 14 -21l612 -1382q7 -14 7 -24q0 -21 -36 -21h-51q-32 0 -44 8q-13 9 -25 37l-170 396h-717l-167 -390q-14 -33 -28 -41q-17 -10 -49 -10h-6q-41 0 -41 23zM347 525h643l-312 744zM450 1623q14 73 52 111 q39 39 85 39q35 0 61 -10q27 -11 43 -25q21 -20 30 -29q11 -12 28 -24q16 -11 33 -11q39 0 56 53q7 24 18 33q10 8 34 8h6q23 0 33 -10q9 -9 4 -33q-14 -69 -54 -109q-39 -39 -85 -39q-34 0 -60 10q-27 11 -43 25q-17 15 -30 30t-28 25q-14 10 -33 10q-40 0 -56 -54 q-8 -25 -17 -33t-35 -8h-6q-25 0 -33 9q-7 9 -3 32z" />
<glyph unicode="&#xc4;" horiz-adv-x="1378" d="M20 23q0 8 8 27l623 1377q8 17 14 21q8 5 26 5h6q16 0 24 -5q7 -4 15 -21l612 -1382q7 -14 7 -24q0 -21 -36 -21h-52q-31 0 -44 9t-25 37l-169 395h-718l-168 -390q-13 -31 -28 -41t-49 -10h-6q-40 0 -40 23zM348 525h643l-311 744zM415 1664q0 39 28 64q29 26 66 26 q38 0 62 -26t24 -64q0 -40 -24 -65q-24 -26 -62 -26q-39 0 -66 26q-28 27 -28 65zM793 1664q0 38 26 64t66 26q37 0 63 -26q25 -25 25 -64q0 -40 -25 -65q-26 -26 -63 -26q-40 0 -66 26t-26 65z" />
<glyph unicode="&#xc5;" horiz-adv-x="1375" d="M18 23q0 8 8 27l622 1377q8 17 15 21q8 5 25 5h6q17 0 25 -5q6 -4 14 -21l613 -1382q6 -12 6 -24q0 -21 -36 -21h-50q-32 0 -44 8q-14 10 -26 37l-170 396h-717l-167 -390q-14 -33 -28 -41q-17 -10 -49 -10h-6q-41 0 -41 23zM347 525h642l-311 744zM482 1757q0 85 61 146 t147 61t147 -61t61 -146q0 -86 -61 -147q-62 -62 -147 -62t-147 62q-61 61 -61 147zM563 1757q0 -54 37 -91q38 -38 90 -38q53 0 91 38q37 37 37 91q0 53 -37 90q-38 38 -91 38q-52 0 -90 -38q-37 -37 -37 -90z" />
<glyph unicode="&#xc6;" horiz-adv-x="1961" d="M-10 18q0 11 12 29l923 1364q18 27 31 34q14 8 46 8h782q24 0 32 -8t8 -32v-6q0 -22 -8 -32q-7 -8 -32 -8h-754l72 -569h625q21 0 29 -8t8 -29v-6q0 -23 -8 -31t-29 -8h-615l80 -632h625q23 0 31 -8t8 -31v-6q0 -21 -8 -31q-7 -8 -31 -8h-696q-29 0 -40 10q-13 11 -16 39 l-50 392h-628l-266 -394q-21 -30 -36 -39q-13 -8 -51 -8h-6q-38 0 -38 18zM444 525h561l-81 710z" />
<glyph unicode="&#xc7;" horiz-adv-x="1455" d="M116 723q0 121 31 239q30 114 91 208q62 95 146 163q86 69 199 108q111 38 246 38q176 0 303 -74q128 -75 193 -207q7 -14 7 -23q0 -18 -25 -28l-6 -2q-15 -7 -24 -7q-14 0 -30 22q-72 104 -181 165q-110 62 -236 62q-113 0 -206 -36q-96 -37 -160 -97q-66 -62 -113 -146 q-44 -80 -68 -181q-22 -94 -22 -201q0 -100 23 -200q23 -98 70 -181q47 -82 114 -146q64 -61 160 -98q90 -35 202 -35q141 0 253 65q115 67 191 178q14 22 28 22q9 0 23 -8l5 -3q24 -12 24 -26q0 -8 -8 -22q-69 -134 -191 -212q-119 -76 -290 -87l-50 -79q63 3 117 -37 q52 -39 52 -106q0 -45 -18 -79q-18 -35 -49 -54q-32 -20 -70 -29q-42 -10 -83 -10q-63 0 -113 20q-27 11 -27 29q0 10 6 24l2 6q9 26 27 26q5 0 22 -5q39 -11 82 -11t75 17q31 16 31 54q0 40 -37 64q-35 23 -90 32q-32 6 -32 22q0 9 9 25l55 93q-126 8 -227 48 q-107 43 -184 111q-82 72 -135 160q-56 92 -84 200t-28 229z" />
<glyph unicode="&#xc8;" horiz-adv-x="1198" d="M210 50v1353q0 29 10 39q11 11 39 11h775q21 0 31 -8q8 -7 8 -32v-6q0 -22 -8 -32q-7 -8 -31 -8h-692v-569h625q21 0 29 -8t8 -29v-6q0 -23 -8 -31t-29 -8h-625v-632h704q23 0 31 -8t8 -31v-6q0 -21 -8 -31q-7 -8 -31 -8h-787q-29 0 -39 10t-10 40zM359 1815q0 11 29 11 h96q30 0 46 -7q14 -6 35 -32l147 -175q14 -16 14 -26q0 -15 -33 -15h-6q-36 0 -51 6q-19 8 -43 29l-218 187q-16 13 -16 22z" />
<glyph unicode="&#xc9;" horiz-adv-x="1198" d="M210 50v1353q0 29 10 39q11 11 39 11h775q21 0 31 -8q8 -7 8 -32v-6q0 -22 -8 -32q-7 -8 -31 -8h-692v-569h623q22 0 30 -8t8 -29v-6q0 -23 -8 -31t-30 -8h-623v-632h704q23 0 31 -8t8 -31v-6q0 -21 -8 -31q-7 -8 -31 -8h-787q-29 0 -39 10t-10 40zM559 1582q0 9 14 26 l147 175q21 26 35 32t47 6h96q28 0 28 -11q0 -8 -16 -21l-218 -187q-25 -22 -42 -29q-15 -6 -52 -6h-6q-33 0 -33 15z" />
<glyph unicode="&#xca;" horiz-adv-x="1198" d="M210 50v1353q0 29 10 39q11 11 39 11h774q21 0 31 -8q8 -7 8 -32v-6q0 -24 -8 -31q-10 -8 -31 -8h-693v-570h625q22 0 30 -8t8 -29v-6q0 -23 -8 -31t-30 -8h-625v-632h706q23 0 31 -8t8 -31v-6q0 -21 -8 -31q-7 -8 -31 -8h-787q-29 0 -39 10t-10 40zM391 1585q0 9 16 30 l129 157q26 31 45 41q16 8 60 8h6q44 0 60 -8q19 -9 45 -40l133 -158q16 -19 16 -30q0 -18 -38 -18h-6q-44 0 -60 8t-44 42l-106 132l-110 -134q-25 -31 -43 -40q-16 -8 -58 -8h-6q-39 0 -39 18z" />
<glyph unicode="&#xcb;" horiz-adv-x="1199" d="M210 50v1353q0 29 10 39q11 11 39 11h775q21 0 31 -8q8 -7 8 -32v-6q0 -24 -8 -31q-10 -8 -31 -8h-692v-570h625q21 0 29 -8t8 -29v-6q0 -23 -8 -31t-29 -8h-625v-632h704q23 0 31 -8t8 -31v-6q0 -21 -8 -31q-7 -8 -31 -8h-787q-29 0 -39 10t-10 40zM369 1666q0 38 27 63 q29 27 67 27q37 0 61 -26t24 -64q0 -40 -24 -65q-24 -26 -61 -26q-41 0 -67 26q-27 27 -27 65zM747 1666q0 39 26 64q28 26 66 26q37 0 63 -26q25 -25 25 -64q0 -40 -25 -65q-26 -26 -63 -26q-38 0 -66 26q-26 25 -26 65z" />
<glyph unicode="&#xcc;" horiz-adv-x="552" d="M-34 1816q0 11 28 11h99q33 0 46 -7q16 -9 35 -32l145 -176q13 -16 13 -25q0 -16 -32 -16h-6q-36 0 -51 6q-19 8 -43 29l-218 188q-16 13 -16 22zM210 64v1325q0 37 13 50q14 14 50 14h7q36 0 50 -14q13 -13 13 -50v-1325q0 -38 -13 -51t-50 -13h-7q-37 0 -50 13t-13 51z " />
<glyph unicode="&#xcd;" horiz-adv-x="551" d="M210 63v1327q0 36 13 49q14 14 50 14h6q35 0 49 -14t14 -49v-1327q0 -36 -14 -50q-13 -13 -49 -13h-6q-37 0 -50 13t-13 50zM229 1582q0 9 14 26l147 175q21 25 36 32q13 6 46 6h95q28 0 28 -11q0 -8 -16 -21l-215 -186q-25 -23 -44 -30q-15 -6 -51 -6h-7q-33 0 -33 15z " />
<glyph unicode="&#xce;" horiz-adv-x="550" d="M20 1585q0 11 16 30l129 157q26 31 45 41q16 8 60 8h6q44 0 60 -8q19 -10 45 -41l132 -157q17 -20 17 -30q0 -18 -40 -18h-6q-43 0 -59 8q-17 9 -43 42l-105 132l-110 -134q-27 -31 -44 -40q-16 -8 -58 -8h-7q-38 0 -38 18zM210 63v1327q0 36 13 49q14 14 49 14h6 q36 0 50 -14q13 -13 13 -49v-1327q0 -37 -13 -50t-50 -13h-6q-36 0 -49 13t-13 50z" />
<glyph unicode="&#xcf;" horiz-adv-x="550" d="M-4 1666q0 38 28 63q30 27 66 27q38 0 62 -26t24 -64q0 -40 -24 -65q-24 -26 -62 -26q-39 0 -66 26q-28 27 -28 65zM210 63v1327q0 36 13 49q14 14 49 14h6q36 0 50 -14q13 -13 13 -49v-1327q0 -37 -13 -50t-50 -13h-6q-36 0 -49 13t-13 50zM375 1666q0 38 26 64t64 26 t64 -26q25 -25 25 -64q0 -40 -25 -65q-26 -26 -64 -26t-64 26t-26 65z" />
<glyph unicode="&#xd1;" horiz-adv-x="1612" d="M210 49v1354q0 29 10 39q11 11 39 11h54q33 0 46 -7q15 -8 34 -33l905 -1184v1174q0 29 10 39q11 11 40 11h6q28 0 39 -11q10 -10 10 -39v-1361q0 -24 -9 -33t-33 -9h-6q-27 0 -39 6q-13 6 -29 27l-973 1262v-1246q0 -29 -10 -39t-39 -10h-6q-29 0 -39 10t-10 39z M578 1623q15 73 53 111q39 39 85 39q35 0 61 -10q27 -11 43 -25q16 -15 29 -29q9 -10 29 -24q16 -11 32 -11q40 0 57 53q7 25 17 33t34 8h6q23 0 33 -10q9 -9 4 -33q-15 -71 -53 -109q-39 -39 -86 -39q-34 0 -60 10q-27 11 -43 25q-17 15 -30 30q-10 11 -30 25 q-14 10 -32 10q-39 0 -55 -54q-7 -25 -17 -33t-34 -8h-7q-23 0 -32 9q-8 8 -4 32z" />
<glyph unicode="&#xd2;" d="M115 724q0 168 52 306q52 139 146 239t228 155t293 55q155 0 290 -56q132 -55 226 -155q92 -98 145 -238q53 -141 53 -301q0 -134 -32 -246q-34 -118 -94 -209q-60 -90 -148 -160q-86 -68 -199 -104t-241 -36q-159 0 -295 56q-134 55 -228 155q-93 99 -144 238 q-52 142 -52 301zM259 728q0 -88 17 -176q16 -83 50 -160q33 -75 82 -136q52 -65 112 -106q66 -46 143 -69q79 -24 171 -24q113 0 203 35q95 37 160 99q68 65 113 148q48 89 70 184q23 101 23 207q0 108 -24 207q-24 97 -72 182q-47 82 -116 145q-65 59 -160 95 q-93 35 -198 35q-131 0 -239 -52q-111 -53 -182 -142t-112 -212t-41 -260zM549 1822q0 12 28 12h96q31 0 47 -7q14 -6 35 -32l146 -175q13 -14 13 -26q0 -15 -32 -15h-6q-37 0 -52 6q-17 7 -42 29l-217 187q-16 13 -16 21z" />
<glyph unicode="&#xd3;" d="M115 724q0 222 90 393q91 174 253 267q164 95 376 95q154 0 289 -56q132 -55 226 -155t146 -238t52 -301q0 -129 -32 -246q-32 -116 -93 -209q-60 -90 -148 -160q-86 -68 -199 -104t-241 -36q-159 0 -295 56q-134 55 -228 155q-93 99 -144 238q-52 142 -52 301zM260 728 q0 -110 24 -210t72 -184t116 -146q70 -63 160 -97q92 -34 201 -34q113 0 203 35q95 37 160 99q70 67 114 148q47 86 69 184q23 101 23 207q0 108 -24 207t-72 183q-47 82 -116 145q-68 61 -159 96q-90 34 -199 34q-131 0 -238 -52q-110 -54 -181 -142q-73 -92 -113 -212 q-40 -121 -40 -261zM763 1590q0 10 14 27l147 175q20 24 35 31q16 7 46 7h95q29 0 29 -11q0 -9 -16 -22l-216 -186q-26 -23 -43 -30q-15 -6 -52 -6h-6q-33 0 -33 15z" />
<glyph unicode="&#xd4;" d="M115 724q0 167 52 307q52 138 146 239q92 98 228 154q134 55 293 55q155 0 290 -56q132 -55 226 -155q92 -98 145 -238q53 -141 53 -301q0 -134 -32 -246q-34 -118 -94 -209q-60 -90 -148 -160q-86 -68 -199 -104t-241 -36q-159 0 -295 56q-134 55 -228 155 q-93 99 -144 238q-52 142 -52 301zM259 728q0 -88 17 -176q16 -83 50 -160q33 -75 82 -136q52 -65 112 -106q66 -46 143 -69q79 -24 171 -24q113 0 203 35q95 37 160 99q68 65 113 148q48 89 70 184q23 101 23 207q0 108 -24 207q-23 96 -73 183q-48 84 -115 145t-160 96 q-90 34 -198 34q-107 0 -195 -33q-93 -35 -160 -95q-70 -62 -119 -144t-75 -184q-25 -99 -25 -211zM576 1593q0 12 16 31l129 156q26 31 45 41q18 9 60 9h7q44 0 60 -8q19 -10 45 -41l131 -157q17 -20 17 -31q0 -18 -39 -18h-6q-42 0 -60 9t-43 41l-105 132l-110 -133 q-27 -32 -44 -40q-18 -9 -58 -9h-7q-38 0 -38 18z" />
<glyph unicode="&#xd5;" d="M115 724q0 167 52 307q52 138 146 239q92 98 228 154q134 55 293 55q155 0 290 -56q132 -55 226 -155q92 -98 145 -238q53 -141 53 -301q0 -134 -32 -246q-34 -118 -94 -209q-60 -90 -148 -160q-86 -68 -199 -104t-241 -36q-159 0 -295 56q-134 55 -228 155 q-93 99 -144 238q-52 142 -52 301zM259 728q0 -88 17 -176q16 -83 50 -160q33 -75 82 -136q52 -65 112 -106q66 -46 143 -69q79 -24 171 -24q113 0 203 35q95 37 160 99q68 65 113 148q48 89 70 184q23 101 23 207q0 108 -24 207q-23 96 -73 183q-48 84 -115 145t-160 96 q-90 34 -198 34q-103 0 -195 -33q-90 -32 -160 -95q-68 -61 -118 -144t-75 -183q-26 -102 -26 -212zM590 1630q15 73 53 111t86 38q34 0 60 -10q27 -11 43 -25q16 -15 29 -29q11 -13 29 -25q16 -11 33 -11q38 0 56 54q8 24 18 33q10 8 34 8h6q23 0 32 -9t4 -33 q-13 -70 -53 -110q-39 -39 -85 -39q-33 0 -61 11q-27 11 -42 24q-21 20 -30 29q-11 13 -29 25q-14 10 -32 10q-40 0 -56 -52q-7 -25 -18 -34q-10 -8 -34 -8h-6q-23 0 -33 10q-8 8 -4 32z" />
<glyph unicode="&#xd6;" horiz-adv-x="1661" d="M115 724q0 167 52 307q52 138 146 239q93 99 227 154t294 55q154 0 289 -56q132 -55 226 -155q92 -98 145 -238q53 -141 53 -301q0 -163 -51 -303q-51 -139 -142 -239t-225 -157q-131 -56 -295 -56q-160 0 -296 56q-133 55 -227 155q-93 99 -144 238q-52 142 -52 301z M259 728q0 -88 17 -176q16 -83 50 -160q33 -75 82 -136q52 -65 112 -106q66 -46 143 -69q79 -24 171 -24q113 0 203 35q95 37 160 99q68 65 113 148q48 89 70 184q23 101 23 207q0 108 -24 207q-23 96 -73 183q-48 84 -115 145t-160 96q-90 34 -198 34q-131 0 -239 -52 q-111 -53 -182 -142t-112 -212t-41 -261zM551 1672q0 39 28 64q29 26 67 26t62 -26q24 -25 24 -64q0 -38 -24 -64t-62 -26q-40 0 -67 26q-28 27 -28 64zM930 1672q0 38 27 64q28 26 65 26t63 -26q25 -25 25 -64t-25 -64q-26 -26 -63 -26q-39 0 -65 26q-27 27 -27 64z" />
<glyph unicode="&#xd7;" horiz-adv-x="1169" d="M131 246q0 10 14 24l340 340l-340 342q-14 14 -14 23t14 23l54 54q14 13 23 13q10 0 24 -13l341 -340l340 339q13 13 24 13q9 0 23 -13l50 -51q14 -16 14 -23q0 -9 -14 -23l-339 -341l342 -341q14 -14 14 -24q0 -7 -14 -23l-54 -55q-15 -15 -23 -15q-9 0 -23 14l-342 342 l-342 -342q-14 -14 -23 -14q-8 0 -23 15l-52 52q-14 14 -14 24z" />
<glyph unicode="&#xd8;" d="M115 724q0 133 33 250q33 115 97 209q65 95 150 159q87 66 200 102q109 35 239 35q254 0 441 -139l117 141q16 21 30 21q11 0 29 -16l5 -4q19 -16 19 -31q0 -10 -14 -29l-120 -146q99 -102 153 -241q54 -140 54 -306q0 -134 -32 -246q-34 -118 -94 -209 q-60 -90 -148 -160q-86 -68 -199 -104t-241 -36q-261 0 -447 138l-116 -141q-17 -21 -31 -21q-12 0 -28 16l-4 4q-19 16 -19 31q0 13 14 30l118 144q-100 103 -153 242q-53 138 -53 307zM259 728q0 -134 36 -254q37 -124 102 -213l807 996q-154 137 -371 137q-88 0 -166 -24 t-140 -67t-113 -103q-48 -57 -85 -135q-34 -72 -52 -159q-18 -86 -18 -178zM461 195q153 -138 373 -138q112 0 202 35q95 37 160 99q70 67 114 148q47 86 69 184q23 101 23 207q0 131 -35 251q-35 119 -102 209z" />
<glyph unicode="&#xd9;" horiz-adv-x="1502" d="M193 485v905q0 36 13 49q14 14 50 14h6q35 0 49 -14q13 -13 13 -49v-855q0 -111 26 -198t76 -149q51 -62 136 -96q84 -33 196 -33q218 0 330 123q112 122 112 345v874q0 30 11 41t41 11h6q30 0 41 -11q10 -10 10 -41v-905q0 -132 -38 -230q-39 -100 -112 -164 q-72 -63 -174 -96q-99 -32 -231 -32q-131 0 -231 32q-102 32 -177 97q-72 61 -113 161q-40 96 -40 221zM479 1815q0 11 29 11h97q30 0 46 -7q14 -6 35 -32l147 -175q14 -17 14 -26q0 -15 -33 -15h-7q-36 0 -51 6q-19 8 -43 29l-218 187q-16 13 -16 22z" />
<glyph unicode="&#xda;" horiz-adv-x="1502" d="M192 485v905q0 35 14 49t49 14h6q36 0 50 -14q13 -13 13 -49v-855q0 -114 25 -198q25 -85 77 -149q51 -63 135 -96t197 -33q219 0 330 123t111 345v873q0 31 11 42t42 11h6q30 0 41 -11t11 -42v-904q0 -130 -39 -231q-39 -100 -112 -163q-74 -64 -174 -96 q-99 -32 -230 -32q-171 0 -297 57q-125 56 -196 173q-70 115 -70 281zM669 1582q0 9 13 25l147 176q21 26 35 32t47 6h95q28 0 28 -11q0 -8 -16 -21l-217 -188q-25 -22 -42 -29q-13 -5 -51 -5h-6q-33 0 -33 15z" />
<glyph unicode="&#xdb;" horiz-adv-x="1502" d="M192 485v904q0 36 14 50t50 14h6q36 0 50 -14q13 -13 13 -50v-854q0 -114 25 -198q26 -87 76 -149q51 -62 136 -96q84 -33 196 -33q219 0 330 123t111 345v873q0 31 11 42t42 11h6q30 0 41 -11t11 -42v-904q0 -130 -39 -231q-39 -100 -112 -163q-74 -64 -174 -96 q-99 -32 -230 -32q-171 0 -297 57q-125 56 -196 173q-70 115 -70 281zM507 1585q0 12 16 31l130 157q26 32 44 41q16 8 61 8h6q44 0 60 -8q19 -10 45 -41l132 -157q17 -20 17 -31q0 -18 -40 -18h-6q-41 0 -59 9q-20 10 -44 41l-105 132l-110 -133q-27 -31 -44 -40 q-18 -9 -58 -9h-6q-39 0 -39 18z" />
<glyph unicode="&#xdc;" horiz-adv-x="1503" d="M193 485v905q0 36 13 49q14 14 50 14h6q35 0 49 -14q13 -13 13 -49v-855q0 -111 26 -198t76 -149q51 -62 136 -96q84 -33 197 -33q219 0 330 123t111 345v873q0 31 11 42t41 11h6q31 0 42 -11t11 -42v-904q0 -130 -39 -231q-39 -100 -112 -163q-74 -63 -175 -96 q-99 -32 -230 -32q-171 0 -297 57q-124 56 -195 173q-70 115 -70 281zM471 1666q0 37 29 64q27 26 66 26t63 -26t24 -64t-24 -64q-25 -27 -63 -27t-66 27q-29 27 -29 64zM850 1666q0 38 27 64q28 26 66 26q37 0 63 -26t26 -64t-26 -64q-27 -27 -63 -27q-39 0 -66 27t-27 64z " />
<glyph unicode="&#xdd;" horiz-adv-x="1213" d="M17 1435q0 18 33 18h56q31 0 45 -8q15 -8 31 -35l438 -700l458 696q17 27 36 38q15 9 51 9h6q36 0 36 -19q0 -11 -11 -28l-524 -814v-528q0 -37 -14 -51q-13 -13 -50 -13h-6q-38 0 -51 13t-13 51v527l-512 819q-9 13 -9 25zM539 1575q0 9 15 27l146 175q21 26 35 32 q13 6 47 6h96q28 0 28 -11q0 -8 -16 -21l-217 -187q-24 -21 -43 -29q-15 -6 -51 -6h-6q-34 0 -34 14z" />
<glyph unicode="&#xdf;" horiz-adv-x="1181" d="M173 58v1010q0 211 113 332q112 120 316 120q58 0 105 -10q58 -12 94 -31q48 -25 76 -54q32 -34 50 -81q18 -48 18 -106q0 -50 -17 -93q-18 -45 -43 -73q-26 -29 -59 -56q-22 -18 -64 -50q-43 -33 -59 -47q-27 -24 -43 -53q-17 -31 -17 -62q0 -40 13 -70q14 -32 35 -52 q26 -25 52 -40q27 -16 63 -31q51 -21 68 -29q27 -13 69 -32q33 -15 63 -39q25 -20 51 -53q23 -29 36 -70q12 -37 12 -94q0 -80 -26 -144q-26 -63 -70 -100q-45 -37 -97 -55t-111 -18q-193 0 -294 173q-7 13 -7 21q0 12 22 25l5 3q14 7 23 7q15 0 29 -20q87 -113 236 -113 q33 0 64 11t56 33q26 23 41 62t15 91q0 42 -16 74q-17 34 -43 54q-29 23 -61 38q-38 18 -74 32q-15 6 -77 32q-42 18 -74 40q-34 24 -61 55q-26 30 -43 80q-16 47 -16 110q0 44 16 80t43 65q24 26 58 53q21 17 63 49q34 26 58 50q26 26 42 59q17 36 17 72q0 106 -68 160 q-67 54 -177 54q-64 0 -111 -20q-53 -23 -82 -54q-33 -36 -53 -82q-20 -45 -29 -98q-9 -51 -9 -109v-1006q0 -34 -12 -46t-45 -12h-7q-33 0 -45 12t-12 46z" />
<glyph unicode="&#xe0;" horiz-adv-x="1077" d="M95 275q0 74 29 134q28 59 75 96q45 37 111 61q64 24 131 33q73 10 142 10q100 0 210 -17v51q0 60 -17 111q-17 52 -48 88q-33 40 -86 60q-54 21 -123 21q-79 0 -157 -39q-80 -40 -132 -102q-16 -19 -27 -19q-9 0 -22 9l-5 3q-21 12 -21 25q0 9 7 20q51 96 152 153 q99 56 221 56q106 0 181 -27q73 -26 118 -84q44 -56 63 -130q20 -77 20 -177v-552q0 -34 -13 -47q-12 -12 -46 -12h-6q-35 0 -47 12t-12 47v120h-2q-135 -202 -341 -202q-103 0 -181 34q-77 34 -126 102q-48 67 -48 162zM230 289q0 -70 35 -120t92 -74t128 -24q37 0 79 12 q39 11 83 39q38 24 73 62t53 86q20 52 20 108v126q-114 18 -222 18q-50 0 -95 -6q-44 -6 -92 -23q-46 -16 -79 -42t-54 -67q-21 -42 -21 -95zM261 1439q0 12 27 12h94q30 0 40 -6q11 -7 28 -32l148 -233q11 -17 11 -25q0 -17 -33 -17h-6q-33 0 -48 6q-14 5 -36 31l-213 243 q-12 14 -12 21z" />
<glyph unicode="&#xe1;" horiz-adv-x="1076" d="M94 275q0 74 29 134q29 59 75 96q45 37 111 61q65 24 132 33q75 10 141 10q98 0 211 -17v51q0 61 -16 110q-17 53 -49 89q-34 38 -87 59q-57 22 -123 22q-80 0 -158 -39q-77 -38 -131 -103q-15 -17 -27 -17q-8 0 -21 8l-5 3q-22 13 -22 24q0 10 7 21q50 95 151 152 t221 57q87 0 152 -18q64 -18 108 -53q47 -37 72 -86q27 -52 39 -116q12 -63 12 -145v-552q0 -35 -12 -47t-47 -12h-6q-35 0 -47 12t-12 47v120h-1q-135 -202 -342 -202q-98 0 -180 34q-79 33 -127 102t-48 162zM229 289q0 -69 36 -120q35 -50 92 -74t127 -24q37 0 79 12 q39 11 83 39q38 24 73 62q32 35 53 86q20 49 20 108v126q-114 18 -222 18q-49 0 -94 -6q-44 -6 -92 -23q-47 -17 -80 -42q-33 -26 -54 -67q-21 -42 -21 -95zM465 1155q0 8 11 25l148 233q17 25 28 32q10 6 40 6h93q27 0 27 -12q0 -9 -11 -21l-213 -243q-21 -25 -36 -31 q-14 -6 -47 -6h-6q-34 0 -34 17z" />
<glyph unicode="&#xe2;" horiz-adv-x="1076" d="M95 275q0 74 29 134q28 59 75 96q45 37 111 61q64 24 131 33q73 10 142 10q100 0 210 -17v51q0 60 -17 111q-17 52 -48 88q-33 40 -86 60q-54 21 -123 21q-81 0 -157 -39q-79 -40 -132 -102q-15 -18 -27 -18q-9 0 -22 8l-5 3q-21 12 -21 25q0 9 7 20q53 96 151 153 q97 56 220 56q107 0 182 -27q73 -26 118 -84q44 -56 63 -130q20 -77 20 -177v-553q0 -33 -13 -46q-12 -12 -46 -12h-6q-34 0 -46 12t-12 46v121h-2q-136 -202 -342 -202q-73 0 -139 20t-112 56q-48 38 -75 94q-28 59 -28 128zM230 289q0 -104 72 -161t183 -57q37 0 79 12 q37 10 82 39q41 26 74 62q30 33 52 86q21 51 21 108v126q-114 18 -222 18q-50 0 -95 -6q-44 -6 -92 -23q-46 -16 -79 -42t-54 -67q-21 -42 -21 -95zM302 1158q0 10 12 29l141 226q14 23 27 31q11 7 42 7h36q30 0 41 -7q12 -7 28 -31l144 -226q12 -18 12 -30q0 -20 -39 -20 h-6q-38 0 -54 9q-15 8 -35 41l-105 176l-109 -176q-20 -32 -36 -41t-53 -9h-6q-40 0 -40 21z" />
<glyph unicode="&#xe3;" horiz-adv-x="1077" d="M95 275q0 74 29 134q28 59 75 96q45 37 111 61q64 24 132 33q75 10 141 10q99 0 210 -17v51q0 63 -16 111q-17 50 -49 88q-33 39 -86 60q-55 22 -123 22q-79 0 -157 -39q-76 -38 -132 -103q-15 -18 -27 -18q-10 0 -22 8l-5 3q-21 12 -21 25q0 8 7 21q53 98 152 152 q101 56 221 56q106 0 181 -27t119 -83q43 -55 63 -131q19 -73 19 -177v-552q0 -35 -12 -47t-47 -12h-6q-34 0 -46 12q-13 13 -13 47v120h-1q-136 -202 -342 -202q-98 0 -180 34q-79 33 -127 102t-48 162zM230 289q0 -69 36 -120q35 -50 92 -74t127 -24q37 0 79 12 q39 11 83 39q38 24 73 62q32 35 53 86q20 49 20 108v126q-114 18 -222 18q-50 0 -95 -6q-42 -6 -91 -23q-46 -16 -79 -42q-35 -27 -55 -67q-21 -42 -21 -95zM292 1210q13 74 54 116q39 40 86 40q26 0 52 -8q23 -7 38 -19q25 -20 29 -24q17 -17 24 -25q11 -12 23 -19 q14 -8 28 -8q40 0 57 57q7 23 17 33q8 8 34 8h6q23 0 32 -9t4 -33q-14 -76 -52 -116q-39 -40 -86 -40q-31 0 -53 7q-23 7 -38 19q-20 16 -29 25q-16 16 -23 24q-11 12 -23 19q-14 8 -28 8q-40 0 -57 -56q-7 -23 -17 -33q-9 -9 -34 -9h-6q-24 0 -34 10q-9 9 -4 33z" />
<glyph unicode="&#xe4;" horiz-adv-x="1075" d="M94 275q0 74 29 134q29 59 75 96q45 37 111 61q64 24 132 33q73 10 142 10q97 0 210 -17v51q0 59 -17 110q-18 53 -48 89q-33 39 -87 60t-123 21q-79 0 -157 -39q-76 -38 -131 -102q-15 -18 -27 -18q-9 0 -22 8l-5 3q-21 13 -21 26q0 8 7 19q53 96 151 153q97 56 220 56 q107 0 182 -27q73 -26 118 -84q44 -56 63 -130q20 -77 20 -177v-552q0 -34 -13 -47q-12 -12 -46 -12h-7q-34 0 -46 12q-13 13 -13 47v120h-1q-133 -202 -341 -202q-73 0 -139 20q-67 20 -113 56q-50 39 -76 94q-27 57 -27 128zM230 289q0 -104 72 -161t183 -57q37 0 79 12 q37 10 82 39q38 24 73 62q33 36 52 86q20 52 20 108v126q-114 18 -221 18q-49 0 -94 -6q-44 -6 -92 -23q-46 -16 -79 -42t-54 -67q-21 -42 -21 -95zM264 1247q0 38 28 63q29 26 66 26q39 0 63 -25q23 -24 23 -64q0 -41 -23 -65q-24 -26 -63 -26q-36 0 -66 27q-28 25 -28 64z M643 1247q0 39 26 64t66 25q38 0 63 -25t25 -64q0 -40 -25 -65q-26 -26 -63 -26q-38 0 -66 26q-26 25 -26 65z" />
<glyph unicode="&#xe5;" horiz-adv-x="1076" d="M94 275q0 74 29 134q29 59 75 96q45 37 111 61q64 24 131 33q73 10 142 10q99 0 210 -17v51q0 61 -16 110q-17 53 -49 89q-33 38 -86 59q-55 22 -123 22q-79 0 -157 -39t-132 -102q-16 -19 -27 -19q-8 0 -22 9l-5 3q-21 13 -21 26q0 9 6 19q53 97 152 153t221 56 q107 0 182 -27q74 -27 119 -84q44 -56 63 -130q19 -73 19 -177v-552q0 -35 -12 -47t-47 -12h-6q-34 0 -46 12q-13 13 -13 47v120h-1q-136 -202 -342 -202q-98 0 -180 34q-79 33 -127 102t-48 162zM229 289q0 -103 73 -161q72 -57 182 -57q37 0 79 12q37 10 82 39 q41 26 74 62q32 35 53 86q20 49 20 108v126q-114 18 -222 18q-50 0 -95 -6q-42 -6 -91 -23q-47 -17 -80 -42q-33 -26 -54 -67q-21 -42 -21 -95zM334 1335q0 85 61 146t146 61q87 0 148 -60t61 -147q0 -86 -61 -147q-60 -60 -148 -60q-86 0 -146 60q-61 61 -61 147zM414 1335 q0 -53 37 -90q38 -38 90 -38q53 0 91 38t38 90t-38 90q-37 37 -91 37q-53 0 -90 -37t-37 -90z" />
<glyph unicode="&#xe6;" horiz-adv-x="1823" d="M95 275q0 74 29 134q28 59 75 96q45 37 111 61q64 24 131 33q73 10 142 10q101 0 210 -16v50q0 63 -16 111q-17 50 -49 88q-33 39 -86 60q-55 22 -123 22q-79 0 -157 -39q-76 -38 -132 -103q-15 -18 -27 -18q-10 0 -22 8l-5 3q-21 12 -21 26q0 9 7 20q52 96 151 152 t220 56q139 0 225 -44q85 -43 126 -132q67 83 167 130q98 46 222 46q31 0 63 -3q26 -3 77 -16q43 -11 84 -32q40 -20 80 -57q43 -40 71 -86q31 -51 51 -123q20 -73 25 -166q1 -27 -8 -36t-35 -9h-764q0 -45 8 -84q9 -46 25 -91q17 -49 47 -91q29 -41 70 -77q38 -34 97 -55 q56 -20 126 -20q199 0 324 174q15 21 28 21q11 0 23 -8l4 -3q24 -13 24 -27q0 -8 -8 -22q-128 -241 -412 -241q-135 0 -241 56q-105 55 -169 154q-38 -57 -90 -100q-48 -39 -107 -65q-54 -23 -109 -34q-57 -11 -108 -11q-98 0 -180 34q-77 32 -126 102q-48 69 -48 162z M230 289q0 -103 73 -161q72 -57 182 -57q37 0 79 12q39 11 83 39q38 24 73 62q32 35 53 86q20 49 20 108v126q-114 18 -223 18q-49 0 -94 -6q-44 -6 -92 -23q-46 -16 -79 -42t-54 -67q-21 -42 -21 -95zM916 586h682q0 42 -9 85t-33 91q-25 49 -59 85q-35 37 -96 61 q-60 24 -133 24q-64 0 -113 -16t-86 -43q-35 -26 -64 -61q-27 -33 -44 -68t-27 -67q-13 -41 -15 -55q-3 -22 -3 -36z" />
<glyph unicode="&#xe7;" horiz-adv-x="1077" d="M109 495q0 154 58 273q59 122 170 191q112 70 262 70q131 0 223 -58q95 -60 145 -165q7 -14 7 -23q0 -16 -25 -29l-6 -3q-14 -8 -22 -8q-15 0 -28 24q-43 76 -116 120t-170 44q-160 0 -261 -115t-101 -310q0 -89 23 -162q23 -74 68 -134q44 -60 113 -94q70 -35 156 -35 q96 0 173 44q76 43 125 121q12 19 23 19q6 0 20 -8l5 -3q21 -14 21 -25t-5 -21q-42 -95 -121 -153q-80 -59 -189 -74l-55 -87q40 1 80 -14q37 -14 65 -50q26 -33 26 -79q0 -45 -18 -79t-50 -54q-33 -20 -69 -29q-42 -10 -83 -10q-63 0 -114 20q-27 11 -27 29q0 13 5 24l3 6 q9 26 27 26q4 0 21 -5q39 -11 83 -11q43 0 75 17q31 16 31 54q0 23 -12 39q-12 17 -32 29q-14 9 -42 18q-25 8 -46 11q-30 4 -30 20q0 10 8 22l60 100q-104 4 -190 45q-85 41 -144 108q-57 65 -89 161q-31 92 -31 203z" />
<glyph unicode="&#xe8;" horiz-adv-x="1149" d="M107 501q0 155 61 274q62 120 173 187q112 67 257 67q32 0 64 -3q26 -3 77 -16q39 -10 84 -33q42 -21 81 -57q41 -38 70 -86q30 -50 51 -123q20 -71 25 -165q1 -27 -8 -36t-36 -9h-765q0 -41 9 -84q9 -46 25 -91q16 -46 48 -91q32 -44 70 -77q41 -35 97 -55t126 -20 q200 0 324 174q15 21 28 21q11 0 23 -8l4 -3q24 -13 24 -27q0 -8 -8 -22q-128 -241 -412 -241q-149 0 -262 68q-112 67 -171 187t-59 269zM241 586h683q0 42 -9 85t-33 91q-22 45 -60 84q-36 37 -95 61q-63 25 -133 25q-59 0 -113 -17q-50 -16 -87 -43q-34 -26 -63 -60 q-25 -31 -44 -68q-16 -31 -27 -67q-13 -41 -15 -55q-4 -30 -4 -36zM350 1439q0 12 27 12h94q31 0 41 -6q11 -7 27 -32l149 -233q9 -13 9 -25q0 -17 -33 -17h-6q-34 0 -47 6q-12 5 -36 31l-214 243q-11 12 -11 21z" />
<glyph unicode="&#xe9;" horiz-adv-x="1149" d="M106 501q0 155 61 274q62 120 173 187q112 67 257 67q31 0 64 -3q27 -2 78 -16q36 -10 83 -33q40 -20 80 -57q43 -40 71 -86q30 -50 51 -123t24 -165q1 -27 -8 -36t-35 -9h-764q0 -45 8 -84q9 -46 25 -91q17 -49 47 -91q29 -41 70 -77q38 -34 97 -55q56 -20 126 -20 q198 0 324 174q16 21 29 21q11 0 23 -8l5 -3q23 -14 23 -27q0 -8 -8 -22q-130 -241 -412 -241q-149 0 -262 68q-112 67 -171 187t-59 269zM240 586h682q0 42 -9 85q-10 46 -32 91t-60 84q-36 37 -95 61q-62 25 -134 25q-58 0 -112 -17q-50 -16 -87 -43t-64 -60 q-25 -31 -44 -68q-16 -31 -27 -67q-13 -41 -15 -55q-3 -22 -3 -36zM528 1155q0 11 10 25l147 233q15 24 28 32q10 6 41 6h94q27 0 27 -12q0 -7 -12 -21l-215 -243q-22 -25 -35 -31t-46 -6h-7q-32 0 -32 17z" />
<glyph unicode="&#xea;" horiz-adv-x="1148" d="M106 501q0 155 61 274q62 120 173 187q112 67 257 67q31 0 64 -3q27 -2 78 -16q36 -10 83 -33q40 -20 80 -57q43 -40 71 -86q30 -50 51 -123t24 -165q1 -27 -8 -36t-35 -9h-764q0 -45 8 -84q9 -46 25 -91q17 -49 47 -91q29 -41 70 -77q38 -34 97 -55q56 -20 126 -20 q198 0 324 174q16 21 29 21q11 0 23 -8l5 -3q23 -14 23 -27q0 -8 -8 -22q-130 -241 -412 -241q-149 0 -262 68q-112 67 -171 187t-59 269zM240 586h682q0 42 -9 85q-10 46 -32 91t-60 84q-36 37 -95 61q-62 25 -134 25q-58 0 -112 -17q-50 -16 -87 -43t-64 -60 q-25 -31 -44 -68q-16 -31 -27 -67q-13 -41 -15 -55q-3 -22 -3 -36zM355 1157q0 11 12 30l134 213q22 34 36 42q17 9 55 9h6q38 0 54 -9t37 -42l137 -213q12 -18 12 -29q0 -21 -39 -21h-6q-36 0 -54 10q-17 9 -36 41l-104 175l-111 -176q-20 -33 -35 -41q-17 -9 -53 -9h-6 q-39 0 -39 20z" />
<glyph unicode="&#xeb;" horiz-adv-x="1150" d="M107 501q0 155 61 274q62 120 173 187q112 67 257 67q31 0 64 -3q27 -2 78 -16q39 -10 84 -33q40 -20 80 -57q43 -40 71 -86q30 -50 51 -124q20 -73 25 -164q2 -26 -8 -36q-9 -9 -36 -9h-766q0 -41 9 -84q9 -46 25 -91q16 -46 48 -91q31 -43 69 -77q38 -33 98 -55 q56 -20 126 -20q198 0 324 174q16 21 28 21q11 0 23 -8l5 -3q23 -14 23 -27q0 -8 -8 -22q-130 -241 -413 -241q-148 0 -261 68q-112 67 -171 187t-59 269zM241 586h683q0 40 -9 84q-9 43 -33 91q-23 47 -60 85q-34 36 -95 60q-60 24 -134 24q-61 0 -112 -16q-50 -16 -87 -43 q-34 -25 -63 -60q-25 -31 -44 -68q-19 -39 -28 -66q-11 -36 -14 -55q-4 -30 -4 -36zM328 1247q0 39 28 64t67 25q38 0 62 -25t24 -64t-24 -65t-62 -26q-37 0 -67 27q-28 25 -28 64zM707 1247q0 38 26 64q25 25 66 25q38 0 63 -25t25 -64q0 -40 -25 -65q-26 -26 -63 -26 q-40 0 -66 26t-26 65z" />
<glyph unicode="&#xec;" horiz-adv-x="473" d="M-53 1440q0 13 27 13h96q30 0 41 -7t27 -32l146 -235q10 -16 10 -24q0 -18 -33 -18h-6q-31 0 -47 7q-13 6 -35 31l-214 244q-12 13 -12 21zM173 60v887q0 35 12 47t48 12h8q35 0 47 -12t12 -47v-887q0 -35 -12 -47q-13 -13 -47 -13h-8q-35 0 -48 13q-12 12 -12 47z" />
<glyph unicode="&#xed;" horiz-adv-x="471" d="M173 60v887q0 35 12 47t48 12h6q35 0 47 -12q13 -13 13 -47v-887q0 -34 -13 -47t-47 -13h-6q-35 0 -48 13q-12 12 -12 47zM179 1154q0 11 10 25l148 234q15 24 28 32q10 6 41 6h94q27 0 27 -12q0 -7 -12 -21l-215 -244q-21 -24 -35 -30q-16 -7 -47 -7h-6q-33 0 -33 17z " />
<glyph unicode="&#xee;" horiz-adv-x="470" d="M-7 1158q0 10 12 29l134 215q21 33 36 41q17 9 55 9h6q38 0 54 -9q18 -10 38 -41l136 -214q12 -20 12 -30q0 -20 -39 -20h-6q-39 0 -55 9t-36 42l-105 175l-108 -176q-19 -31 -36 -41q-15 -9 -52 -9h-7q-39 0 -39 20zM173 60v887q0 35 12 47t47 12h6q35 0 47 -12 q13 -13 13 -47v-887q0 -34 -13 -47t-47 -13h-6q-34 0 -47 13q-12 12 -12 47z" />
<glyph unicode="&#xef;" horiz-adv-x="470" d="M-44 1245q0 37 28 63q29 27 66 27q38 0 62 -26q25 -27 25 -64q0 -38 -25 -65q-24 -26 -62 -26q-40 0 -66 26q-28 28 -28 65zM173 60v887q0 35 12 47t47 12h6q35 0 47 -12q13 -13 13 -47v-887q0 -34 -13 -47t-47 -13h-6q-34 0 -47 13q-12 12 -12 47zM334 1245q0 37 27 63 q29 27 65 27q37 0 63 -26t26 -64q0 -39 -26 -65t-63 -26t-65 26q-27 26 -27 65z" />
<glyph unicode="&#xf1;" horiz-adv-x="1158" d="M173 59v888q0 35 12 47t47 12h6q34 0 46 -12q13 -13 13 -47v-127h1q64 99 160 154q95 55 211 55q61 0 107 -13q53 -15 82 -34q34 -22 59 -56q27 -37 41 -71q17 -43 25 -85q9 -48 12 -94t3 -102v-514q0 -35 -12 -47q-13 -13 -46 -13h-7q-34 0 -47 13q-12 12 -12 47v567 q0 73 -12 124t-39 90t-77 57q-52 19 -120 19q-80 0 -157 -42t-124 -113q-48 -72 -48 -152v-551q0 -34 -13 -47q-12 -12 -46 -12h-6q-35 0 -47 12t-12 47zM352 1211q14 76 52 116q39 41 86 41q33 0 61 -11q23 -9 42 -26q17 -15 30 -30q14 -15 29 -26q14 -10 32 -10 q40 0 56 55q7 25 18 34q9 8 34 8h6q24 0 33 -9t4 -33q-13 -74 -53 -115q-39 -41 -86 -41q-26 0 -52 8q-23 7 -38 19q-20 16 -29 25q-16 16 -23 24q-10 11 -24 19t-28 8q-40 0 -56 -57q-7 -22 -17 -32q-9 -9 -33 -9h-6q-25 0 -34 9t-4 33z" />
<glyph unicode="&#xf2;" horiz-adv-x="1200" d="M108 495q0 115 33 213q33 97 95 170q59 69 157 111q93 40 213 40q111 0 204 -39q91 -38 154 -109q61 -69 95 -165q34 -97 34 -204q0 -116 -34 -216q-33 -97 -95 -168q-63 -72 -157 -111q-97 -40 -212 -40q-112 0 -206 38q-92 37 -154 107q-60 68 -94 164q-33 94 -33 209z M245 506q0 -71 12 -134q11 -59 40 -120q26 -55 68 -97q41 -41 101 -65t134 -24q76 0 141 27q63 26 112 80q48 52 75 137q27 84 27 194q0 71 -13 132q-14 67 -41 119q-29 55 -69 96q-40 40 -100 64t-132 24q-73 0 -133 -24t-100 -64q-41 -41 -69 -96q-30 -58 -41 -117 q-12 -63 -12 -132zM348 1439q0 12 27 12h94q31 0 41 -6q13 -8 28 -32l147 -233q10 -14 10 -25q0 -17 -33 -17h-6q-32 0 -46 6q-15 6 -36 31l-215 243q-11 12 -11 21z" />
<glyph unicode="&#xf3;" horiz-adv-x="1200" d="M108 495q0 115 33 213t96 170q61 70 157 111q93 40 213 40q151 0 260 -68q112 -70 169 -186q57 -117 57 -263q0 -119 -33 -216t-95 -168q-63 -72 -157 -111q-97 -40 -211 -40q-152 0 -263 66q-112 67 -169 183q-57 117 -57 269zM246 506q0 -71 12 -134q11 -59 40 -120 q26 -55 68 -97t100 -65q60 -24 135 -24q77 0 141 27q63 26 112 80q48 52 75 137q27 84 27 194q0 71 -13 132q-14 67 -41 119q-30 58 -68 96q-39 39 -101 64q-60 24 -131 24q-73 0 -133 -24q-62 -25 -101 -64q-40 -41 -69 -96q-30 -58 -41 -117q-12 -63 -12 -132zM516 1155 q0 9 10 25l148 233q17 25 28 32q10 6 41 6h93q27 0 27 -12q0 -7 -12 -21l-213 -243q-22 -25 -35 -31t-48 -6h-6q-33 0 -33 17z" />
<glyph unicode="&#xf4;" horiz-adv-x="1200" d="M108 495q0 115 33 213t96 170q61 70 157 111q93 40 214 40q111 0 203 -39t154 -109q61 -69 95 -165q33 -94 33 -204q0 -119 -33 -216t-95 -168q-63 -72 -157 -111q-97 -40 -212 -40q-112 0 -206 38q-92 37 -154 107t-95 164t-33 209zM245 506q0 -71 12 -134 q11 -59 40 -120q25 -53 69 -97q42 -42 100 -65q60 -24 134 -24q78 0 142 27q63 26 112 80q48 52 75 137q26 81 26 194q0 76 -12 132q-14 65 -41 118q-28 56 -69 96q-41 41 -101 65q-58 23 -131 23q-75 0 -133 -23q-62 -25 -101 -64q-41 -41 -69 -96q-27 -53 -40 -118 q-13 -67 -13 -131zM359 1157q0 11 12 30l133 213q21 33 37 42q17 9 54 9h7q38 0 54 -9t37 -42l137 -213q11 -17 11 -29q0 -21 -39 -21h-6q-36 0 -54 10q-16 9 -35 41l-104 175l-110 -176q-20 -33 -35 -41q-17 -9 -53 -9h-6q-40 0 -40 20z" />
<glyph unicode="&#xf5;" horiz-adv-x="1198" d="M108 495q0 117 33 214q32 96 95 169q59 69 157 111q93 40 213 40q112 0 204 -39q90 -38 153 -109q61 -69 95 -165q33 -94 33 -204q0 -119 -33 -216t-95 -168q-64 -73 -156 -111q-97 -40 -212 -40q-152 0 -263 66t-168 183q-56 115 -56 269zM245 506q0 -71 12 -134 q11 -59 40 -120q26 -55 68 -97q41 -41 101 -65t134 -24q76 0 141 27q63 26 112 80q48 52 75 137q27 84 27 194q0 71 -13 132q-14 67 -41 119q-29 55 -69 96q-40 40 -100 64t-132 24q-73 0 -133 -24t-100 -64q-41 -41 -69 -96q-30 -58 -41 -117q-12 -63 -12 -132zM358 1210 q13 75 53 116q39 40 86 40q34 0 60 -10q25 -10 43 -26q16 -15 30 -30q16 -17 28 -26q16 -11 33 -11q39 0 56 56q8 26 17 34t35 8h6q24 0 33 -9t4 -33q-15 -76 -54 -116t-86 -40q-30 0 -52 7q-23 7 -38 19t-28 25l-24 24q-11 12 -23 19q-14 8 -28 8q-40 0 -57 -56 q-7 -23 -17 -33q-9 -9 -34 -9h-6q-23 0 -33 10q-9 9 -4 33z" />
<glyph unicode="&#xf6;" horiz-adv-x="1200" d="M108 495q0 115 33 213q34 100 95 170q61 69 158 111q93 40 213 40q111 0 203 -39t154 -109q61 -69 95 -165q34 -97 34 -204q0 -116 -34 -216q-33 -97 -95 -168q-63 -72 -157 -111q-97 -40 -212 -40q-112 0 -206 38q-92 37 -154 107q-60 68 -94 164q-33 94 -33 209z M246 506q0 -71 12 -134q11 -59 40 -120q26 -55 68 -97t100 -65q60 -24 135 -24q77 0 141 27q63 26 112 80q48 52 75 137q27 84 27 194q0 71 -13 132q-14 67 -41 119q-28 55 -69 96q-40 40 -100 64t-131 24q-74 0 -134 -24q-62 -25 -101 -64q-41 -41 -68 -96 q-30 -62 -41 -118q-12 -61 -12 -131zM321 1247q0 38 28 63q29 26 66 26q39 0 63 -25t24 -64t-24 -65t-63 -26q-36 0 -66 27q-28 25 -28 64zM699 1247q0 39 27 64q26 25 65 25t64 -25q26 -26 26 -64q0 -39 -26 -65t-64 -26q-36 0 -65 27q-27 25 -27 64z" />
<glyph unicode="&#xf7;" horiz-adv-x="1336" d="M153 579v61q0 19 7 26t26 7h965q19 0 26 -7t7 -26v-61q0 -19 -7 -26t-26 -7h-965q-19 0 -26 7t-7 26zM560 169q0 47 31 78q32 32 78 32q43 0 77 -32q33 -31 33 -78q0 -46 -33 -77q-32 -31 -77 -31q-47 0 -78 31t-31 77zM560 1051q0 45 31 76t78 31q45 0 77 -31 q33 -31 33 -76q0 -48 -33 -79q-32 -31 -77 -31q-47 0 -78 31t-31 79z" />
<glyph unicode="&#xf8;" horiz-adv-x="1199" d="M108 495q0 115 33 213t96 170q61 70 157 111q93 40 214 40q165 0 282 -80l69 89q16 19 26 19q11 0 26 -12l5 -3q19 -15 19 -27q0 -10 -12 -25l-72 -95q68 -71 105 -169t37 -214q0 -119 -33 -216t-95 -168q-63 -72 -157 -111q-97 -40 -212 -40q-166 0 -287 78l-66 -87 q-13 -18 -27 -18q-12 0 -26 11l-4 4q-19 15 -19 27q0 13 11 25l71 91q-69 69 -105 168t-36 219zM245 506q0 -181 76 -307l499 662q-89 77 -219 77q-75 0 -133 -23q-60 -24 -101 -65q-42 -42 -69 -95q-28 -54 -40 -118q-13 -68 -13 -131zM379 143q89 -77 221 -77q76 0 141 27 t113 80q48 52 75 137q26 81 26 194q0 183 -76 302z" />
<glyph unicode="&#xf9;" horiz-adv-x="1157" d="M160 433v515q0 33 13 46q12 12 47 12h6q35 0 47 -12t12 -47v-568q0 -77 11 -124q12 -49 39 -89q27 -38 76 -57q51 -19 120 -19q81 0 158 42q75 41 123 113t48 152v550q0 35 12 47t47 12h6q35 0 47 -12q13 -13 13 -47v-887q0 -34 -13 -47t-47 -13h-6q-34 0 -47 13 q-12 12 -12 47v127h-2q-63 -99 -158 -154q-97 -56 -210 -56q-56 0 -108 13q-44 11 -82 34q-33 20 -59 54q-25 32 -40 70q-17 43 -25 85q-9 48 -12 95q-4 62 -4 105zM318 1439q0 12 27 12h92q32 0 42 -6q11 -7 27 -32l148 -233q10 -14 10 -25q0 -17 -33 -17h-6q-33 0 -47 6 q-13 6 -35 31l-214 243q-11 12 -11 21z" />
<glyph unicode="&#xfa;" horiz-adv-x="1158" d="M160 433v515q0 33 13 46q12 12 47 12h6q35 0 47 -12t12 -47v-568q0 -77 11 -124q12 -49 39 -89q27 -38 76 -57q51 -19 120 -19q81 0 158 42t124 113q47 70 47 152v550q0 34 13 47q12 12 47 12h6q35 0 47 -12q13 -13 13 -47v-887q0 -34 -13 -47t-47 -13h-6q-34 0 -47 13 t-13 47v127h-1q-63 -100 -159 -154q-98 -56 -210 -56q-55 0 -107 13q-44 11 -82 34q-35 21 -60 54q-25 32 -40 70q-17 43 -25 85q-9 47 -12 96q-4 62 -4 104zM490 1155q0 11 10 25l147 233q15 24 28 32q10 6 41 6h94q27 0 27 -12q0 -7 -12 -21l-214 -243q-21 -25 -36 -31 q-13 -6 -46 -6h-6q-33 0 -33 17z" />
<glyph unicode="&#xfb;" horiz-adv-x="1157" d="M160 433v514q0 34 13 47q12 12 47 12h6q35 0 47 -12t12 -47v-568q0 -77 11 -124q12 -49 39 -89q27 -38 76 -57q51 -19 120 -19q81 0 158 42q75 41 123 113t48 152v550q0 35 12 47t47 12h6q35 0 47 -12q13 -13 13 -47v-887q0 -34 -13 -47t-47 -13h-6q-34 0 -47 13 q-12 12 -12 47v127h-2q-63 -99 -158 -154q-97 -56 -210 -56q-56 0 -108 13q-44 11 -82 34q-33 20 -59 54q-25 32 -40 70q-17 43 -25 85q-9 48 -12 95q-4 62 -4 105zM345 1157q0 11 12 30l133 213q21 33 38 42q16 9 55 9h6q37 0 54 -9q16 -9 37 -42l136 -213q12 -19 12 -29 q0 -21 -40 -21h-6q-36 0 -53 9t-36 42l-105 175l-109 -176q-20 -32 -36 -41q-17 -9 -53 -9h-6q-39 0 -39 20z" />
<glyph unicode="&#xfc;" horiz-adv-x="1157" d="M160 433v515q0 33 13 46q12 12 46 12h7q34 0 46 -12t12 -46v-569q0 -73 12 -124q12 -49 39 -89q27 -38 76 -57q51 -19 119 -19q82 0 159 42q75 41 123 113t48 152v550q0 35 12 47t47 12h6q35 0 47 -12q13 -13 13 -47v-887q0 -34 -13 -47t-47 -13h-6q-34 0 -47 13 q-12 12 -12 47v127h-2q-63 -100 -159 -154q-98 -56 -209 -56q-56 0 -108 13q-44 11 -82 34q-33 20 -59 54q-25 32 -40 70q-17 43 -25 85q-9 48 -12 95q-4 62 -4 105zM293 1245q0 38 28 63q30 27 66 27q38 0 62 -26q25 -27 25 -64q0 -38 -25 -65q-24 -25 -62 -25 q-37 0 -66 26q-28 25 -28 64zM672 1245q0 39 26 64q28 26 65 26t63 -26t26 -64q0 -39 -26 -65q-25 -25 -63 -25q-39 0 -65 25t-26 65z" />
<glyph unicode="&#xfd;" horiz-adv-x="970" d="M45 987q0 19 33 19h54q29 0 40 -7q12 -7 22 -34l301 -745l307 736q14 33 28 41q15 9 48 9h6q41 0 41 -23q0 -12 -7 -27l-418 -1004q-68 -163 -104 -228q-61 -111 -141 -158q-67 -39 -157 -45q-21 -1 -29 7t-8 29v6q0 21 8 29t29 11q37 4 71 22q36 19 72 55t74 103 q40 71 73 159l40 106l-378 917q-5 11 -5 22zM421 1154q0 11 10 25l148 234q17 25 28 32q10 6 41 6h93q27 0 27 -12q0 -7 -12 -21l-213 -243q-23 -25 -37 -31q-16 -7 -46 -7h-7q-32 0 -32 17z" />
<glyph unicode="&#xff;" horiz-adv-x="970" d="M44 987q0 19 33 19h54q29 0 40 -7q10 -6 21 -34l302 -745l307 736q14 33 28 41q15 9 48 9h6q41 0 41 -23q0 -12 -7 -27l-419 -1004q-70 -170 -103 -228q-61 -111 -141 -158q-67 -39 -158 -45q-20 -1 -28 7t-8 29v6q0 22 7 29q8 8 29 11q39 5 72 22t71 55t75 103 q38 66 72 159l40 106l-377 917q-5 11 -5 22zM223 1245q0 38 28 63q30 27 67 27t61 -26q25 -27 25 -64q0 -39 -24 -65t-62 -26q-40 0 -67 26q-28 27 -28 65zM602 1245q0 37 27 63q29 27 64 27q37 0 63 -26t26 -64q0 -40 -25 -65q-26 -26 -64 -26q-36 0 -64 26q-27 26 -27 65z " />
<glyph unicode="&#x152;" horiz-adv-x="2027" d="M115 724q0 168 52 306q53 141 145 239q94 100 228 155t293 55q107 0 204 -27h825q23 0 31 -8q9 -9 9 -31v-6q0 -23 -9 -32q-8 -8 -31 -8h-693v-568h623q22 0 30 -8t8 -30v-6q0 -23 -8 -31t-30 -8h-623v-632h705q23 0 31 -8t8 -31v-6q0 -21 -8 -31q-7 -8 -31 -8h-833 q-36 0 -102 -13t-106 -13q-159 0 -295 56q-134 55 -228 155q-93 99 -144 238t-51 301zM259 728q0 -88 17 -176q17 -87 49 -160q33 -75 82 -136q52 -65 112 -106q66 -46 143 -69q80 -24 171 -24q108 0 204 30v1277q-99 31 -205 31q-131 0 -239 -52t-181 -143t-113 -212 q-40 -120 -40 -260z" />
<glyph unicode="&#x153;" horiz-adv-x="1997" d="M108 495q0 117 33 214q33 99 95 169q61 69 158 111q93 40 213 40q140 0 249 -59q106 -57 170 -164q68 108 175 165q109 58 245 58q32 0 64 -3q26 -3 77 -16q43 -11 84 -32q40 -20 80 -57q43 -40 71 -86q31 -51 51 -123q20 -73 25 -166q1 -27 -8 -36t-36 -9h-763 q0 -47 11 -102q11 -53 39 -110q30 -59 69 -103q41 -45 107 -74q67 -29 147 -29q198 0 323 174q15 21 29 21q10 0 22 -8l5 -3q24 -13 24 -27q0 -8 -8 -22q-128 -241 -412 -241q-140 0 -249 59q-110 59 -174 164q-64 -106 -172 -164q-110 -59 -255 -59q-153 0 -264 66 t-168 183t-57 269zM246 506q0 -71 12 -134q11 -59 40 -120q26 -55 68 -97t100 -65q60 -24 135 -24q77 0 141 27q63 26 112 80q48 52 75 137q27 84 27 194q0 71 -13 132q-14 67 -41 119q-30 58 -68 96q-39 39 -101 64q-60 24 -131 24q-74 0 -134 -24q-62 -25 -101 -64 q-38 -38 -68 -96t-41 -117q-12 -63 -12 -132zM1089 586h683q0 42 -9 85t-33 91q-23 47 -60 85q-36 37 -95 61q-60 24 -133 24q-64 0 -113 -16q-51 -17 -87 -43q-32 -24 -63 -61q-27 -33 -44 -68t-27 -67q-13 -41 -15 -55q-4 -30 -4 -36z" />
<glyph unicode="&#x178;" horiz-adv-x="1214" d="M17 1435q0 18 33 18h56q31 0 45 -8q15 -8 31 -35l438 -700l458 696q17 27 36 38q15 9 51 9h6q36 0 36 -19q0 -11 -11 -28l-524 -814v-528q0 -37 -14 -51q-13 -13 -50 -13h-6q-38 0 -51 13t-13 51v527l-512 819q-9 13 -9 25zM347 1660q0 37 28 63t66 26t62 -25 q24 -26 24 -64q0 -40 -24 -65q-24 -26 -62 -26q-40 0 -66 26q-28 28 -28 65zM725 1660q0 38 27 64q26 25 66 25q38 0 63 -25t25 -64q0 -40 -25 -65q-26 -26 -63 -26q-38 0 -66 26q-27 26 -27 65z" />
<glyph unicode="&#x2c6;" horiz-adv-x="672" d="M88 1190q0 6 7 17l161 258q12 20 20 24q10 5 30 5h59q20 0 30 -5q9 -4 21 -23l165 -259q7 -10 7 -17q0 -11 -22 -11h-58q-20 0 -30 5q-9 5 -20 23l-119 198l-123 -198q-11 -18 -20 -23q-10 -5 -30 -5h-56q-22 0 -22 11z" />
<glyph unicode="&#x2dc;" horiz-adv-x="752" d="M134 1256q10 84 51 129t90 45q32 0 60 -11q25 -10 43 -26q11 -10 29 -30q14 -15 29 -26q14 -10 32 -10q46 0 62 75q3 14 8 18t19 4h45q13 0 18 -5q4 -4 2 -18q-10 -84 -51 -129q-41 -46 -91 -46q-32 0 -60 11q-25 10 -43 26q-11 10 -29 30q-14 15 -29 26q-14 10 -33 10 q-45 0 -60 -74q-3 -16 -8 -19q-7 -5 -20 -5h-43q-12 0 -18 6q-5 5 -3 19z" />
<glyph unicode="&#x2000;" horiz-adv-x="982" />
<glyph unicode="&#x2001;" horiz-adv-x="1964" />
<glyph unicode="&#x2002;" horiz-adv-x="982" />
<glyph unicode="&#x2003;" horiz-adv-x="1964" />
<glyph unicode="&#x2004;" horiz-adv-x="654" />
<glyph unicode="&#x2005;" horiz-adv-x="491" />
<glyph unicode="&#x2006;" horiz-adv-x="327" />
<glyph unicode="&#x2007;" horiz-adv-x="327" />
<glyph unicode="&#x2008;" horiz-adv-x="245" />
<glyph unicode="&#x2009;" horiz-adv-x="392" />
<glyph unicode="&#x200a;" horiz-adv-x="109" />
<glyph unicode="&#x2010;" horiz-adv-x="798" d="M148 519v67q0 16 6 22t22 6h446q16 0 22 -6t6 -22v-67q0 -17 -6 -23t-22 -6h-446q-16 0 -22 6t-6 23z" />
<glyph unicode="&#x2011;" horiz-adv-x="798" d="M148 519v67q0 16 6 22t22 6h446q16 0 22 -6t6 -22v-67q0 -17 -6 -23t-22 -6h-446q-16 0 -22 6t-6 23z" />
<glyph unicode="&#x2012;" horiz-adv-x="798" d="M148 519v67q0 16 6 22t22 6h446q16 0 22 -6t6 -22v-67q0 -17 -6 -23t-22 -6h-446q-16 0 -22 6t-6 23z" />
<glyph unicode="&#x2013;" horiz-adv-x="1313" d="M163 525v54q0 17 6 23t22 6h931q16 0 22 -6t6 -23v-54q0 -17 -6 -23t-22 -6h-931q-16 0 -22 6t-6 23z" />
<glyph unicode="&#x2014;" horiz-adv-x="2267" d="M163 525v54q0 17 6 23t22 6h1885q17 0 23 -6t6 -23v-54q0 -17 -6 -23t-23 -6h-1885q-16 0 -22 6t-6 23z" />
<glyph unicode="&#x2018;" horiz-adv-x="382" d="M101 1199q0 37 26 100q28 69 100 196q9 15 17 19q7 4 27 2h6q16 -1 19 -9t-3 -21q-59 -125 -76 -223q24 -9 39 -31t15 -49q0 -34 -26 -60q-25 -25 -60 -25q-36 0 -60 27t-24 74z" />
<glyph unicode="&#x2019;" horiz-adv-x="384" d="M114 1112q-4 9 3 21q56 112 78 224q-24 9 -39 30t-15 49q0 36 25 60q26 24 60 24q36 0 60 -27t24 -73q0 -39 -26 -103q-27 -68 -100 -194q-10 -16 -17 -19q-9 -3 -28 -2l-6 1q-17 3 -19 9z" />
<glyph unicode="&#x201a;" horiz-adv-x="439" d="M112 -252q-3 8 4 22q59 123 76 223q-25 11 -39 31q-15 21 -15 49q0 36 25 60t61 24t60 -27t24 -73q0 -38 -26 -102q-24 -60 -101 -195q-9 -15 -17 -19q-7 -4 -26 -2h-7q-16 1 -19 9z" />
<glyph unicode="&#x201c;" horiz-adv-x="670" d="M101 1199q0 41 25 101q28 67 98 193q11 18 18 21q7 4 27 2h6q18 -2 21 -9q3 -8 -4 -22q-61 -128 -77 -222q26 -10 40 -31q15 -22 15 -49q0 -36 -25 -60q-27 -25 -61 -25q-36 0 -60 27q-23 26 -23 74zM390 1199q0 38 26 101q24 58 101 195q10 16 17 20t26 2l7 -1 q16 -1 19 -8q4 -10 -3 -22q-62 -128 -78 -223q26 -10 40 -31q15 -22 15 -49q0 -35 -25 -60t-61 -25t-60 27t-24 74z" />
<glyph unicode="&#x201d;" horiz-adv-x="676" d="M115 1112q-3 8 4 21q59 120 76 224q-24 9 -39 31t-15 48q0 36 25 60q26 24 61 24q36 0 60 -27t24 -73q0 -37 -26 -101q-28 -70 -100 -196q-10 -16 -17 -19q-9 -3 -27 -2l-6 1q-18 3 -20 9zM409 1133q59 120 76 224q-24 9 -39 31t-15 48q0 36 25 60q26 24 61 24 q36 0 60 -27t24 -73q0 -38 -26 -102q-27 -66 -100 -195q-9 -15 -17 -19q-7 -4 -27 -2h-6q-30 3 -16 31z" />
<glyph unicode="&#x201e;" horiz-adv-x="728" d="M112 -252q-4 9 3 22q61 126 77 223q-26 11 -40 31q-15 21 -15 49q0 33 26 59q25 25 60 25q36 0 60 -27t24 -73q0 -38 -26 -101q-28 -69 -100 -196q-9 -15 -17 -19q-7 -4 -27 -2h-6q-16 1 -19 9zM401 -252q-4 9 3 21q61 125 77 224q-26 11 -39 31q-16 24 -16 49 q0 33 26 59q25 25 61 25t60 -27t24 -73q0 -38 -26 -102q-27 -66 -100 -195q-9 -15 -17 -19q-9 -4 -28 -3l-6 1q-16 1 -19 9z" />
<glyph unicode="&#x2022;" horiz-adv-x="803" d="M111 697q0 79 38 145q39 67 106 106t146 39q77 0 145 -39q67 -39 106 -106q39 -68 39 -145q0 -79 -39 -146t-106 -106q-66 -38 -145 -38q-80 0 -146 38q-67 39 -106 106q-38 66 -38 146z" />
<glyph unicode="&#x2026;" horiz-adv-x="1759" d="M135 78q0 37 26 62t65 25q37 0 62 -25q26 -26 26 -62q0 -37 -26 -63t-62 -26q-37 0 -65 26q-26 25 -26 63zM790 78q0 37 27 62q26 25 64 25t63 -25q26 -26 26 -62q0 -37 -26 -63t-63 -26q-36 0 -64 26q-27 25 -27 63zM1445 78q0 37 27 62q26 25 64 25t63 -25 q26 -26 26 -62q0 -37 -26 -63t-63 -26q-36 0 -64 26q-27 25 -27 63z" />
<glyph unicode="&#x202f;" horiz-adv-x="392" />
<glyph unicode="&#x2039;" horiz-adv-x="600" d="M69 524q0 11 13 30l252 354q12 18 25 25q10 6 35 6h56q25 0 25 -13q0 -8 -7 -19l-248 -383l248 -385q7 -11 7 -19q0 -12 -25 -12h-56q-26 0 -35 5q-13 7 -25 25l-252 355q-13 17 -13 31z" />
<glyph unicode="&#x203a;" horiz-adv-x="599" d="M125 120q0 8 7 19l248 385l-248 383q-7 11 -7 19q0 13 25 13h55q25 0 35 -6q13 -7 25 -25l251 -354q14 -22 14 -30q0 -11 -14 -31l-251 -355q-12 -18 -25 -25q-9 -5 -35 -5h-55q-25 0 -25 12z" />
<glyph unicode="&#x205f;" horiz-adv-x="491" />
<glyph unicode="&#x20ac;" horiz-adv-x="1341" d="M86 550q0 6 5 23l2 5q9 28 22 38q12 9 42 9h91q0 4 -0.5 20t-0.5 28q0 80 7 137h-129q-38 0 -38 24q0 6 5 23l1 6q8 27 22 37q12 9 43 9h113q26 116 76 209q53 98 122 164q72 69 167 108q92 38 205 38q126 0 224 -52t160 -147q9 -13 9 -24q0 -12 -19 -27l-5 -4 q-13 -10 -22 -10q-10 0 -24 18q-55 76 -139 115q-82 38 -187 38q-94 0 -168 -31q-75 -32 -126 -90q-54 -62 -85 -134q-34 -78 -50 -171h596q39 0 39 -24q0 -5 -5 -22l-2 -6q-9 -28 -22 -38q-12 -9 -42 -9h-576q-4 -43 -4 -103q0 -54 1 -82h520q39 0 39 -24q0 -6 -5 -23 l-2 -5q-9 -28 -22 -38q-12 -9 -42 -9h-479q14 -96 49 -183q32 -80 86 -145t128 -98q75 -34 172 -34q177 0 301 140q15 18 28 18q9 0 24 -9l5 -3q19 -12 19 -25q0 -9 -9 -22q-131 -191 -372 -191q-237 0 -389 148q-153 149 -188 404h-132q-39 0 -39 24z" />
<glyph unicode="&#x2122;" horiz-adv-x="2037" d="M100 1389v35q0 17 5 22q6 6 23 6h622q17 0 23 -6t6 -22v-35q0 -16 -6 -22t-23 -6h-252v-752q0 -16 -6 -22t-22 -6h-61q-16 0 -22 6t-6 22v752h-253q-17 0 -23 6q-5 5 -5 22zM914 609v815q0 16 6 22t22 6h147q17 0 25 -5q6 -4 14 -21l264 -641l258 641q6 16 14 21t25 5 h145q17 0 23 -6q5 -5 5 -22v-815q0 -17 -5 -22q-6 -6 -23 -6h-61q-16 0 -22 6t-6 22v745h-1l-306 -741q-9 -21 -17 -26q-9 -6 -30 -6h-6q-21 0 -30 6q-8 5 -17 26l-305 741h-1v-745q0 -16 -6 -22t-23 -6h-61q-16 0 -22 6t-6 22z" />
<glyph unicode="&#x25fc;" horiz-adv-x="1007" d="M0 0v1008h1008v-1008h-1008z" />
</font>
</defs>
</svg>
