<?xml version="1.0" standalone="no"?>
<!DOCTYPE svg PUBLIC "-//W3C//DTD SVG 1.1//EN" "http://www.w3.org/Graphics/SVG/1.1/DTD/svg11.dtd" >
<svg xmlns="http://www.w3.org/2000/svg" xmlns:xlink="http://www.w3.org/1999/xlink" version="1.1">
<metadata></metadata>
<defs>
<font id="secondasoft-reguluploadedfile" horiz-adv-x="1159" >
<font-face units-per-em="2048" ascent="1556" descent="-492" />
<missing-glyph horiz-adv-x="513" />
<glyph unicode="&#xfb01;" horiz-adv-x="1162" d="M48 943v6q0 34 12 46q11 11 45 11h117v164q0 166 82 259q81 91 238 91q64 0 119 -27q17 -8 26 -19q8 -10 8 -23q0 -7 -5 -27l-2 -6q-5 -20 -12 -27t-19 -7q-7 0 -25 5q-34 11 -73 11q-44 0 -77 -14t-50 -40q-18 -26 -25 -59q-7 -31 -7 -73v-208h540q38 0 51 -13 q14 -14 14 -51v-877q0 -37 -14 -51t-51 -14h-49q-37 0 -51 14t-14 51v821h-426v-821q0 -37 -14 -51t-51 -14h-49q-37 0 -51 14q-13 13 -13 51v821h-117q-33 0 -45 12t-12 45zM798 1292q0 48 35 81q36 34 83 34q48 0 81 -33t33 -82t-33 -82t-81 -33q-50 0 -83 33 q-35 35 -35 82z" />
<glyph unicode="&#xfb02;" horiz-adv-x="1219" d="M48 943v6q0 34 12 46q11 11 45 11h117v165q0 165 82 258q81 91 238 91q65 0 147 -17q77 -16 138 -41q0 22 7 29t29 7h78q38 0 51 -13t13 -51v-1088q0 -12 0.5 -30t0.5 -24q0 -21 3 -48q3 -23 8 -45q4 -15 14 -37q10 -21 22 -32q16 -15 32 -23q14 -7 44 -15q31 -8 41 -18 t10 -39v-6q0 -30 -11 -41t-40 -10q-164 10 -233 98q-69 87 -69 283v991q-141 50 -243 50q-53 0 -92 -14q-37 -13 -57 -41q-20 -27 -27 -58q-8 -34 -8 -73v-208h166q34 0 45 -11q12 -12 12 -46v-6q0 -33 -12 -45t-45 -12h-166v-821q0 -37 -14 -51t-51 -14h-49q-37 0 -51 14 q-13 13 -13 51v821h-117q-33 0 -45 12t-12 45z" />
<glyph unicode="&#xfb03;" horiz-adv-x="1830" d="M49 943v6q0 34 12 46q11 11 45 11h116v164q0 166 82 259q81 91 239 91q63 0 118 -27q17 -8 26 -19q8 -10 8 -23q0 -7 -5 -27l-2 -6q-5 -20 -12 -27t-19 -7q-7 0 -25 5q-34 11 -72 11q-45 0 -78 -14q-31 -13 -49 -40q-18 -26 -25 -59q-7 -31 -7 -73v-208h489v164 q0 168 81 259t239 91q61 0 118 -27q18 -8 27 -19q8 -10 8 -23q0 -7 -5 -27l-2 -6q-5 -20 -12 -27t-19 -7q-7 0 -25 5q-34 11 -73 11q-44 0 -77 -14t-50 -40q-18 -26 -25 -59q-7 -31 -7 -73v-208h540q38 0 51 -13q14 -14 14 -51v-877q0 -37 -14 -51t-51 -14h-49q-37 0 -51 14 t-14 51v821h-426v-821q0 -37 -14 -51t-51 -14h-49q-37 0 -51 14q-13 13 -13 51v821h-489v-821q0 -37 -14 -51t-51 -14h-49q-37 0 -51 14t-14 51v821h-116q-33 0 -45 12t-12 45zM1466 1292q0 48 35 81q36 34 82 34q49 0 82 -33t33 -82t-33 -82t-82 -33t-82 33q-35 35 -35 82z " />
<glyph unicode="&#xfb04;" horiz-adv-x="1888" d="M49 943v6q0 34 12 46q11 11 45 11h117v164q0 166 82 259q81 91 238 91q63 0 118 -27q18 -8 27 -19q8 -10 8 -23q0 -7 -5 -27l-2 -6q-5 -20 -12 -27t-20 -7q-7 0 -25 5q-34 11 -72 11q-44 0 -77 -14q-31 -13 -49 -40q-18 -26 -25 -59q-8 -35 -8 -73v-208h489v165 q0 165 82 258q81 91 238 91q66 0 148 -17q77 -16 138 -41q0 22 7 29t28 7h78q38 0 51 -13q14 -14 14 -51v-1088v-54q0 -12 4 -48q3 -31 7 -45q2 -10 15 -37q10 -21 22 -32q16 -15 32 -23q15 -8 43 -15q31 -8 41 -18t10 -39v-6q0 -31 -10 -41q-11 -11 -41 -10 q-164 10 -233 98q-68 86 -68 283v991q-141 50 -244 50q-52 0 -91 -14q-37 -13 -57 -41q-20 -27 -27 -58q-8 -34 -8 -73v-208h165q35 0 46 -11q12 -12 12 -46v-6q0 -33 -12 -45t-46 -12h-165v-821q0 -37 -14 -51t-51 -14h-49q-37 0 -51 14t-14 51v821h-489v-821 q0 -38 -13 -51q-14 -14 -51 -14h-49q-37 0 -51 14t-14 51v821h-117q-33 0 -45 12t-12 45z" />
<glyph horiz-adv-x="0" />
<glyph unicode="&#xd;" horiz-adv-x="682" />
<glyph unicode=" "  horiz-adv-x="513" />
<glyph unicode="&#x09;" horiz-adv-x="513" />
<glyph unicode="&#xa0;" horiz-adv-x="513" />
<glyph unicode="!" horiz-adv-x="539" d="M154 104q0 48 34 81t83 33q50 0 82 -32q33 -33 33 -82t-33 -82t-82 -33t-83 34t-34 81zM173 1381q0 42 15 57t57 15h50q42 0 57 -15q14 -14 14 -57l-1 -107q-3 -223 -13 -433q-9 -187 -27 -405q-3 -28 -13 -38t-39 -10h-6q-29 0 -39 10q-11 11 -14 38q-34 420 -39 838z " />
<glyph unicode="&#x22;" horiz-adv-x="682" d="M94 1428q0 45 27 69q26 23 64 23t64 -23t26 -69q0 -5 -4 -34l-46 -345q-3 -20 -11 -26q-9 -7 -26 -7h-6q-18 0 -27 7q-8 6 -11 26l-46 345q-4 29 -4 34zM407 1428q0 45 27 69q26 23 64 23t64 -23q27 -24 27 -69l-1 -4q0 -4 -1.5 -12.5t-2.5 -17.5l-46 -345 q-3 -21 -10 -26q-9 -7 -27 -7h-6q-18 0 -27 7q-7 5 -10 26l-46 345q0 3 -2 13q0 2 -0.5 6.5t-1.5 6.5q-1 4 -1 8z" />
<glyph unicode="#" horiz-adv-x="1186" d="M85 470v60q0 23 9 32t33 9h181l44 313h-171q-25 0 -33 8q-9 9 -9 33v59q0 24 9 33t33 9h190l55 386q3 25 13 33t34 8h61q24 0 31 -9q8 -9 5 -32l-56 -386h259l55 386q3 26 12 33q10 8 34 8h62q23 0 31 -9q7 -8 4 -32l-54 -386h144q24 0 33 -9q8 -8 8 -33v-59 q0 -25 -8 -33t-33 -8h-163l-44 -313h149q23 0 32 -9t9 -32v-60q0 -24 -9 -33q-8 -8 -32 -8h-170l-54 -388q-3 -25 -13 -33t-34 -8h-62q-24 0 -31 9q-7 8 -4 32l54 388h-258l-55 -388q-3 -25 -13 -33t-34 -8h-61q-24 0 -31 9q-8 9 -5 32l56 388h-161q-25 0 -33 8q-9 9 -9 33z M452 571h258l44 313h-258z" />
<glyph unicode="$" horiz-adv-x="1150" d="M84 294q0 27 38 43l6 2q22 11 35 11q14 0 22 -8t21 -29q54 -91 141 -144q88 -53 205 -53q61 0 119 14q54 13 102 41q47 27 74 75t27 112q0 48 -13 83t-41 66q-26 29 -78 55t-115 48q-75 26 -161 49q-70 20 -107 36q-57 25 -95 52q-47 34 -78 73q-32 41 -51 97t-19 125 t21 129q20 56 59 102q39 45 89 76q52 32 112 50q58 17 127 25v136q0 36 13 49t50 13h6q36 0 49 -13t13 -49v-136q119 -14 213 -79q93 -65 145 -169q9 -17 9 -33q0 -14 -8 -23q-8 -10 -29 -23l-5 -3q-19 -11 -34 -11q-22 0 -42 33q-47 78 -125 127q-75 47 -173 47 q-60 0 -112 -12q-48 -11 -94 -39q-44 -27 -67 -70q-24 -45 -24 -105q0 -39 14 -75t34 -59q19 -22 54 -44q25 -16 65 -33q33 -14 73 -26q8 -3 30.5 -9.5t36.5 -10.5q150 -43 221 -75q147 -68 200 -181q33 -69 33 -167q0 -93 -32 -164q-33 -74 -91 -123q-57 -49 -135 -79 q-74 -29 -169 -40v-136q0 -37 -13 -50t-50 -13h-6q-37 0 -50 13t-13 50v133q-64 4 -121 21q-55 16 -101 43q-43 25 -82 61q-38 35 -65 74q-26 38 -48 83q-10 21 -10 37z" />
<glyph unicode="%" horiz-adv-x="1681" d="M75 1036q0 64 9 122q9 56 32 115q21 53 58 98q33 40 91 67q57 26 128 26q65 0 121 -25q55 -25 89 -64q33 -38 58 -97q23 -54 34 -115q10 -57 10 -123q0 -74 -8 -127q-9 -62 -31 -117q-23 -58 -57 -98t-91 -66t-127 -26q-72 0 -129 26q-56 26 -91 67q-34 40 -57 98 q-20 50 -30 116q-9 59 -9 123zM217 1037q0 -332 175 -332q35 0 61 13q27 13 44 32q17 18 31 50q9 20 19 58q8 31 11 65q5 58 5 61v16.5v20.5v19q0 325 -172 325q-174 0 -174 -328zM338 -39q0 8 7 21l839 1488q14 23 24 29t38 6h63q28 0 28 -14q0 -8 -7 -21l-839 -1488 q-14 -23 -24 -29q-11 -6 -37 -6h-64q-28 0 -28 14zM975 418q0 64 9 122q9 56 32 115q23 58 58 99t92 67q54 25 127 25q67 0 121 -24q56 -25 90 -65q33 -39 58 -96q23 -54 34 -115q10 -57 10 -124t-9 -127q-9 -62 -31 -117q-23 -58 -57 -98t-91 -66q-54 -25 -127 -25 q-75 0 -129 25q-56 26 -91 67q-33 39 -57 99q-20 51 -30 115q-9 59 -9 123zM1117 420q0 -333 175 -333q35 0 61 13q27 14 45 33q15 16 30 50q10 23 20 58q7 24 10 64q5 55 5 62q1 17 1 56q0 325 -172 325q-175 0 -175 -328z" />
<glyph unicode="&#x26;" horiz-adv-x="1422" d="M81 398q0 66 19 123t51 101q31 42 78 82q44 37 94 65q59 33 105 52q-142 172 -142 323q0 75 31 140q30 63 82 104q53 42 119 64q69 23 144 23q54 0 104 -12t93 -36q39 -22 76 -60q32 -34 51 -85q19 -52 19 -109q0 -41 -11 -80q-10 -35 -28 -68q-18 -32 -43 -59 q-27 -28 -54 -51q-22 -19 -63 -44q-32 -20 -66 -37q-56 -28 -69 -34q144 -179 352 -396q62 119 93 215q10 33 25 45q14 11 49 11h6q26 0 36 -7q11 -8 11 -24q0 -13 -4 -26q-50 -180 -127 -311q113 -124 254 -258q22 -21 22 -33q0 -16 -41 -16h-103q-50 0 -69 8q-20 9 -55 42 q-54 53 -114 118q-85 -92 -194 -141q-112 -50 -236 -50q-73 0 -147 17q-69 16 -135 52q-61 33 -110 84q-48 49 -75 119q-28 72 -28 149zM266 420q0 -89 43 -160q44 -73 118 -113t163 -40q51 0 102 14t91 39q47 29 70 49q37 31 61 54q-59 60 -123 128q-53 56 -130 145 q-60 69 -152 187q-27 -13 -72 -39q-33 -20 -66 -48t-55 -58q-22 -29 -36 -72q-14 -42 -14 -86zM468 1174q0 -57 33 -135q33 -77 88 -143q6 3 23.5 11t25.5 12q30 15 48 26q26 16 47 32q23 18 41 37q22 24 33 44q12 22 21 53q8 27 8 63q0 80 -49 130q-49 51 -129 51 q-78 0 -134 -49t-56 -132z" />
<glyph unicode="'" horiz-adv-x="370" d="M94 1428q0 45 27 69q26 23 64 23t64 -23t26 -69q0 -5 -4 -34l-46 -345q-3 -20 -11 -26q-9 -7 -26 -7h-6q-18 0 -27 7q-8 6 -11 26l-45 345q0 3 -2 13q0 2 -0.5 6.5t-1.5 6.5q-1 4 -1 8z" />
<glyph unicode="(" horiz-adv-x="604" d="M101 581q0 230 79 476q78 243 214 418q25 31 45 31q14 0 35 -10l5 -2q32 -14 32 -33q0 -11 -11 -31q-100 -182 -156 -399q-55 -216 -55 -450q0 -214 55 -446q56 -237 156 -411q11 -19 11 -31q0 -18 -32 -30l-6 -2q-22 -9 -34 -9q-23 0 -45 30q-131 172 -212 422 q-81 249 -81 477z" />
<glyph unicode=")" horiz-adv-x="604" d="M93 1461q0 18 32 33l6 2q21 9 34 9q21 0 44 -29q139 -178 216 -419q78 -243 78 -476q0 -231 -80 -477q-81 -248 -214 -422q-23 -30 -44 -30q-13 0 -34 9l-6 2q-31 13 -31 31q0 8 11 30q98 171 155 411q55 232 55 446q0 233 -55 450q-55 218 -156 400q-11 20 -11 30z" />
<glyph unicode="*" horiz-adv-x="953" d="M86 1075v50q0 20 7 27t27 7h256l-128 220q-8 14 -8 23q0 13 20 24l43 24q16 8 22 8q14 0 25 -20l127 -221l127 221q11 20 25 20q9 0 22 -7l43 -25q21 -12 21 -24q0 -9 -8 -23l-128 -220h255q20 0 27 -7t7 -27v-50q0 -19 -7 -26t-27 -7h-255l128 -221q8 -14 8 -23 q0 -12 -21 -24l-43 -24q-16 -8 -22 -8q-14 0 -25 20l-127 221l-127 -221q-11 -20 -25 -20q-6 0 -22 8l-43 24q-20 11 -20 25q0 8 8 22l128 221h-256q-20 0 -27 7t-7 26z" />
<glyph unicode="+" horiz-adv-x="1187" d="M79 573v76q0 29 9 38q10 10 39 10h378v380q0 28 10 38t38 10h81q28 0 38 -10q9 -9 9 -38v-380h381q28 0 38 -10t10 -38v-76q0 -28 -10 -38t-38 -10h-381v-383q0 -29 -9 -38q-10 -10 -38 -10h-81q-28 0 -38 10t-10 38v383h-378q-29 0 -39 10q-9 9 -9 38z" />
<glyph unicode="," horiz-adv-x="468" d="M93 -282q0 11 7 25q65 143 86 256q-32 14 -50 43q-19 30 -19 62q0 48 35 81q34 33 83 33t82 -36t33 -98q0 -45 -31 -122q-28 -70 -119 -232q-13 -22 -22 -29q-10 -7 -28 -7q-9 0 -18 1l-6 1q-33 5 -33 22z" />
<glyph unicode="-" horiz-adv-x="797" d="M141 514v76q0 25 8 33q9 9 33 9h434q23 0 32 -9t9 -33v-76q0 -24 -9 -33q-8 -8 -32 -8h-434q-25 0 -33 8t-8 33z" />
<glyph unicode="." horiz-adv-x="466" d="M117 104q0 49 35 82q34 33 83 33q48 0 81 -33q34 -34 34 -82t-34 -82q-33 -33 -81 -33q-49 0 -83 34q-35 35 -35 81z" />
<glyph unicode="/" horiz-adv-x="887" d="M68 -145q0 6 5 23l557 1580q11 28 22 36q12 9 42 9h73q37 0 37 -22q0 -6 -5 -23l-556 -1580q-11 -29 -22 -37t-42 -8h-75q-36 0 -36 22z" />
<glyph unicode="0" horiz-adv-x="1282" d="M117 702q0 71 8 148q7 68 26 145q18 72 45 136t69 119q41 54 96 94q56 41 126 62q72 22 158 22q93 0 172 -29q80 -29 134 -79q54 -49 97 -119q41 -66 67 -150q25 -80 37 -167q12 -86 12 -176q0 -85 -7 -154q-8 -78 -25 -149q-19 -78 -44 -137q-27 -64 -69 -119 q-41 -55 -95 -93q-52 -37 -125 -60q-70 -22 -158 -22q-87 0 -159 22q-75 23 -126 61q-55 40 -95 94q-39 52 -68 119q-28 65 -44 137q-18 81 -25 146q-7 67 -7 149zM312 704q0 -600 331 -600q46 0 93 15q40 13 74 37q28 20 55 58q25 36 42 72q18 38 29 84q13 50 18 87 q6 40 9 91q5 79 5 84q1 23 1 78q0 68 -2 99q-2 38 -11 108q-7 61 -21 112q-13 51 -39 102q-27 53 -58 86q-33 34 -83 57q-51 23 -112 23q-62 0 -114 -23q-49 -22 -85 -59q-33 -34 -59 -88q-26 -53 -39 -103q-16 -59 -22 -113q-9 -75 -10 -109q-2 -62 -2 -98z" />
<glyph unicode="1" horiz-adv-x="752" d="M36 1091q0 19 30 40l349 244q27 18 39 22q15 5 46 5h6q27 0 37 -10q9 -9 9 -37v-1283q0 -42 -15 -57t-56 -15h-48q-42 0 -57 15t-15 57v1100l-233 -141q-22 -13 -35 -13q-21 0 -40 31l-3 5q-14 23 -14 37z" />
<glyph unicode="2" horiz-adv-x="1155" d="M93 63v6q0 42 7 59q8 18 36 48l507 532l18 18q73 76 101 118q58 83 58 182q0 114 -76 192q-75 76 -192 76q-102 0 -185 -63q-84 -64 -125 -158q-14 -31 -26 -39t-45 -5l-6 1q-27 3 -36 11q-10 9 -10 25q0 11 3 23q29 117 94 192q67 78 156 112q91 35 202 35q94 0 172 -26 q79 -26 141 -76t96 -124q35 -76 35 -167q0 -43 -8 -88q-8 -42 -24 -78q-18 -39 -35 -66q-19 -30 -48 -62q-50 -55 -51 -56q-6 -6 -26 -25.5t-33 -32.5t-33 -32.5t-26 -25.5l-406 -421h665q41 0 56 -15t15 -56v-6q0 -41 -15 -56t-56 -15h-838q-36 0 -49 13t-13 50z" />
<glyph unicode="3" horiz-adv-x="1188" d="M93 310q0 14 11 23q10 8 34 16l6 2q13 4 28 4q16 0 26 -9q12 -10 23 -31q54 -97 142 -150q92 -55 201 -55q46 0 98 10q46 9 87 30q37 19 69 51q30 30 47 75t17 96q0 140 -100 222q-101 83 -262 83q-37 0 -48 12q-12 13 -12 49v6q0 36 13 48q15 13 51 13q52 0 97 9 q43 9 84 29q38 19 67 48q27 27 44 70q16 41 16 92q0 105 -74 173t-180 68q-112 0 -192 -52q-81 -53 -129 -142q-12 -22 -22 -30q-10 -9 -26 -9q-6 0 -28 4l-5 1q-23 6 -34 15q-10 9 -10 24q0 11 6 27q48 138 163 217t287 79q67 0 132 -14q61 -13 118 -44q58 -31 97 -72 q42 -44 65 -101q24 -60 24 -129q0 -123 -77 -207q-78 -86 -197 -117v-1q145 -15 237 -122q91 -106 91 -255q0 -85 -28 -151q-27 -64 -77 -111q-49 -46 -113 -75t-136 -43q-63 -12 -149 -12q-170 0 -298 83q-125 81 -177 224q-7 19 -7 29z" />
<glyph unicode="4" horiz-adv-x="1167" d="M41 400v6q0 36 5 53q5 16 26 46l576 838q27 38 46 48q20 11 67 11h57q42 0 57 -15t15 -57v-842h137q40 0 54 -14t14 -54v-6q0 -41 -14 -55t-54 -14h-137v-273q0 -42 -15 -57t-57 -15h-42q-42 0 -57 15t-15 57v273h-608q-31 0 -43 12t-12 43zM230 488h475l2 703z" />
<glyph unicode="5" horiz-adv-x="1144" d="M94 294q0 14 10 23q11 10 33 17l6 1q23 7 29 7q13 0 25 -10q10 -9 23 -31q50 -86 132 -140t184 -54q141 0 228 88q88 90 88 225q0 151 -95 248q-95 96 -257 96q-79 0 -137 -37q-2 -1 -20 -13q-15 -10 -17 -11l-2 -1q-3 -1 -6 -2.5t-6 -3.5q-7 -4 -16 -7q-2 -1 -7 -2 t-8 -2q-11 -3 -21 -3q-3 0 -10.5 -0.5t-12.5 -0.5h-7q-41 0 -55 16t-11 56l46 577q3 42 19 57q17 15 58 15h622q41 0 54 -15q13 -14 13 -55v-7q-1 -40 -17 -56q-14 -14 -57 -14h-533l-31 -408q91 49 222 49q101 0 192 -34q89 -33 155 -93q65 -59 103 -150t38 -196 q0 -108 -41 -196q-41 -87 -112 -142q-71 -54 -163 -83q-90 -28 -198 -28q-156 0 -268 76q-113 77 -165 215q-7 17 -7 29z" />
<glyph unicode="6" horiz-adv-x="1251" d="M120 632q0 796 558 796q143 0 255 -71q111 -71 162 -199q7 -17 7 -29q0 -13 -10 -22q-8 -7 -33 -15l-6 -2q-18 -5 -27 -5q-14 0 -25 9q-7 6 -23 31q-43 76 -121 123q-76 46 -169 46q-62 0 -117 -19q-51 -17 -91 -50q-38 -31 -69 -77q-30 -44 -48 -95q-18 -50 -30 -106 q-13 -61 -17 -111q-4 -48 -4 -110q27 30 54 54q24 22 71 49q45 27 103 41q60 15 129 15q99 0 188 -33q91 -34 153 -90q67 -61 103 -143q39 -89 39 -186q0 -137 -68 -243q-67 -105 -183 -161q-113 -55 -256 -55q-67 0 -107 6q-50 7 -105 26q-54 18 -99 49q-44 30 -85 82 q-42 53 -68 118q-30 74 -45 163q-16 93 -16 214zM332 430q0 -88 39 -161q40 -75 111 -118t164 -43q96 0 166 42t106 114t36 163q0 68 -22 125q-24 63 -60 103q-40 45 -98 70q-57 25 -128 25q-135 0 -225 -90q-89 -89 -89 -230z" />
<glyph unicode="7" horiz-adv-x="1033" d="M47 1326v6q0 40 16 55t57 15h845q26 0 36 -10t10 -36v-6q0 -32 -3 -45t-18 -42q-332 -661 -549 -1197q-16 -40 -36 -53q-19 -13 -63 -13h-63q-53 0 -53 31q0 14 9 35q202 471 574 1190h-695q-41 0 -54 14t-13 56z" />
<glyph unicode="8" horiz-adv-x="1224" d="M109 383q0 63 19 120q18 55 56 107q34 46 94 86q56 37 129 55v2q-104 33 -171 113q-66 79 -66 194q0 74 26 138q26 63 69 105q42 41 102 70q59 29 121 42q61 13 129 13q66 0 131 -14t120 -43q57 -30 99 -72q44 -44 67 -103q24 -62 24 -134q0 -110 -67 -193t-174 -116v-2 q98 -23 164 -78q67 -55 101 -131q33 -74 33 -158q0 -82 -27 -150q-26 -66 -74 -115q-46 -47 -110 -81q-66 -34 -137 -49q-73 -15 -153 -15q-78 0 -152 15q-72 15 -137 48q-68 35 -113 80q-46 46 -75 115q-28 66 -28 151zM304 389q0 -131 86 -208t223 -77t222 77 q83 76 83 212q0 132 -86 212t-221 80q-134 0 -221 -82q-86 -81 -86 -214zM356 1056q0 -109 72 -175t186 -66q116 0 186 66q71 66 71 179q0 110 -72 174q-71 64 -183 64q-116 0 -188 -66t-72 -176z" />
<glyph unicode="9" horiz-adv-x="1251" d="M100 968q0 102 40 191q38 84 108 145q66 57 161 91q93 33 198 33q61 0 107 -7q55 -8 104 -26q59 -21 99 -49q44 -30 85 -82q44 -55 69 -118q28 -69 44 -164q17 -99 17 -213q0 -795 -559 -795q-144 0 -254 70t-162 199q-7 17 -7 29q0 13 10 22q8 7 32 15l6 2q18 5 28 5 q14 0 25 -9q7 -6 23 -31q43 -76 121 -123q76 -46 168 -46q63 0 118 19q51 17 91 50q36 29 68 77q33 49 49 94q18 49 30 107q13 61 17 111q4 48 4 109q-19 -22 -41 -42q-24 -22 -53 -42q-33 -23 -70 -38q-35 -14 -86 -25q-53 -11 -107 -11q-99 0 -188 33q-93 35 -154 90 q-67 61 -103 143q-38 87 -38 186zM297 975q0 -90 37 -163q38 -74 108 -117q71 -44 163 -44q135 0 225 90t90 230q0 87 -39 161t-112 118q-71 43 -164 43q-143 0 -225 -90q-83 -91 -83 -228z" />
<glyph unicode=":" horiz-adv-x="514" d="M141 104q0 48 35 81q34 33 83 33t81 -32q34 -34 34 -82t-34 -82q-33 -33 -81 -33q-49 0 -83 34q-35 35 -35 81zM141 859q0 48 35 81q34 33 83 33q48 0 81 -33q34 -34 34 -81q0 -48 -34 -82t-81 -34q-49 0 -83 34q-35 35 -35 82z" />
<glyph unicode=";" horiz-adv-x="549" d="M141 -282q0 11 7 25q63 139 85 256q-31 14 -49 43q-19 30 -19 62q0 48 35 81q34 33 83 33t82 -36t33 -98q0 -45 -31 -122q-28 -70 -119 -232q-13 -22 -22 -29q-10 -7 -28 -7q-9 0 -18 1l-6 1q-33 5 -33 22zM165 859q0 48 35 81t83 33t81 -33q34 -34 34 -81q0 -48 -34 -82 t-81 -34q-49 0 -83 34q-35 35 -35 82z" />
<glyph unicode="&#x3c;" horiz-adv-x="1252" d="M74 573v74q0 31 8 43q9 13 35 25l941 420q14 7 24 7q20 0 20 -35v-89q0 -31 -9 -43q-9 -13 -35 -24l-779 -341l779 -341q26 -11 35 -24q9 -12 9 -43v-90q0 -35 -20 -35q-10 0 -24 7l-941 421q-24 11 -35 25q-8 11 -8 43z" />
<glyph unicode="=" horiz-adv-x="1329" d="M149 352v77q0 28 10 38t38 10h935q29 0 39 -10q9 -9 9 -38v-77q0 -29 -9 -38q-10 -10 -39 -10h-935q-28 0 -38 10t-10 38zM149 791v77q0 28 10 38t38 10h935q29 0 39 -10q9 -9 9 -38v-77q0 -29 -9 -38q-10 -10 -39 -10h-935q-28 0 -38 10t-10 38z" />
<glyph unicode="&#x3e;" horiz-adv-x="1253" d="M152 112v90q0 32 8 43q10 13 35 24l780 341l-780 341q-26 11 -35 24q-8 11 -8 43v89q0 35 19 35q10 0 24 -7l941 -420q26 -12 35 -25q9 -14 9 -43v-74q0 -29 -9 -43q-9 -13 -35 -25l-941 -421q-14 -7 -24 -7q-19 0 -19 35z" />
<glyph unicode="?" horiz-adv-x="996" d="M75 1152q0 16 5 30q44 142 151 219q108 78 272 78q63 0 125 -14q61 -14 113 -42q49 -27 91 -70q38 -40 61 -99q23 -60 23 -126q0 -30 -7 -69q-6 -34 -15 -59q-11 -30 -26 -53q-20 -31 -33 -47q-15 -19 -41 -44q-27 -26 -45 -42q-2 -2 -50 -43q-9 -7 -20.5 -17.5 t-19.5 -17t-13 -11.5q-20 -19 -39 -40q-21 -25 -30 -43q-12 -26 -20 -50q-14 -41 -18 -67q-10 -60 -14 -88q-5 -29 -15 -39t-39 -10h-6q-30 0 -41 10t-14 39q-6 72 -6 118q0 34 5 71q4 32 17 62q10 24 25 50q14 24 36 49q24 27 41 44q28 28 51 49q27 26 43 40q12 11 36 40 q22 26 32 47q9 19 19 51q9 30 9 62q0 98 -66 158t-166 60q-185 0 -274 -191q-12 -25 -23 -36t-28 -11q-13 0 -31 6l-5 2q-27 8 -38 17q-12 11 -12 27zM350 104q0 48 34 81q35 33 83 33q50 0 82 -32q33 -33 33 -82t-33 -82t-82 -33t-83 34t-34 81z" />
<glyph unicode="@" horiz-adv-x="1684" d="M100 651q0 114 23 215q23 102 68 196q44 92 110 169q67 77 148 132t186 85q107 31 218 31q165 0 307 -53q141 -52 240 -147q98 -93 154 -230q56 -136 56 -294q0 -75 -15 -148q-16 -76 -46 -143q-34 -73 -76 -123q-46 -54 -110 -85q-66 -32 -143 -32q-102 0 -159 60 q-58 61 -58 164l-1 1q-53 -116 -120 -170q-69 -55 -155 -55q-48 0 -88 20q-39 19 -64 52q-26 33 -42 76q-18 49 -25 88q-7 42 -7 92q0 71 17 145q18 77 50 139q36 70 81 117q48 51 115 81q70 31 144 31q60 0 102 -20q38 -18 66 -66l9 29q6 21 17 26q14 7 44 7h18q19 0 25 -7 q6 -8 3 -28q-61 -354 -61 -428q0 -39 1 -54q2 -33 4 -49q4 -33 8 -46q6 -18 17 -37t25 -29q15 -10 38 -18q21 -7 51 -7q43 0 78 29q36 30 56 71q21 43 36 98q13 47 20 103q5 40 5 90q0 139 -41 250q-42 113 -120 196q-78 82 -194 129q-112 45 -258 45q-112 0 -214 -38 q-98 -36 -174 -105q-72 -64 -127 -155q-52 -86 -80 -192q-27 -103 -27 -213t27 -212q27 -101 80 -186q51 -82 127 -147q73 -63 174 -98q100 -35 214 -35q118 0 199 15q21 3 27 -1q8 -5 11 -25l8 -45q3 -20 -2 -28q-6 -9 -25 -13q-90 -18 -222 -18q-139 0 -258 40 q-122 41 -210 113q-92 75 -155 172q-65 100 -98 220q-32 116 -32 253zM636 560q0 -42 7 -76q8 -36 22 -68q15 -33 43 -52t66 -19q42 0 82 28t68 72q26 41 52 103q22 52 38 120q14 59 22 121t8 107q-40 49 -128 49q-56 0 -102 -24q-45 -23 -78 -64q-34 -42 -55 -90 q-25 -56 -34 -103q-11 -55 -11 -104z" />
<glyph unicode="A" horiz-adv-x="1400" d="M14 29q0 16 10 36l608 1343q12 27 25 36t44 9h6q29 0 43 -9t25 -36l596 -1342q10 -23 10 -36q0 -30 -53 -30h-69q-46 0 -64 12q-17 11 -36 54l-144 335h-668l-143 -335q-19 -42 -37 -54t-63 -12h-38q-52 0 -52 29zM406 534h551l-271 659z" />
<glyph unicode="B" horiz-adv-x="1292" d="M194 72v1309q0 42 15 57t56 15h414q64 0 123 -13t118 -41q56 -26 101 -67q42 -37 70 -97q26 -55 26 -125q0 -56 -27 -114q-27 -59 -68 -104q-40 -45 -95 -79q-50 -31 -104 -41v-1q53 0 111 -16q50 -14 103 -47q48 -30 84 -72q38 -44 58 -99q21 -57 21 -121 q0 -100 -42 -181q-41 -80 -112 -131q-68 -49 -159 -77q-89 -27 -188 -27h-434q-41 0 -56 15t-15 57zM384 132h266q46 0 101 10q50 9 94 31q49 24 80 53q32 29 54 80q20 46 20 106q0 48 -14 92q-14 43 -36 71q-24 31 -57 52q-32 21 -70 35q-29 11 -80 21q-46 9 -83 12 q-52 4 -84 4l-191 3v-570zM384 815l191 6q46 2 81 7q38 6 79 18q38 11 72 33q33 21 58 49t39 70q15 45 15 90q0 232 -321 232h-214v-505z" />
<glyph unicode="C" horiz-adv-x="1443" d="M102 723q0 127 31 239q32 115 93 209q61 93 147 163q87 70 201 107q117 38 248 38q170 0 300 -74t202 -206q11 -19 11 -36q0 -24 -38 -41l-5 -2q-31 -12 -38 -12q-22 0 -47 33q-69 92 -166 144t-212 52q-103 0 -190 -33q-83 -31 -147 -91q-62 -58 -104 -135 q-45 -83 -63 -166q-20 -91 -20 -186t21 -185t64 -167q44 -78 105 -135q63 -59 147 -91q86 -33 188 -33q124 0 228 56q102 55 178 155q24 32 45 32q13 0 35 -12l5 -3q36 -21 36 -41q0 -12 -12 -33q-82 -143 -215 -218q-136 -77 -316 -77q-132 0 -244 37q-111 37 -199 106 q-83 65 -146 161q-60 91 -92 206q-31 112 -31 239z" />
<glyph unicode="D" horiz-adv-x="1551" d="M194 72v1309q0 42 15 57t56 15h443q141 0 261 -36t207 -102q89 -68 149 -155q63 -92 92 -199q31 -113 31 -232q0 -155 -52 -291q-50 -131 -147 -231q-92 -95 -238 -152q-141 -55 -317 -55h-429q-41 0 -56 15t-15 57zM385 131h289q176 0 306 74q129 74 197 206 q67 131 67 309q0 64 -9 126q-9 65 -29 122q-22 64 -52 113q-32 52 -79 96t-108 76q-58 30 -140 49q-79 18 -174 18h-268v-1189z" />
<glyph unicode="E" horiz-adv-x="1207" d="M194 72v1309q0 42 15 57t56 15h761q36 0 50 -14q13 -13 13 -50v-6q0 -38 -13 -51q-14 -14 -50 -14h-642v-496h575q37 0 50 -13t13 -50v-6q0 -37 -13 -50t-50 -13h-575v-557h653q37 0 50 -13t13 -50v-6q0 -38 -13 -51t-50 -13h-772q-41 0 -56 15t-15 57z" />
<glyph unicode="F" horiz-adv-x="1151" d="M194 72v1309q0 42 15 57t56 15h756q37 0 51 -14t14 -51v-6q0 -37 -14 -51t-51 -14h-634v-508h563q37 0 51 -14q13 -13 13 -50v-6q0 -38 -13 -51q-14 -14 -51 -14h-563v-602q0 -42 -15 -57t-57 -15h-50q-41 0 -56 15t-15 57z" />
<glyph unicode="G" horiz-adv-x="1521" d="M99 715q0 103 22 195q23 96 64 180q40 81 107 156q63 71 144 123q81 53 184 81q105 29 218 29q160 0 297 -67q132 -64 208 -188q13 -20 13 -35q0 -20 -34 -41l-5 -3q-23 -14 -36 -14q-18 0 -43 28q-73 85 -171 131q-100 47 -211 47q-127 0 -229 -46q-106 -47 -174 -126 q-71 -82 -110 -194q-38 -110 -38 -246q0 -99 22 -187q23 -93 67 -169q46 -80 109 -137q66 -60 155 -92q92 -33 198 -33q172 0 354 79v392h-231q-39 0 -53 14t-14 53v6q0 39 14 53t53 14h346q42 0 57 -15t15 -57v-461q0 -45 -12 -65t-53 -38q-244 -108 -494 -108 q-166 0 -301 53q-139 54 -234 151q-96 98 -150 235q-54 138 -54 302z" />
<glyph unicode="H" horiz-adv-x="1536" d="M194 72v1309q0 42 15 57t56 15h48q42 0 57 -15t15 -57v-558h767v558q0 42 15 57t56 15h48q42 0 57 -15t15 -57v-1309q0 -42 -15 -57t-57 -15h-48q-41 0 -56 15t-15 57v617h-767v-617q0 -42 -15 -57t-57 -15h-48q-41 0 -56 15t-15 57z" />
<glyph unicode="I" horiz-adv-x="577" d="M194 72v1309q0 42 15 57t56 15h47q42 0 57 -15t15 -57v-1309q0 -42 -15 -57t-57 -15h-47q-41 0 -56 15t-15 57z" />
<glyph unicode="J" horiz-adv-x="957" d="M33 218q0 11 8 21q7 9 27 21l5 3q17 10 28 10q17 0 37 -30q32 -50 88 -81q58 -32 136 -32q55 0 95 23q43 25 66 59q26 39 40 82q15 46 21 87t6 79v921q0 42 15 57t57 15h45q42 0 57 -15t15 -57v-942q0 -102 -28 -189q-26 -80 -70 -134q-42 -52 -100 -84q-62 -35 -112 -46 q-54 -12 -111 -12q-114 0 -195 57q-80 56 -122 156q-8 22 -8 31z" />
<glyph unicode="K" horiz-adv-x="1311" d="M194 72v1309q0 42 15 57t56 15h47q42 0 57 -15t15 -57v-580l613 601q32 32 55 42q21 9 68 9h78q41 0 41 -18q0 -11 -21 -32l-624 -608l699 -743q20 -22 20 -34q0 -18 -42 -18h-116q-47 0 -68 9q-20 9 -53 43l-650 684v-664q0 -42 -15 -57t-57 -15h-47q-41 0 -56 15 t-15 57z" />
<glyph unicode="L" horiz-adv-x="1104" d="M194 72v1309q0 42 15 57t56 15h49q42 0 57 -15t15 -57v-1246h622q36 0 50 -14t14 -50v-6q0 -37 -14 -51t-50 -14h-743q-41 0 -56 15t-15 57z" />
<glyph unicode="M" horiz-adv-x="1856" d="M152 77l101 1304q3 42 19 57t59 15h38q44 0 64 -13q18 -12 36 -53l464 -1096l462 1095q16 41 36 54q19 13 63 13h34q42 0 59 -15q16 -15 19 -57l107 -1310q3 -40 -11 -56q-14 -15 -55 -15h-48q-43 0 -59 15q-15 14 -18 56l-72 1082l-460 -1107q-12 -28 -25 -37 q-14 -9 -44 -9h-6q-31 0 -44 9t-25 37l-464 1107l-72 -1076q-3 -46 -20 -61q-18 -16 -61 -16h-7q-44 0 -59 16q-14 16 -11 61z" />
<glyph unicode="N" horiz-adv-x="1600" d="M194 79v1302q0 42 15 57t56 15h53q47 0 66 -10q21 -11 49 -48l810 -1069v1048q0 45 17 62t62 17h6q45 0 62 -17t17 -62v-1309q0 -37 -14 -51t-52 -14h-6q-42 0 -60 9q-19 10 -44 43l-874 1143v-1116q0 -45 -17 -62t-62 -17h-6q-45 0 -62 17q-16 16 -16 62z" />
<glyph unicode="O" horiz-adv-x="1648" d="M101 724q0 165 53 307q52 139 147 239q93 98 230 154q134 55 296 55q156 0 292 -56q134 -55 228 -155q96 -102 147 -238q53 -141 53 -301q0 -163 -51 -303q-50 -138 -144 -239q-92 -100 -228 -157q-133 -56 -297 -56q-160 0 -298 56q-137 56 -230 155q-94 100 -146 238 t-52 301zM305 728q0 -128 34 -239q33 -109 100 -197q65 -86 164 -135q102 -50 223 -50q100 0 185 33q86 33 145 91q62 60 103 137q43 80 64 171q21 92 21 191q0 103 -22 192q-22 92 -66 168q-44 78 -105 134t-145 88q-85 32 -181 32q-117 0 -216 -48q-100 -49 -165 -131 q-68 -86 -103 -196q-36 -113 -36 -241z" />
<glyph unicode="P" horiz-adv-x="1206" d="M194 72v1309q0 42 15 57t56 15h411q102 0 189 -26q85 -25 150 -75t101 -126q35 -74 35 -173q0 -87 -28 -159t-78 -125q-49 -53 -114 -90q-63 -37 -138 -55q-71 -17 -140 -17h-8l-260 3v-538q0 -42 -15 -57t-57 -15h-48q-41 0 -56 15t-15 57zM385 724h122q71 0 130 10 q62 11 119 34q59 24 101 60t67 90q26 57 26 124q0 122 -87 200t-227 78h-251v-596z" />
<glyph unicode="Q" horiz-adv-x="1651" d="M104 724q0 165 53 307q52 139 147 239q93 98 230 154q134 55 296 55q155 0 291 -56t229 -155q96 -102 147 -238q53 -141 53 -301q0 -279 -145 -480q-144 -199 -393 -256q95 -129 199 -179q106 -52 286 -59q28 -2 37 -11q10 -10 10 -37v-6q0 -27 -10 -37t-37 -10h-35 q-130 0 -217 14q-91 15 -177 51t-156 99q-73 65 -140 157q-200 13 -352 112q-153 99 -234 264q-82 167 -82 373zM307 728q0 -125 35 -239q34 -111 99 -197t165 -135q102 -50 223 -50q99 0 184 33q87 34 146 91q62 60 103 137t63 171q21 92 21 191q0 103 -22 192 q-23 95 -65 168q-43 76 -106 134q-61 56 -145 88q-85 32 -180 32q-118 0 -217 -48q-100 -49 -165 -131q-66 -84 -102 -196q-37 -116 -37 -241z" />
<glyph unicode="R" horiz-adv-x="1269" d="M194 72v1309q0 42 15 57t56 15h395q73 0 148 -13q68 -12 131 -41t105 -71q45 -45 70 -108t25 -146q0 -97 -44 -178q-45 -82 -120 -135t-166 -72q56 -54 107 -118q52 -64 83 -114q37 -59 68 -125q34 -72 55 -125q37 -92 55 -140q8 -21 8 -34q0 -17 -14 -25t-41 -8h-61 q-43 0 -62 13q-17 12 -34 54q-69 182 -146 319t-193 271q-49 -4 -120 -4h-25l-105 2v-583q0 -42 -15 -57t-57 -15h-47q-41 0 -56 15t-15 57zM384 769q42 0 106 2q40 1 108 10q65 8 105 20q44 13 92 36q47 23 77 53q31 31 49 76q19 48 19 101q0 77 -46 137t-116 88 q-69 28 -154 28h-240v-551z" />
<glyph unicode="S" horiz-adv-x="1176" d="M94 293q0 25 40 43l5 3q18 9 36 9q12 0 22 -8t20 -27q54 -91 141 -144q88 -53 205 -53q60 0 119 17q55 16 103 50q46 33 73 85t27 116q0 48 -13 83q-13 33 -41 65q-26 29 -78 55q-59 29 -115 49q-63 22 -161 48q-70 20 -107 36q-53 23 -95 53q-47 33 -77 72 q-32 41 -51 97q-20 58 -20 125q0 75 26 144q25 67 71 116q47 50 106 83q65 37 131 52q73 17 147 17q136 0 248 -68q110 -67 168 -185q10 -19 10 -33q0 -11 -9 -22q-8 -10 -29 -23l-5 -3q-21 -13 -34 -13q-20 0 -41 35q-46 77 -125 126q-77 48 -173 48q-58 0 -112 -17 q-52 -16 -95 -47q-41 -29 -66 -79t-25 -108q0 -40 14 -76t34 -59q19 -22 54 -44q25 -16 65 -33q33 -14 73 -26q7 -2 29.5 -8t37.5 -11q145 -41 221 -76q147 -68 200 -181q33 -69 33 -167q0 -83 -26 -151q-28 -73 -74 -122q-50 -53 -112 -89q-63 -37 -142 -55 q-78 -18 -162 -18q-90 0 -165 22t-131 63q-58 42 -96 89q-41 50 -69 109q-10 21 -10 36z" />
<glyph unicode="T" horiz-adv-x="1194" d="M32 1381v6q0 39 13 52q14 14 52 14h1002q37 0 51 -14t14 -52v-6q0 -37 -14 -51t-51 -14h-404v-1244q0 -42 -15 -57t-57 -15h-49q-42 0 -57 15t-15 57v1244h-405q-38 0 -52 14q-13 13 -13 51z" />
<glyph unicode="U" horiz-adv-x="1493" d="M176 494v887q0 42 15 57t57 15h47q42 0 57 -15t15 -57v-840q0 -206 94 -319q95 -114 292 -114q196 0 295 112t99 313v838q0 47 17 64q18 18 65 18h6q47 0 65 -18q17 -17 17 -64v-867q0 -129 -40 -234q-39 -101 -114 -166q-76 -66 -178 -98q-100 -32 -235 -32 q-177 0 -303 58q-128 59 -199 176q-72 118 -72 286z" />
<glyph unicode="V" horiz-adv-x="1340" d="M15 1421q0 32 54 32h69q44 0 64 -13q18 -12 35 -54l451 -1106l454 1106q17 42 35 54q19 13 64 13h35q52 0 52 -31q0 -14 -9 -35l-572 -1337q-13 -31 -28 -40q-17 -10 -48 -10h-6q-31 0 -48 10q-15 9 -28 40l-564 1336q-10 23 -10 35z" />
<glyph unicode="W" horiz-adv-x="1955" d="M44 1416q0 19 13 28t44 9h64q43 0 62 -14q17 -13 29 -55l302 -1080l361 1096q11 32 24 42q14 11 48 11h6q35 0 49 -11t24 -42l353 -1098l316 1073q13 47 34 63q19 15 70 15h6q31 0 48 -10q16 -10 16 -31q0 -15 -7 -37l-412 -1318q-11 -36 -25 -46q-16 -11 -51 -11h-7 q-35 0 -51 11q-15 10 -27 46l-355 1085l-361 -1087q-12 -35 -27 -45q-14 -10 -50 -10h-6q-35 0 -51 11q-14 10 -25 45l-408 1328q-6 21 -6 32z" />
<glyph unicode="X" horiz-adv-x="1311" d="M39 23q0 13 16 35l488 685l-458 651q-16 22 -16 36q0 23 47 23h89q47 0 67 -11q19 -10 46 -48l350 -506l350 506q27 38 46 48q20 11 67 11h54q46 0 46 -23q0 -14 -16 -36l-447 -626l495 -709q16 -23 16 -36q0 -23 -46 -23h-93q-48 0 -67 10q-18 9 -46 49l-384 563 l-392 -563q-28 -39 -47 -49t-66 -10h-53q-46 0 -46 23z" />
<glyph unicode="Y" horiz-adv-x="1247" d="M11 1428q0 25 48 25h77q46 0 66 -11q19 -10 44 -51l392 -646l413 647q24 39 44 50t66 11h41q48 0 48 -24q0 -15 -15 -37l-517 -802v-518q0 -42 -15 -57t-57 -15h-49q-42 0 -57 15t-15 57v518l-500 802q-14 23 -14 36z" />
<glyph unicode="Z" horiz-adv-x="1277" d="M57 45v6q0 32 4 43q6 15 21 37l850 1185h-751q-38 0 -52 14q-13 13 -13 51v6q0 39 13 52q14 14 52 14h964q24 0 34 -10q9 -9 9 -33v-7q0 -31 -4 -42q-4 -12 -21 -36l-848 -1189h821q38 0 51 -13q14 -14 14 -52v-6q0 -37 -14 -51t-51 -14h-1035q-26 0 -35 9t-9 36z" />
<glyph unicode="[" horiz-adv-x="597" d="M174 -271v1700q0 42 15 57t57 15h234q31 0 42 -11t11 -42v-6q0 -32 -11 -43q-12 -12 -42 -12h-142v-1616h142q30 0 42 -12q11 -11 11 -42v-6q0 -32 -11 -43t-42 -11h-234q-42 0 -57 15t-15 57z" />
<glyph unicode="\" horiz-adv-x="887" d="M84 1481q0 22 36 22h74q30 0 42 -9q11 -8 22 -36l557 -1580q5 -17 5 -23q0 -22 -37 -22h-74q-31 0 -42 8t-22 37l-557 1580q-4 13 -4 23z" />
<glyph unicode="]" horiz-adv-x="596" d="M63 -283q0 30 12 42t42 12h142v1616h-142q-30 0 -42 12t-12 43v6q0 30 12 42q11 11 42 11h234q42 0 57 -15t15 -57v-1700q0 -42 -15 -57t-57 -15h-234q-31 0 -42 11q-12 12 -12 43v6z" />
<glyph unicode="^" horiz-adv-x="1009" d="M74 671q0 8 6 20l321 724q10 23 21 31q10 7 37 7h92q26 0 36 -7q11 -8 21 -31l322 -724q5 -10 5 -20q0 -17 -30 -17h-95q-26 0 -36 7q-11 8 -21 30l-248 566l-248 -566q-10 -22 -21 -30q-10 -7 -37 -7h-95q-30 0 -30 17z" />
<glyph unicode="_" horiz-adv-x="1088" d="M25 -189h1039v-102h-1039v102z" />
<glyph unicode="`" horiz-adv-x="497" d="M43 1486q0 11 25 11h138q26 0 38 -6q11 -5 25 -29l153 -251q8 -14 8 -21q0 -14 -28 -14h-61q-26 0 -39 5q-12 5 -29 26l-220 258q-10 13 -10 21z" />
<glyph unicode="a" horiz-adv-x="1078" d="M80 283q0 76 31 138q30 59 78 97q50 39 115 62q72 26 135 34q67 9 142 9q83 0 174 -12v39q0 111 -61 176q-62 67 -181 67q-71 0 -140 -33q-71 -34 -122 -88q-24 -24 -40 -24q-15 0 -32 10l-5 3q-30 17 -30 35q0 11 11 30q59 96 158 149q100 54 221 54q112 0 189 -28 q81 -29 124 -83q43 -53 65 -131q21 -75 21 -179v-543q0 -37 -14 -51t-51 -14h-48q-37 0 -51 14t-14 51v92h-1q-120 -180 -314 -180q-74 0 -139 21q-66 21 -114 58q-49 38 -78 96q-29 60 -29 131zM269 296q0 -92 62 -143q60 -50 156 -50q36 0 69 11q39 13 72 35q35 23 64 57 q29 33 46 78q17 44 17 98v108q-106 14 -185 14q-50 0 -84 -5q-39 -6 -80 -21q-43 -16 -71 -37t-47 -61t-19 -84z" />
<glyph unicode="b" horiz-adv-x="1230" d="M158 65v1369q0 38 13 51t51 13h48q38 0 51 -13q14 -14 14 -51v-576q137 171 340 171q107 0 196 -42q88 -42 146 -115q56 -71 88 -165q31 -92 31 -197q0 -85 -19 -161q-20 -79 -58 -145t-93 -118t-129 -80q-76 -29 -163 -29q-107 0 -194 48t-144 138l-1 -1v-97 q0 -37 -14 -51t-51 -14h-48q-37 0 -51 14q-13 13 -13 51zM335 388q0 -66 27 -120t70 -88q45 -36 94 -53q54 -19 101 -19q61 0 116 22q54 22 89 58q37 39 62 87q26 51 38 107q12 57 12 117q0 62 -11 123q-10 56 -35 109q-24 52 -59 88t-88 59q-51 22 -116 22q-82 0 -150 -37 q-69 -38 -110 -101q-40 -62 -40 -138v-236z" />
<glyph unicode="c" horiz-adv-x="1075" d="M94 495q0 112 35 211q35 98 99 170q64 71 159 112q96 41 211 41q130 0 225 -56q95 -55 150 -159q11 -22 11 -34q0 -21 -35 -40l-6 -3q-20 -11 -32 -11q-19 0 -40 33q-92 140 -257 140q-148 0 -239 -105q-91 -104 -91 -288q0 -80 21 -150t61 -125q38 -53 104 -87 q61 -32 143 -32q86 0 154 37q69 37 117 105q18 26 35 26q10 0 29 -11l5 -3q30 -19 30 -37q0 -11 -9 -29q-54 -107 -152 -165t-235 -58q-113 0 -206 39t-155 107q-64 70 -98 163t-34 209z" />
<glyph unicode="d" horiz-adv-x="1230" d="M94 510q0 105 31 197q32 94 88 165q58 73 146 115q89 42 196 42q205 0 340 -171v576q0 38 13 51t51 13h49q38 0 51 -13t13 -51v-1369q0 -38 -13 -51q-14 -14 -51 -14h-49q-37 0 -51 14q-13 13 -13 51v97l-2 1q-55 -90 -143 -138q-87 -48 -194 -48q-86 0 -162 29t-130 80 q-55 52 -93 118t-58 145q-19 76 -19 161zM286 499q0 -60 12 -117q13 -59 37 -107q24 -46 63 -87q35 -36 89 -58q55 -22 115 -22q48 0 102 19q49 17 94 53q43 34 70 88t27 120v236q0 113 -89 194q-90 82 -211 82q-65 0 -116 -22q-53 -23 -88 -59q-36 -38 -60 -88 q-25 -53 -35 -109t-10 -123z" />
<glyph unicode="e" horiz-adv-x="1148" d="M94 501q0 154 63 274q63 121 177 187q115 67 264 67q32 0 65 -3q27 -2 78 -16q48 -13 85 -32q41 -21 82 -58q45 -40 74 -86q30 -46 53 -123q22 -71 28 -164q3 -37 -11 -51q-13 -13 -52 -13h-717q0 -31 6 -64t18 -69q13 -39 30 -70q18 -33 46 -64q27 -30 62 -53t80 -36 t99 -13q184 0 302 151q21 27 38 27q11 0 30 -11l5 -3q30 -16 30 -35q0 -11 -10 -30q-134 -236 -421 -236q-113 0 -210 40q-95 39 -160 109q-64 68 -99 166q-35 97 -35 209zM284 600h598q0 37 -9 76q-9 38 -30 79q-22 42 -52 72q-32 32 -83 53q-49 20 -115 20q-51 0 -96 -14 q-46 -14 -75 -36q-28 -21 -55 -51q-24 -27 -40 -57q-12 -23 -25 -58q-11 -30 -14 -50q-4 -28 -4 -34z" />
<glyph unicode="f" horiz-adv-x="667" d="M48 943v6q0 34 12 46q11 11 45 11h117v164q0 166 82 259q81 91 238 91q61 0 118 -27q18 -8 27 -19q7 -8 7 -23q0 -7 -5 -27l-1 -6q-5 -19 -13 -27q-7 -7 -19 -7q-7 0 -25 5q-34 11 -72 11q-44 0 -77 -14t-50 -40q-18 -26 -25 -59q-7 -31 -7 -73v-208h166q34 0 45 -11 q12 -12 12 -46v-6q0 -33 -12 -45t-45 -12h-166v-821q0 -37 -14 -51t-51 -14h-49q-37 0 -51 14q-13 13 -13 51v821h-117q-33 0 -45 12t-12 45z" />
<glyph unicode="g" horiz-adv-x="1211" d="M97 505q0 83 18 160q19 79 55 143q38 67 90 116q50 47 127 77q72 28 161 28q211 0 327 -185h1v98q0 37 14 51q13 13 51 13h48q38 0 51 -13t13 -51v-876q0 -130 -27 -229t-84 -171q-56 -71 -154 -109q-95 -37 -228 -37q-46 0 -88 6q-50 7 -91 20q-48 15 -90 40 q-43 25 -80 64q-41 43 -67 93q-11 22 -11 35q0 22 34 43l5 3q20 13 34 13q17 0 40 -31q51 -72 133 -114q81 -42 175 -42q75 0 135 23q59 23 94 59q34 36 56 93q23 62 30 113q7 55 7 130v113q-18 -24 -43 -50q-21 -22 -52 -46q-31 -23 -64 -40q-29 -14 -77 -26 q-41 -10 -93 -10q-107 0 -194 39q-86 38 -142 107q-57 70 -85 157q-29 92 -29 193zM288 525q0 -73 9 -121q11 -56 33 -105q23 -51 56 -84q35 -35 85 -54q52 -20 116 -20q121 0 205 81t84 195v202q0 66 -25 119t-67 89q-41 35 -91 53q-52 19 -99 19q-78 0 -138 -30 q-61 -30 -96 -82q-36 -52 -54 -119q-18 -66 -18 -143z" />
<glyph unicode="h" d="M158 65v1369q0 38 13 51t51 13h50q38 0 51 -13t13 -51v-591l1 -1q56 87 145 137q88 50 196 50q61 0 109 -12q46 -12 83 -34q33 -20 60 -55q28 -36 42 -71q17 -43 25 -85q10 -55 13 -96q3 -46 3 -105v-506q0 -38 -13 -51q-14 -14 -51 -14h-49q-37 0 -51 14t-14 51v559 q0 68 -10 112q-11 47 -35 82q-24 34 -67 51t-104 17q-71 0 -138 -38q-63 -36 -105 -103q-40 -64 -40 -139v-541q0 -38 -13 -51q-14 -14 -51 -14h-50q-37 0 -51 14q-13 13 -13 51z" />
<glyph unicode="i" horiz-adv-x="494" d="M130 1293q0 48 35 81t83 33t81 -33q34 -34 34 -81t-34 -83q-32 -33 -81 -33q-50 0 -83 33q-35 35 -35 83zM158 65v877q0 38 13 51t51 13h50q38 0 51 -13q14 -14 14 -51v-877q0 -37 -14 -51t-51 -14h-50q-37 0 -51 14q-13 13 -13 51z" />
<glyph unicode="j" horiz-adv-x="496" d="M-17 -423q0 29 11 40t40 17q21 4 43 14q17 8 33 22q13 11 22 30q9 18 14 36q5 19 8 43q3 25 3 47q0 6 0.5 24t0.5 30v1062q0 38 13 51t51 13h52q38 0 51 -13q14 -14 14 -51v-1040q0 -196 -70 -284q-69 -86 -235 -97q-29 -1 -40 10t-11 40v6zM131 1293q0 48 34 81 q35 33 83 33q49 0 82 -33t33 -81t-33 -83q-32 -33 -82 -33t-83 33q-34 34 -34 83z" />
<glyph unicode="k" horiz-adv-x="1056" d="M158 65v1369q0 38 13 51t51 13h50q38 0 51 -13t13 -51v-858l411 386q30 29 50 37q17 7 61 7h79q37 0 37 -14q0 -11 -20 -29l-422 -392l479 -524q18 -21 18 -30q0 -17 -38 -17h-114q-42 0 -61 8q-17 7 -47 40l-433 476v-459q0 -38 -13 -51q-14 -14 -51 -14h-50 q-37 0 -51 14q-13 13 -13 51z" />
<glyph unicode="l" horiz-adv-x="551" d="M159 359v1075q0 37 14 51q13 13 51 13h49q38 0 51 -13t13 -51v-1088q0 -12 0.5 -30t0.5 -24q0 -21 3 -48q3 -23 8 -45q4 -15 14 -37q10 -21 22 -32q16 -15 32 -23q14 -7 44 -15q31 -8 41 -18t10 -39v-6q0 -30 -11 -41t-40 -10q-164 10 -233 98q-69 87 -69 283z" />
<glyph unicode="m" horiz-adv-x="1765" d="M158 65v877q0 38 13 51t51 13h50q38 0 51 -13t13 -51v-100h1q56 87 140 137q85 50 183 50q123 0 193 -53t98 -151q53 94 141 148q92 56 209 56q59 0 106 -12q43 -11 79 -34q32 -20 57 -55q21 -29 38 -71q13 -34 23 -86q9 -50 12 -95q3 -46 3 -105v-506q0 -38 -13 -51 q-14 -14 -51 -14h-50q-37 0 -51 14t-14 51v559q0 49 -5 92q-4 36 -19 72q-14 35 -35 54q-23 21 -57 33q-32 11 -81 11q-71 0 -131 -33q-59 -32 -97 -95q-37 -61 -37 -139v-554q0 -37 -14 -51t-51 -14h-49q-37 0 -51 14t-14 51v559q0 49 -5 92q-4 36 -19 72q-14 35 -35 54 q-22 21 -57 33q-32 11 -81 11q-68 0 -130 -38q-61 -37 -99 -103q-37 -64 -37 -139v-541q0 -38 -13 -51q-14 -14 -51 -14h-50q-37 0 -51 14q-13 13 -13 51z" />
<glyph unicode="n" d="M158 65v877q0 38 13 51t51 13h50q38 0 51 -13t13 -51v-100h1q55 86 145 137q88 50 196 50q61 0 109 -12q46 -12 83 -34q33 -20 60 -55q28 -36 42 -71q17 -43 25 -85q10 -55 13 -96q3 -46 3 -105v-506q0 -38 -13 -51q-14 -14 -51 -14h-49q-37 0 -51 14t-14 51v559 q0 68 -10 112q-11 47 -35 82q-24 34 -67 51t-104 17q-71 0 -138 -38q-63 -36 -105 -103q-40 -64 -40 -139v-541q0 -38 -13 -51q-14 -14 -51 -14h-50q-37 0 -51 14q-13 13 -13 51z" />
<glyph unicode="o" horiz-adv-x="1200" d="M95 495q0 118 34 214t98 169q61 69 161 111q96 40 218 40q116 0 210 -39t158 -109q61 -67 97 -165q34 -93 34 -204q0 -120 -34 -216q-35 -98 -97 -168q-65 -73 -161 -111q-100 -40 -217 -40q-116 0 -212 38q-95 38 -158 107q-62 68 -97 164q-34 93 -34 209zM286 506 q0 -63 11 -124q10 -58 35 -112q24 -52 60 -90q36 -37 89 -60q51 -22 119 -22q69 0 125 25q60 27 100 74q42 50 66 127q24 78 24 180q0 69 -11 123q-12 59 -37 109q-28 55 -61 90q-34 35 -89 59q-51 22 -116 22q-81 0 -143 -33t-99 -90q-37 -56 -55 -127t-18 -151z" />
<glyph unicode="p" horiz-adv-x="1230" d="M158 -393v1335q0 38 13 51t51 13h48q38 0 51 -13q14 -14 14 -51v-98h1q56 88 144 137q87 48 194 48q87 0 163 -29q74 -28 129 -80t93 -118t58 -145q19 -76 19 -161q0 -104 -31 -196q-32 -96 -88 -166q-57 -72 -146 -114q-91 -43 -196 -43q-203 0 -340 172v-542 q0 -37 -14 -51q-13 -13 -51 -13h-48q-38 0 -51 13t-13 51zM335 383q0 -74 40 -138q39 -63 110 -101q70 -38 150 -38q65 0 116 22q53 23 88 59q34 35 59 89q25 53 35 109q11 61 11 123q0 61 -12 118q-11 55 -38 106q-24 46 -62 86q-36 38 -89 59q-52 21 -116 21 q-50 0 -101 -18q-49 -17 -94 -53q-42 -34 -70 -89q-27 -54 -27 -119v-236z" />
<glyph unicode="q" horiz-adv-x="1230" d="M94 496q0 85 19 161q20 79 58 145t93 118q54 51 130 80t162 29q107 0 194 -48q89 -49 143 -137h2v98q0 38 13 51t51 13h49q38 0 51 -13t13 -51v-1335q0 -38 -13 -51t-51 -13h-49q-38 0 -51 13t-13 51v542q-136 -172 -340 -172q-105 0 -196 43q-89 42 -146 114 q-56 70 -88 166q-31 92 -31 196zM286 508q0 -66 10 -122q10 -58 35 -110q24 -52 60 -89q35 -36 88 -59q51 -22 116 -22q80 0 150 38q68 37 109 101t41 138v236q0 65 -27 119q-28 55 -70 89q-45 36 -94 53q-51 18 -102 18q-62 0 -115 -21q-50 -20 -89 -59t-63 -86 q-25 -48 -37 -106q-12 -57 -12 -118z" />
<glyph unicode="r" horiz-adv-x="752" d="M158 65v877q0 38 13 51t51 13h51q38 0 51 -13q14 -14 14 -51v-87h1q40 77 117 126q75 48 165 48q15 0 25 -1q39 -3 51 -20t12 -58v-43q0 -27 -7 -37q-8 -11 -25 -11q-14 0 -29 4q-37 10 -72 10q-98 0 -168 -72q-70 -71 -70 -183v-553q0 -37 -14 -51t-51 -14h-51 q-37 0 -51 14q-13 13 -13 51z" />
<glyph unicode="s" horiz-adv-x="962" d="M85 226q0 21 34 36l6 3q21 10 34 10q20 0 41 -30q48 -66 113 -101t160 -35q41 0 79 9t71 27t52 49t19 73q0 19 -4 34q-5 18 -10 28q-8 16 -18 25q-9 8 -23 20q-12 10 -30 18q-7 3 -34 15q-4 2 -10 4t-16 5t-16 5q-38 13 -43 14l-49 14q-58 16 -91 28q-45 16 -77 31 q-40 19 -65 39q-29 24 -47 47q-20 26 -31 62q-10 33 -10 77q0 57 21 107q20 48 57 83q38 37 83 59q48 24 100 36q48 11 109 11q116 0 202 -51q84 -50 136 -148q10 -17 10 -29q0 -21 -35 -36l-5 -2q-19 -8 -31 -8q-19 0 -41 31q-81 115 -226 115q-36 0 -72 -9t-66 -27 q-33 -19 -49 -47q-18 -30 -18 -67q0 -61 60 -95q38 -23 161 -58q1 -1 25 -7v-1h1h1h1h1l1 -1h1h1h1l1 -1h1h1v-1h1h1h1q62 -17 113 -37t88 -43q41 -26 66 -55q26 -30 39 -70q14 -42 14 -91q0 -64 -23 -118q-23 -53 -62 -89q-40 -37 -90 -60q-58 -27 -109 -36 q-60 -11 -117 -11q-68 0 -131 17q-58 15 -108 48q-43 28 -80 68q-35 38 -60 84q-10 19 -10 32z" />
<glyph unicode="t" horiz-adv-x="726" d="M43 944v6q0 33 12 45q11 11 45 11h113v199q0 38 13 51t51 13h49q38 0 51 -13q14 -14 14 -51v-199h193q33 0 44 -11q12 -12 12 -45v-6q0 -33 -12 -45t-44 -12h-193v-622q0 -83 32 -125q33 -44 110 -44q37 0 85 21q15 7 27 7q10 0 16 -7q7 -8 11 -24l2 -6q4 -13 4 -28 t-7 -23q-7 -9 -26 -18q-82 -41 -171 -41q-124 0 -193 69q-68 68 -68 202v639h-113q-33 0 -45 12t-12 45z" />
<glyph unicode="u" d="M146 435v507q0 37 14 51q13 13 51 13h49q38 0 51 -13t13 -51v-560q0 -63 11 -112q11 -48 34 -81q24 -34 67 -51t103 -17q72 0 139 38q65 37 105 103t40 138v542q0 38 13 51t51 13h50q38 0 51 -13q14 -14 14 -51v-877q0 -37 -14 -51t-51 -14h-50q-37 0 -51 14 q-13 13 -13 51v99l-1 1q-55 -86 -145 -137t-196 -51q-57 0 -109 13q-46 12 -83 34q-33 20 -60 55t-41 70q-17 42 -25 86q-10 56 -13 95q-4 62 -4 105z" />
<glyph unicode="v" horiz-adv-x="1000" d="M37 979q0 27 48 27h71q42 0 57 -11q17 -13 32 -49l275 -698l277 698q15 36 32 49q15 11 56 11h31q47 0 47 -28q0 -12 -8 -31l-374 -895q-14 -32 -28 -42t-49 -10h-6q-33 0 -50 10q-14 9 -28 42l-375 895q-8 19 -8 32z" />
<glyph unicode="w" horiz-adv-x="1539" d="M45 976q0 30 50 30h62q42 0 57 -11q16 -11 28 -50l218 -670l250 684q10 29 24 38t45 9h6q33 0 45 -8q14 -9 24 -39l256 -685l220 671q12 39 28 50q15 11 56 11h31q49 0 49 -30q0 -12 -6 -30l-314 -896q-11 -31 -24 -40q-15 -10 -46 -10h-6q-32 0 -46 9t-26 40l-265 675 l-250 -675q-11 -30 -25 -40q-14 -9 -45 -9h-6q-31 0 -46 10q-12 8 -23 39l-314 897q-7 21 -7 30z" />
<glyph unicode="x" horiz-adv-x="1060" d="M51 19q0 13 15 32l362 470l-321 434q-15 19 -15 32q0 19 41 19h93q42 0 60 -9q19 -9 42 -43l219 -304l220 304q23 33 43 43q18 9 60 9h47q41 0 41 -19q0 -11 -15 -32l-308 -406l365 -497q15 -21 15 -32q0 -20 -41 -20h-94q-42 0 -60 9q-19 9 -42 43l-263 367l-270 -367 q-23 -33 -43 -43q-18 -9 -60 -9h-50q-41 0 -41 19z" />
<glyph unicode="y" horiz-adv-x="1004" d="M39 979q0 27 48 27h73q42 0 57 -11q18 -13 31 -49l261 -674l274 675q14 36 33 48q17 11 57 11h45q48 0 48 -28q0 -12 -8 -31l-415 -994q-13 -30 -34 -81q-4 -9 -34 -72q-18 -38 -36 -67q-25 -41 -37 -57q-23 -30 -44 -50q-13 -12 -49 -40q-24 -19 -57 -32q-23 -9 -66 -20 q-35 -9 -78 -12q-29 -3 -40 8t-11 41v6q0 29 11 40q10 10 40 16q33 7 68 26q30 16 67 55q35 37 69 97q38 68 67 145l36 97l-368 894q-8 19 -8 32z" />
<glyph unicode="z" horiz-adv-x="989" d="M66 36v6q0 21 4 35q3 10 18 31l566 779h-487q-34 0 -46 12t-12 45v6q0 33 12 45q11 11 46 11h694q22 0 29 -7t7 -29v-6q0 -26 -3 -36q-2 -8 -18 -30l-566 -778h538q33 0 45 -12t12 -45v-6q0 -33 -12 -45t-45 -12h-745q-22 0 -29 7q-8 8 -8 29z" />
<glyph unicode="{" horiz-adv-x="639" d="M59 577v6q0 26 9 35t37 17q30 7 53 29q22 20 34 48q13 29 20 66q7 39 9 76q2 48 2 86v192q0 87 13 157q11 62 35 104q23 42 65 64q43 23 90 32q51 10 121 11q29 0 38 -9q10 -10 10 -37v-6q0 -27 -10 -37q-9 -9 -37 -12q-48 -4 -82 -22q-30 -16 -49 -51q-17 -32 -25 -78 q-7 -42 -7 -113v-241q0 -137 -37 -210q-38 -74 -139 -105v-1q79 -19 128 -86q47 -65 47 -155v-309q0 -54 4 -87q4 -37 15 -70q9 -29 30 -55q17 -21 47 -37q27 -14 68 -19q27 -3 37 -13t10 -36v-7q0 -28 -10 -37q-11 -9 -37 -9q-82 3 -147 21q-58 16 -100 55t-59 98 q-18 62 -18 152v240q0 31 -2 77q-1 34 -9 73q-7 38 -20 68q-11 26 -35 50q-23 23 -53 32q-29 10 -37 18q-9 9 -9 35z" />
<glyph unicode="|" horiz-adv-x="502" d="M173 -409v1859q0 28 10 38t38 10h60q28 0 38 -10t10 -38v-1859q0 -28 -10 -38t-38 -10h-60q-28 0 -38 10t-10 38z" />
<glyph unicode="}" horiz-adv-x="638" d="M44 -289q0 26 10 36t37 13q41 5 68 19q30 16 47 37q21 26 30 55q11 33 15 70q4 33 4 87v309q0 90 47 155q49 67 128 86v1q-101 31 -139 105q-37 73 -37 210v241q0 71 -7 113q-8 46 -25 78q-19 35 -49 51q-34 18 -82 22q-28 3 -37 12q-10 10 -10 37v6q0 27 10 37q9 9 38 9 q70 -1 121 -11q47 -9 90 -32q42 -22 65 -64q24 -42 35 -104q13 -70 13 -157v-192q0 -30 2 -72t5 -65q5 -41 12 -60q9 -25 21 -48t32 -38q18 -14 45 -22q28 -7 38 -17q9 -9 9 -35v-6q0 -26 -9 -35t-38 -18q-36 -12 -62 -42q-23 -27 -36 -75q-11 -42 -16 -87q-4 -37 -4 -96 v-240q0 -90 -18 -152q-17 -59 -59 -98t-100 -55q-65 -18 -147 -21q-27 0 -37 9t-10 37v7z" />
<glyph unicode="~" horiz-adv-x="1287" d="M128 530q21 149 98 231q75 80 180 80q67 0 129 -20t102 -46q33 -21 78 -55q38 -29 75 -47q38 -19 76 -19q50 0 83 34q32 33 50 104q6 25 16 33t34 8h89q24 0 31 -9q8 -10 5 -33q-21 -149 -97 -230q-75 -80 -181 -80q-70 0 -128 19t-102 47q-24 16 -79 55q-43 31 -75 47 q-38 19 -75 19q-50 0 -83 -34q-32 -34 -50 -105q-6 -22 -16 -31q-10 -8 -34 -8h-89q-25 0 -32 9q-8 9 -5 31z" />
<glyph unicode="&#xa1;" horiz-adv-x="524" d="M146 994q0 48 33 82t82 34t83 -34q35 -35 35 -82q0 -48 -35 -81t-83 -33q-50 0 -82 32q-33 33 -33 82zM166 -282l1 106q3 250 12 433q9 184 27 404q3 28 14 39q10 10 39 10h6q29 0 39 -10q11 -11 14 -39q34 -424 39 -837l1 -106q0 -43 -14 -57q-15 -15 -57 -15h-50 q-42 0 -57 15q-14 14 -14 57z" />
<glyph unicode="&#xa2;" horiz-adv-x="1074" d="M80 692q0 141 51 255q51 113 150 187q97 72 232 89v123q0 36 13 49t50 13h6q36 0 49 -13t13 -49v-123q111 -12 188 -66q80 -56 128 -147q11 -20 11 -33q0 -21 -36 -39l-5 -3q-20 -10 -32 -10q-20 0 -41 32q-91 139 -256 139q-149 0 -240 -105q-91 -104 -91 -288 q0 -75 22 -149q21 -70 61 -125t103 -88q61 -32 143 -32q86 0 154 37q69 38 118 106q18 25 34 25q11 0 30 -11l5 -3q30 -19 30 -37q0 -11 -10 -29q-48 -95 -126 -148q-83 -57 -190 -70v-122q0 -37 -13 -50t-49 -13h-6q-37 0 -50 13t-13 50v121q-202 21 -317 160 q-116 140 -116 354z" />
<glyph unicode="&#xa3;" horiz-adv-x="1175" d="M91 702v6q0 32 12 44t44 12h123q-23 121 -23 199q0 138 57 243q58 107 159 164q103 58 237 58q266 0 371 -250q7 -17 7 -30q0 -22 -35 -42l-5 -3q-22 -11 -33 -11q-18 0 -38 32q-21 37 -44 66q-18 23 -52 52q-30 26 -69 39q-40 14 -86 14q-60 0 -110 -18q-46 -17 -87 -56 q-37 -36 -59 -103q-21 -64 -21 -155q0 -79 21 -199h264q32 0 44 -12t12 -44v-6q0 -33 -12 -45t-44 -12h-245q14 -104 14 -182q0 -94 -30 -167q-31 -75 -92 -151h621q39 0 52 -14t13 -55v-7q-1 -41 -16 -55q-14 -14 -56 -14h-837q-25 0 -34 9q-10 10 -10 35v6q0 25 8 36 q9 13 31 25q163 93 163 365q0 80 -15 169h-144q-32 0 -44 12t-12 45z" />
<glyph unicode="&#xa4;" horiz-adv-x="1322" d="M149 284q0 14 21 34l118 115q-84 117 -84 261q0 150 85 268l-120 117q-20 20 -20 33q0 14 20 34l41 41q19 19 33 19t34 -19l118 -119q120 87 266 87t266 -85l116 117q19 19 34 19t34 -19l42 -42q19 -19 19 -33t-19 -33l-118 -115q87 -120 87 -270q0 -144 -87 -263 l118 -113q20 -19 20 -34q0 -13 -20 -33l-42 -43q-19 -19 -34 -19t-34 19l-115 118q-124 -86 -267 -86q-149 0 -268 86l-116 -118q-19 -19 -34 -19q-14 0 -33 19l-42 43q-19 19 -19 33zM360 695q0 -81 39 -148q39 -68 109 -109t153 -41q57 0 114 23q54 22 97 62q40 37 67 96 q25 54 25 117q0 80 -40 151q-40 72 -109 111q-71 41 -154 41q-59 0 -115 -24q-60 -26 -97 -63q-42 -42 -65 -97q-24 -57 -24 -119z" />
<glyph unicode="&#xa5;" horiz-adv-x="1265" d="M87 1375q0 27 50 27h63q46 0 65 -12t40 -52l332 -619l351 620q21 38 42 51q20 12 66 12h35q48 0 48 -26q0 -13 -13 -36l-365 -631h182q30 0 41 -11t11 -41v-6q0 -31 -11 -42t-41 -11h-247l-19 -33v-122h266q30 0 41 -11t11 -41v-6q0 -31 -11 -42t-41 -11h-266v-260 q0 -42 -15 -57t-57 -15h-49q-42 0 -57 15t-15 57v260h-247q-31 0 -42 11t-11 42v6q0 30 11 41t42 11h247v121l-18 34h-229q-31 0 -42 11t-11 42v6q0 30 11 41t42 11h168l-345 630q-13 24 -13 36z" />
<glyph unicode="&#xa6;" horiz-adv-x="459" d="M152 283q0 28 10 38t38 10h59q28 0 38 -10t10 -38v-580q0 -28 -10 -38t-38 -10h-59q-28 0 -38 10t-10 38v580zM152 758v580q0 28 10 38t38 10h59q28 0 38 -10t10 -38v-580q0 -28 -10 -38t-38 -10h-59q-28 0 -38 10t-10 38z" />
<glyph unicode="&#xa7;" horiz-adv-x="1047" d="M95 584q0 56 17 104q16 44 51 81q34 36 69 59t86 48q-174 99 -174 266q0 69 23 129q23 59 61 99q39 40 90 68q50 27 112 40q63 13 123 13q109 0 197 -58q86 -57 132 -144q11 -22 11 -33q0 -24 -42 -42l-5 -2q-22 -9 -35 -9t-24 9q-12 10 -24 29q-34 52 -90 85 q-53 32 -116 32q-42 0 -81 -12q-43 -13 -72 -34q-32 -22 -51 -60q-19 -37 -19 -83q0 -30 8 -57q7 -25 24 -46q16 -21 33 -36q14 -13 45 -30q9 -5 49 -25q21 -11 54 -24q2 -1 6 -2t5 -2q1 0 4 -1.5l5 -2.5q6 -3 9 -4q156 -68 218 -108q113 -71 146 -161q16 -44 16 -97 q0 -97 -58 -171q-59 -76 -151 -122q79 -44 120 -117q41 -74 41 -158q0 -85 -34 -153q-36 -71 -91 -115q-57 -45 -132 -69q-78 -25 -158 -25q-126 0 -224 62q-96 60 -143 164q-9 21 -9 33q0 14 10 24q9 9 33 20l5 2q21 9 33 9t24 -10q11 -10 23 -30q38 -63 98 -100 q62 -38 141 -38q98 0 164 54q65 53 65 148q0 19 -5 41t-12 37q-8 18 -22 33q-3 4 -11.5 13.5t-13.5 14.5q-11 11 -33 25q-28 18 -34 22q-11 7 -38 20q-17 8 -37 18q-4 2 -17.5 8t-21.5 9q-9 4 -20.5 9t-14.5 6q-121 53 -175 87q-130 81 -156 196q-7 28 -7 64zM271 638 q0 -37 7 -61q9 -31 24 -52q17 -24 51 -49q30 -22 85 -46l201 -91q139 78 139 183q0 132 -162 206l-193 86q-71 -42 -91 -59q-61 -51 -61 -117z" />
<glyph unicode="&#xa8;" horiz-adv-x="874" d="M132 1322q0 45 32 76t78 31t75 -30q29 -31 29 -77t-29 -77q-28 -30 -75 -30q-44 0 -78 31q-32 29 -32 76zM527 1322q0 45 31 76t77 31t76 -31q30 -32 30 -76q0 -46 -30 -76q-31 -31 -76 -31q-44 0 -77 31q-31 30 -31 76z" />
<glyph unicode="&#xa9;" horiz-adv-x="1690" d="M93 728q0 156 59 293t161 239q100 100 240 160q137 59 292 59q156 0 293 -59q140 -60 240 -160q102 -102 161 -239t59 -293t-59 -293q-60 -140 -161 -241t-240 -161q-137 -59 -293 -59q-155 0 -292 59q-139 60 -240 161t-161 241q-59 137 -59 293zM214 728 q0 -136 49 -253q50 -119 133 -204q84 -85 201 -135q116 -49 248 -49t248 49q119 50 202 135t133 204q49 117 49 253q0 134 -49 251q-49 118 -133 203q-82 83 -202 134q-118 50 -248 50t-248 -50q-119 -50 -201 -134q-84 -85 -133 -203q-49 -117 -49 -251zM461 728 q0 87 26 170q25 79 74 145q48 64 124 103q75 38 171 38q60 0 112 -14q57 -15 105 -43q49 -28 86 -74q39 -48 53 -104q6 -21 -2 -30t-31 -9h-63q-23 0 -33 8q-9 8 -18 31q-23 59 -77 90q-56 32 -132 32q-108 0 -174 -92q-66 -91 -66 -251q0 -159 63 -249q62 -89 177 -89 q76 0 129 36q56 38 80 102q9 25 18 32q10 8 33 8h63q23 0 31 -9q8 -10 4 -32q-25 -117 -126 -188q-100 -70 -232 -70q-95 0 -173 35q-76 34 -124 97q-47 62 -73 146q-25 81 -25 181z" />
<glyph unicode="&#xaa;" horiz-adv-x="787" d="M92 941q0 50 20 92q19 40 52 65q31 24 77 41q43 16 89 22q45 6 95 6q57 0 110 -7v23q0 71 -39 114t-116 43q-42 0 -88 -22t-79 -58q-18 -18 -30 -18q-11 0 -23 8l-5 4q-21 12 -21 24q0 8 8 22q40 63 106 98q68 36 146 36q145 0 206 -70t61 -209v-361q0 -24 -8 -32 q-9 -9 -33 -9h-44q-24 0 -33 9q-8 8 -8 32v51q-79 -106 -203 -106q-67 0 -120 22t-87 70q-33 47 -33 110zM226 950q0 -59 39 -92t98 -33q24 0 56 13t56 34q28 25 43 57q17 37 17 77v70q-59 9 -117 9q-20 0 -54 -4q-21 -3 -51 -13q-26 -9 -45 -25t-30 -38q-12 -24 -12 -55z " />
<glyph unicode="&#xab;" horiz-adv-x="1040" d="M62 524q0 15 20 44l235 332q23 31 35 37q14 7 51 7h68q36 0 36 -18q0 -11 -11 -28l-242 -374l242 -376q11 -19 11 -28q0 -18 -36 -18h-68q-35 0 -51 8q-13 7 -35 36l-235 333q-20 28 -20 45zM479 524q0 16 19 44l236 332q22 30 36 37t50 7h68q36 0 36 -18q0 -11 -11 -28 l-241 -374l241 -376q11 -19 11 -28q0 -18 -36 -18h-68q-34 0 -50 8q-15 8 -36 36l-236 333q-19 26 -19 45z" />
<glyph unicode="&#xac;" horiz-adv-x="1319" d="M129 695v76q0 28 10 38t38 10h935q28 0 38 -10t10 -38v-526q0 -28 -10 -38t-38 -10h-89q-28 0 -38 10t-10 38v402h-798q-28 0 -38 10t-10 38z" />
<glyph unicode="&#xad;" horiz-adv-x="797" d="M141 514v76q0 25 8 33q9 9 33 9h434q23 0 32 -9t9 -33v-76q0 -24 -9 -33q-8 -8 -32 -8h-434q-25 0 -33 8t-8 33z" />
<glyph unicode="&#xae;" horiz-adv-x="1104" d="M90 1018q0 125 62 232q62 106 168 168q106 61 232 61q94 0 180 -36t148 -98t98 -147q36 -86 36 -180q0 -126 -61 -232t-168 -169t-233 -63q-95 0 -179 37q-87 38 -148 99q-63 63 -99 148q-36 86 -36 180zM178 1018q0 -78 29 -150q27 -68 79 -121q47 -49 119 -80 q69 -30 147 -30t147 30q72 31 119 80q52 53 79 121q30 74 30 150q0 104 -50 192q-49 86 -135 136t-190 50q-103 0 -189 -50q-87 -51 -136 -136q-49 -86 -49 -192zM374 807v443q0 23 9 32t32 9h148q109 0 158 -39q50 -39 50 -115q0 -118 -109 -145l97 -195q6 -12 6 -21 q0 -16 -29 -16h-29q-27 0 -37 7q-12 9 -22 30l-86 182h-88v-172q0 -27 -10 -37t-37 -10h-6q-27 0 -37 10t-10 37zM474 1057h74q65 0 96 20q29 19 29 60q0 43 -30 59q-31 17 -97 17h-72v-156z" />
<glyph unicode="&#xaf;" horiz-adv-x="897" d="M150 1293v48q0 24 9 33t32 9h514q24 0 33 -9t9 -33v-48q0 -23 -9 -32t-33 -9h-514q-23 0 -32 9t-9 32z" />
<glyph unicode="&#xb0;" horiz-adv-x="777" d="M84 1171q0 82 40 152t112 111q71 41 153 41t153 -41q70 -40 111 -111t41 -152q0 -83 -41 -154t-111 -111q-71 -41 -153 -41q-126 0 -216 90q-89 89 -89 216zM199 1171q0 -80 55 -135t135 -55q79 0 134 55t55 135q0 79 -55 134t-134 55q-80 0 -135 -55t-55 -134z" />
<glyph unicode="&#xb1;" horiz-adv-x="1300" d="M135 57v76q0 29 9 38q10 10 38 10h936q28 0 38 -10t10 -38v-76q0 -28 -10 -38t-38 -10h-936q-28 0 -38 10q-9 9 -9 38zM135 723v74q0 29 9 38q10 10 38 10h377v318q0 28 10 38t38 10h87q28 0 38 -10t10 -38v-318h376q28 0 38 -10t10 -38v-74q0 -28 -10 -38t-38 -10h-376 v-324q0 -28 -10 -38q-9 -9 -38 -9h-87q-29 0 -38 9q-10 10 -10 38v324h-377q-28 0 -38 10q-9 9 -9 38z" />
<glyph unicode="&#xb2;" horiz-adv-x="744" d="M79 898v6q0 29 4 40q3 9 25 32l301 316q26 27 44 49q16 19 29 50q14 33 14 64q0 61 -39 102t-100 41q-51 0 -93 -33q-44 -34 -67 -84q-11 -23 -23 -31q-11 -8 -37 -5l-6 1q-38 5 -38 29q0 10 3 19q28 102 101 153q71 50 173 50q116 0 193 -63t77 -174q0 -86 -57 -158 q-14 -18 -72 -79l-252 -260h365q25 0 33 -8t8 -33v-26q0 -24 -8 -32q-9 -9 -33 -9h-503q-25 0 -34 9q-8 8 -8 34z" />
<glyph unicode="&#xb3;" horiz-adv-x="759" d="M80 1049q0 21 36 31l6 2q18 4 22 4q12 0 22 -8q7 -6 18 -25q30 -51 77 -80t103 -29q71 0 120 35q48 34 48 104q0 74 -54 119q-53 44 -139 44h-4q-27 0 -36 9q-10 10 -10 37v6q0 25 10 35t36 10h6q72 0 117 33t45 97q0 56 -38 92q-36 35 -93 35q-110 0 -168 -103 q-14 -21 -18 -25q-8 -7 -21 -7q-4 0 -22 4l-6 1q-18 4 -27 12q-8 7 -8 19q0 5 5 22q32 83 101 130q70 47 171 47q71 0 129 -24q59 -24 97 -74t38 -120q0 -64 -35 -111q-35 -46 -94 -72q73 -21 117 -82t44 -138q0 -62 -26 -109q-25 -46 -70 -74q-41 -26 -97 -40 q-54 -14 -111 -14q-100 0 -177 50q-76 49 -109 134q-5 11 -5 23z" />
<glyph unicode="&#xb4;" horiz-adv-x="497" d="M67 1190q0 7 8 21l154 251q15 24 24 29q12 6 38 6h138q25 0 25 -11q0 -8 -10 -21l-220 -258q-17 -21 -29 -26q-13 -5 -38 -5h-62q-28 0 -28 14z" />
<glyph unicode="&#xb5;" horiz-adv-x="1270" d="M194 -409v1368q0 29 9 38t38 9h60q29 0 38 -9q10 -10 10 -38v-558q0 -124 61 -197q62 -74 176 -74q96 0 166 59q67 57 102 161q34 101 34 240v369q0 28 10 38q9 9 38 9h61q29 0 38 -9q10 -10 10 -38v-568q0 -16 0.5 -36.5t0.5 -24.5q0 -30 1 -52q1 -30 5 -50q1 -8 10 -40 q6 -23 16 -37q9 -12 24 -26q1 0 2.5 -2.5t3.5 -3.5q15 -12 22 -19q5 -5 10 -17q4 -9 4 -29v-29q0 -29 -10 -39t-38 -5q-49 8 -85 30q-34 21 -58 58q-23 36 -35 72q-13 41 -20 85h-1q-45 -121 -126 -185q-80 -64 -184 -64q-71 0 -130 28q-56 27 -109 87v-501q0 -29 -9 -38 q-10 -10 -39 -10h-59q-28 0 -38 10q-9 9 -9 38z" />
<glyph unicode="&#xb6;" horiz-adv-x="1335" d="M67 1022q0 213 137 322t383 109h501q24 0 33 -9q8 -8 8 -33v-1689q0 -25 -8 -33q-9 -9 -33 -9h-77q-23 0 -32 9t-9 33v1599h-266v-1599q0 -25 -8 -33q-9 -9 -33 -9h-76q-24 0 -33 9q-8 8 -8 33v882q-103 0 -193 33q-87 32 -152 89q-60 53 -98 133q-36 77 -36 163z" />
<glyph unicode="&#xb7;" horiz-adv-x="509" d="M138 596q0 48 34 81t83 33t82 -33t33 -81q0 -49 -33 -82t-82 -33q-50 0 -83 33q-34 34 -34 82z" />
<glyph unicode="&#xb8;" horiz-adv-x="527" d="M64 -386q0 7 5 22l9 24q8 24 23 24q5 0 20 -5q49 -18 92 -18q38 0 67 16q27 15 27 50q0 27 -24 48t-54 30q-33 10 -64 14q-24 3 -24 14q0 7 6 17l90 150h115l-75 -117q40 0 79 -17t63 -50q25 -34 25 -77q0 -47 -18 -81q-18 -35 -52 -55q-29 -17 -73 -29q-37 -10 -85 -10 q-70 0 -128 24q-24 10 -24 26z" />
<glyph unicode="&#xb9;" horiz-adv-x="511" d="M44 1494q0 15 24 32l196 137q26 17 30 18q10 3 35 3h6q20 0 28 -8t8 -28v-749q0 -24 -9 -33q-8 -8 -33 -8h-57q-24 0 -32 8q-9 9 -9 33v617l-114 -69q-16 -10 -28 -10q-16 0 -31 24l-3 5q-11 17 -11 28z" />
<glyph unicode="&#xba;" horiz-adv-x="848" d="M88 1080q0 104 39 183q38 78 117 125q77 46 185 46q75 0 139 -26q63 -26 105 -72q43 -48 65 -109q23 -64 23 -135q0 -106 -38 -183q-39 -80 -117 -125t-184 -45q-157 0 -245 94q-89 95 -89 247zM224 1088q0 -57 11 -100q13 -49 35 -84q25 -40 63 -60q39 -21 92 -21 q91 0 146 67t55 197q0 53 -12 99q-12 47 -35 83q-24 37 -63 58q-41 22 -91 22t-91 -22q-39 -21 -63 -58q-22 -34 -35 -83q-12 -45 -12 -98z" />
<glyph unicode="&#xbb;" horiz-adv-x="1040" d="M117 120q0 9 11 28l241 376l-241 374q-11 17 -11 28q0 18 36 18h68q36 0 50 -7t36 -37l235 -332q19 -26 19 -44q0 -19 -19 -45l-235 -333q-21 -28 -36 -36q-16 -8 -50 -8h-68q-36 0 -36 18zM533 120q0 9 11 28l242 376l-242 374q-11 17 -11 28q0 18 37 18h68q37 0 51 -7 q12 -6 35 -37l235 -332q19 -26 19 -44q0 -19 -19 -45l-235 -333q-22 -29 -35 -36q-16 -8 -51 -8h-68q-37 0 -37 18z" />
<glyph unicode="&#xbc;" horiz-adv-x="1506" d="M75 1259q0 15 23 31l196 137q26 16 31 18q11 3 34 3h7q20 0 28 -8q7 -7 7 -28v-749q0 -25 -8 -33t-33 -8h-57q-25 0 -33 8t-8 33v618l-114 -69q-19 -11 -28 -11q-15 0 -30 24l-4 6q-11 19 -11 28zM222 -39q0 7 8 21l839 1488q14 23 24 29q11 6 37 6h63q29 0 29 -14 q0 -7 -8 -21l-839 -1488q-14 -23 -24 -29q-11 -6 -37 -6h-63q-29 0 -29 14zM794 239v6q0 22 4 36q2 8 17 31l333 484q16 23 27 28q12 6 37 6h57q25 0 33 -8q9 -9 9 -33v-482h76q23 0 32 -9t9 -33v-22q0 -23 -9 -32t-32 -9h-76v-157q0 -23 -9 -32t-33 -9h-54q-23 0 -32 9 t-9 32v157h-343q-21 0 -29 8t-8 29zM942 307h232l1 344z" />
<glyph unicode="&#xbd;" horiz-adv-x="1598" d="M74 1259q0 15 24 31l196 137q26 17 30 18q11 3 35 3h6q20 0 28 -8t8 -28v-749q0 -24 -9 -33q-8 -8 -33 -8h-57q-24 0 -32 8q-9 9 -9 33v618l-114 -69q-19 -11 -27 -11q-16 0 -31 24l-4 6q-11 19 -11 28zM222 -39q0 8 7 21l838 1488q14 23 24 29q11 6 38 6h63q28 0 28 -14 q0 -8 -7 -21l-838 -1488q-14 -23 -24 -29q-11 -6 -38 -6h-63q-28 0 -28 14zM925 44v6q0 29 4 40q3 9 25 32l301 316q21 22 33 36q10 12 26 36q16 25 21 43q6 23 6 48q0 61 -39 102q-39 40 -99 40q-53 0 -94 -32q-42 -33 -66 -84q-11 -23 -23 -31q-10 -7 -36 -4h-6 q-19 3 -30 10q-8 5 -8 20q0 8 3 19q29 104 99 152q73 50 173 50q76 0 136 -27q58 -26 97 -82q37 -53 37 -128q0 -38 -9 -69q-9 -32 -27 -59q-21 -32 -35 -48q-18 -21 -45 -48l-12 -13l-253 -260h366q24 0 32 -8q9 -9 9 -33v-25q0 -24 -9 -33q-8 -8 -32 -8h-503q-26 0 -34 8 t-8 34z" />
<glyph unicode="&#xbe;" horiz-adv-x="1672" d="M85 812q0 22 35 32l7 1q18 4 22 4q14 0 22 -7q7 -6 18 -25q30 -51 77 -80t103 -29q71 0 120 35q47 34 47 104q0 76 -52 119q-53 44 -140 44h-4q-27 0 -36 9q-10 10 -10 36v6q0 26 10 36t36 10h6q72 0 117 33t45 98q0 55 -38 91q-36 35 -93 35q-108 0 -167 -103 q-9 -16 -19 -24q-8 -7 -21 -7q-10 0 -22 3l-6 1q-18 4 -27 12q-8 7 -8 18q0 12 5 23q30 82 101 130q70 47 170 47q52 0 100 -14q41 -12 84 -41q36 -24 59 -68q22 -41 22 -95q0 -63 -35 -110q-37 -49 -94 -74q73 -21 117 -81q44 -61 44 -138q0 -47 -18 -91q-16 -38 -46 -67 q-28 -27 -68 -45q-40 -19 -83 -26q-46 -8 -90 -8q-99 0 -176 50q-76 49 -109 134q-5 11 -5 22zM396 -39q0 7 8 21l838 1488q14 23 24 29t37 6h64q28 0 28 -14q0 -8 -7 -21l-839 -1488q-14 -23 -24 -29q-11 -6 -37 -6h-63q-29 0 -29 14zM968 239v6q0 25 3 36q2 5 18 31 l333 484q17 23 26 28q12 6 38 6h57q24 0 32 -8q9 -9 9 -33v-482h77q23 0 32 -9t9 -33v-22q0 -23 -9 -32t-32 -9h-77v-157q0 -23 -9 -32t-32 -9h-54q-23 0 -32 9t-9 32v157h-343q-22 0 -30 8q-7 7 -7 29zM1116 307h232l1 344z" />
<glyph unicode="&#xbf;" horiz-adv-x="983" d="M87 -29q0 36 6 69q6 32 15 58q9 27 27 53q26 39 32 47q11 15 42 44q8 7 23 22t21 20q5 4 12 10.5t18.5 16t19.5 16.5q39 33 75 67q19 18 45 61q21 35 32 82q11 46 21 124q4 27 16 39q10 10 40 10h6q30 0 40 -10t13 -39q7 -71 7 -118q0 -34 -5 -71q-4 -32 -17 -62 q-10 -24 -25 -50q-14 -24 -35 -48q-24 -27 -42 -45q-28 -28 -51 -49q-27 -26 -43 -40q-12 -11 -36 -40q-22 -26 -32 -47q-9 -19 -19 -51q-9 -30 -9 -62q0 -97 66 -158q64 -60 166 -60q185 0 274 191q12 25 23 36t28 11q13 0 30 -6l6 -2q29 -8 39 -17q11 -10 11 -27 q0 -16 -5 -30q-44 -142 -151 -219q-108 -78 -271 -78q-64 0 -126 14q-61 14 -113 42q-49 27 -91 70q-38 40 -61 99q-22 57 -22 127zM420 994q0 49 33 82t82 33t83 -34q35 -35 35 -81q0 -48 -35 -81q-34 -33 -83 -33q-50 0 -82 32q-33 33 -33 82z" />
<glyph unicode="&#xc0;" horiz-adv-x="1400" d="M15 29q0 16 10 36l607 1343q12 27 26 36t44 9h6q30 0 43 -9q14 -9 25 -36l595 -1342q10 -23 10 -36q0 -30 -53 -30h-68q-46 0 -64 12t-37 54l-143 335h-668l-143 -335q-19 -42 -37 -54t-64 -12h-37q-52 0 -52 29zM353 1815q0 16 40 16h92q47 0 67 -10t50 -46l119 -147 q18 -22 18 -35q0 -22 -46 -22h-6q-49 0 -71 8q-19 7 -58 41l-183 163q-22 21 -22 32zM406 534h552l-271 659z" />
<glyph unicode="&#xc1;" horiz-adv-x="1400" d="M14 29q0 16 10 36l608 1343q12 27 25 36t44 9h6q29 0 43 -9t25 -36l596 -1342q10 -23 10 -36q0 -30 -53 -30h-69q-46 0 -64 12q-17 11 -36 54l-144 335h-668l-143 -335q-19 -42 -37 -54t-63 -12h-38q-52 0 -52 29zM406 534h551l-271 659zM666 1588q0 12 19 37l118 146 q30 36 50 46t67 10h91q41 0 41 -16q0 -11 -22 -32l-183 -163q-39 -34 -58 -41q-22 -8 -71 -8h-6q-46 0 -46 21z" />
<glyph unicode="&#xc2;" horiz-adv-x="1399" d="M14 29q0 18 9 36l608 1343q12 27 26 36q13 9 43 9h7q29 0 43 -9t25 -36l595 -1342q10 -23 10 -36q0 -30 -53 -30h-69q-45 0 -63 12t-37 54l-144 335h-667l-144 -335q-19 -43 -36 -54q-18 -12 -64 -12h-37q-52 0 -52 29zM405 534h552l-271 659zM432 1588q0 14 21 38 l129 147q32 37 51 45q21 9 66 9h6q47 0 67 -9q19 -9 51 -44l132 -148q22 -25 22 -38q0 -21 -48 -21h-6q-50 0 -74 11q-25 11 -56 50l-88 107l-91 -109q-33 -39 -55 -49q-21 -10 -74 -10h-6q-47 0 -47 21z" />
<glyph unicode="&#xc3;" horiz-adv-x="1400" d="M14 29q0 16 10 36l608 1343q12 27 25 36t44 9h6q29 0 43 -9t25 -36l596 -1342q10 -23 10 -36q0 -30 -53 -30h-69q-46 0 -64 12q-17 11 -36 54l-144 335h-668l-143 -335q-19 -42 -37 -54t-63 -12h-38q-52 0 -52 29zM406 534h551l-271 659zM442 1614q0 4 3 19q17 80 58 121 q43 43 93 43q34 0 62 -11q27 -10 44 -26q22 -20 31 -30q11 -13 29 -25q16 -11 32 -11q36 0 53 47q10 31 22 41q11 10 42 10h6q25 0 36 -8t11 -25q0 -9 -2 -19q-17 -79 -59 -121t-93 -42q-33 0 -61 11q-29 11 -44 25q-17 15 -31 31q-11 13 -29 25q-16 11 -32 11 q-36 0 -53 -47q-10 -29 -23 -41q-11 -10 -41 -10h-6q-25 0 -36 7q-12 7 -12 25z" />
<glyph unicode="&#xc4;" horiz-adv-x="1399" d="M14 29q0 18 9 36l608 1343q12 27 26 36q13 9 43 9h7q29 0 43 -9t25 -36l595 -1342q10 -23 10 -36q0 -30 -53 -30h-69q-45 0 -63 12t-37 54l-144 335h-667l-144 -335q-19 -43 -36 -54q-18 -12 -64 -12h-37q-52 0 -52 29zM400 1681q0 43 33 75q32 31 78 31q45 0 74 -30 q29 -31 29 -76q0 -46 -29 -77t-74 -31q-46 0 -78 31q-33 31 -33 77zM405 534h552l-271 659zM795 1681q0 44 31 75t77 31t76 -30t30 -76q0 -47 -30 -77q-31 -31 -76 -31q-46 0 -77 31t-31 77z" />
<glyph unicode="&#xc5;" horiz-adv-x="1399" d="M14 29q0 18 9 36l608 1343q12 27 26 36q13 9 43 9h7q29 0 43 -9t25 -36l595 -1342q10 -23 10 -36q0 -30 -53 -30h-69q-45 0 -63 12t-37 54l-144 335h-667l-144 -335q-19 -43 -36 -54q-18 -12 -64 -12h-37q-52 0 -52 29zM405 534h552l-271 659zM492 1760q0 88 61 149 q62 62 149 62q88 0 150 -62t62 -149t-62 -149q-63 -63 -150 -63q-86 0 -149 63q-61 61 -61 149zM583 1760q0 -48 35 -85q34 -36 84 -36q49 0 85 36t36 85t-36 85q-35 35 -85 35t-84 -35q-35 -37 -35 -85z" />
<glyph unicode="&#xc6;" horiz-adv-x="1966" d="M-11 23q0 15 15 36l916 1335q27 38 46 48q20 11 66 11h738q36 0 50 -14t14 -50v-6q0 -37 -14 -51t-50 -14h-687l62 -496h573q36 0 49 -13q14 -14 14 -50v-6q0 -36 -14 -50q-13 -13 -49 -13h-556l70 -557h574q37 0 50 -13t13 -50v-6q0 -38 -13 -51t-50 -13h-675 q-45 0 -60 14q-15 13 -21 57l-42 330h-592l-230 -341q-28 -40 -46 -50q-19 -10 -66 -10h-38q-47 0 -47 23zM506 534h485l-71 613z" />
<glyph unicode="&#xc7;" horiz-adv-x="1448" d="M104 723q0 128 31 240q31 113 93 208q61 93 147 163q87 70 201 107q117 38 247 38q171 0 301 -74q129 -74 201 -205q12 -21 12 -36q0 -24 -38 -41l-6 -3q-28 -11 -38 -11q-21 0 -46 33q-67 89 -167 143q-98 53 -211 53q-103 0 -190 -33q-84 -32 -148 -91 q-61 -56 -103 -135q-44 -82 -63 -167q-20 -91 -20 -186t21 -185t64 -167q45 -80 104 -135q63 -58 148 -91q86 -33 187 -33q125 0 229 56q102 55 178 155q24 32 44 32q12 0 35 -12l6 -3q35 -20 35 -39q0 -14 -12 -35q-70 -126 -190 -204q-115 -75 -275 -89l-53 -82 q61 0 115 -41q51 -39 51 -104q0 -45 -19 -81q-18 -34 -51 -55q-34 -22 -72 -30q-41 -9 -86 -9q-62 0 -120 21q-30 12 -30 32q0 15 6 28l3 6q11 29 30 29q7 0 25 -5q45 -14 83 -14t67 16q27 15 27 50q0 33 -30 54q-31 21 -76 32q-47 10 -47 34q0 15 13 35l49 83 q-122 8 -227 48q-107 41 -185 109q-79 69 -136 160t-85 200q-29 111 -29 231z" />
<glyph unicode="&#xc8;" horiz-adv-x="1208" d="M194 72v1309q0 42 15 57t56 15h761q36 0 50 -14q13 -13 13 -50v-6q0 -38 -13 -51q-14 -14 -50 -14h-642v-496h575q37 0 50 -13t13 -50v-6q0 -37 -13 -50t-50 -13h-575v-557h653q37 0 50 -13t13 -50v-6q0 -38 -13 -51t-50 -13h-772q-41 0 -56 15t-15 57zM347 1815 q0 16 40 16h92q47 0 67 -10q18 -9 49 -46l119 -146q18 -23 18 -37q0 -21 -45 -21h-6q-49 0 -71 8q-21 7 -59 41l-182 163q-22 21 -22 32z" />
<glyph unicode="&#xc9;" horiz-adv-x="1207" d="M194 72v1309q0 42 15 57t56 15h761q36 0 50 -14q13 -13 13 -50v-6q0 -38 -13 -51q-14 -14 -50 -14h-642v-496h575q37 0 50 -13t13 -50v-6q0 -37 -13 -50t-50 -13h-575v-557h653q37 0 50 -13t13 -50v-6q0 -38 -13 -51t-50 -13h-772q-41 0 -56 15t-15 57zM552 1588 q0 13 18 37l119 146q30 36 50 46t67 10h92q40 0 40 -16q0 -11 -22 -32l-183 -163q-39 -34 -58 -41q-22 -8 -71 -8h-6q-46 0 -46 21z" />
<glyph unicode="&#xca;" horiz-adv-x="1208" d="M194 72v1309q0 42 15 57t56 15h761q36 0 50 -14q13 -13 13 -50v-6q0 -38 -13 -51t-50 -13h-642v-497h575q37 0 50 -13t13 -50v-6q0 -37 -13 -50t-50 -13h-575v-557h653q37 0 50 -13t13 -50v-6q0 -38 -13 -51t-50 -13h-772q-41 0 -56 15t-15 57zM374 1588q0 15 20 38 l130 148q30 34 51 44q19 9 66 9h7q46 0 66 -9t52 -44l132 -148q21 -24 21 -38q0 -21 -48 -21h-6q-50 0 -74 11q-23 11 -55 50l-88 107l-93 -109q-33 -39 -55 -49q-21 -10 -73 -10h-6q-47 0 -47 21z" />
<glyph unicode="&#xcb;" horiz-adv-x="1208" d="M194 72v1309q0 42 15 57t56 15h761q36 0 50 -14q13 -13 13 -50v-6q0 -38 -13 -51t-50 -13h-642v-497h575q37 0 50 -13t13 -50v-6q0 -37 -13 -50t-50 -13h-575v-557h653q37 0 50 -13t13 -50v-6q0 -38 -13 -51t-50 -13h-772q-41 0 -56 15t-15 57zM342 1682q0 45 32 76 t78 31q45 0 74 -30q29 -31 29 -77q0 -45 -29 -76t-74 -31q-46 0 -78 31t-32 76zM736 1682q0 44 32 76q31 31 77 31q45 0 75 -30q31 -31 31 -77q0 -43 -31 -76q-30 -31 -75 -31q-46 0 -77 31q-32 32 -32 76z" />
<glyph unicode="&#xcc;" horiz-adv-x="576" d="M-24 1815q0 16 41 16h91q47 0 67 -10t50 -46l118 -146q19 -24 19 -37q0 -21 -46 -21h-6q-49 0 -71 8q-19 7 -58 41l-183 163q-22 21 -22 32zM193 72v1309q0 42 15 57t57 15h47q41 0 56 -15t15 -57v-1309q0 -42 -15 -57t-56 -15h-47q-42 0 -57 15t-15 57z" />
<glyph unicode="&#xcd;" horiz-adv-x="577" d="M194 72v1309q0 42 15 57t56 15h47q42 0 57 -15t15 -57v-1309q0 -42 -15 -57t-57 -15h-47q-41 0 -56 15t-15 57zM226 1588q0 13 18 37l119 146q31 37 49 46q20 10 67 10h92q40 0 40 -16q0 -11 -22 -32l-182 -163q-38 -34 -59 -41q-22 -8 -70 -8h-6q-46 0 -46 21z" />
<glyph unicode="&#xce;" horiz-adv-x="577" d="M16 1588q0 14 21 38l129 147q32 37 51 45q21 9 66 9h6q47 0 67 -9q19 -9 51 -44l132 -148q22 -25 22 -38q0 -21 -48 -21h-6q-51 0 -75 11q-23 11 -55 50l-87 107l-92 -109q-33 -39 -55 -49q-21 -10 -74 -10h-6q-47 0 -47 21zM194 72v1309q0 42 15 57t56 15h47 q42 0 57 -15t15 -57v-1309q0 -42 -15 -57t-57 -15h-47q-41 0 -56 15t-15 57z" />
<glyph unicode="&#xcf;" horiz-adv-x="576" d="M-17 1682q0 44 33 76q32 31 78 31t75 -30q29 -31 29 -77q0 -45 -29 -76t-75 -31t-78 31q-33 32 -33 76zM193 72v1309q0 42 15 57t57 15h47q41 0 56 -15t15 -57v-1309q0 -42 -15 -57t-56 -15h-47q-42 0 -57 15t-15 57zM379 1682q0 45 31 76t77 31q45 0 75 -30t30 -77 q0 -46 -30 -76q-31 -31 -75 -31q-46 0 -77 31t-31 76z" />
<glyph unicode="&#xd1;" horiz-adv-x="1600" d="M194 79v1302q0 42 15 57t56 15h53q47 0 66 -10q21 -11 49 -48l810 -1069v1048q0 45 17 62t62 17h6q45 0 62 -17t17 -62v-1309q0 -37 -14 -51t-52 -14h-6q-42 0 -60 9q-19 10 -44 43l-874 1143v-1116q0 -45 -17 -62t-62 -17h-6q-45 0 -62 17q-16 16 -16 62zM549 1614 q0 4 3 19q17 80 58 121q43 43 93 43q34 0 62 -11q27 -10 44 -26q22 -20 31 -30q11 -13 29 -25q16 -11 32 -11q36 0 53 47q10 31 22 41q11 10 42 10h6q25 0 36 -8t11 -25q0 -9 -2 -19q-17 -79 -59 -121t-93 -42q-33 0 -61 11q-31 12 -45 25q-12 10 -30 31q-10 11 -30 25 q-16 11 -32 11q-36 0 -52 -47q-11 -31 -22 -41t-42 -10h-6q-25 0 -36 7q-12 7 -12 25z" />
<glyph unicode="&#xd2;" horiz-adv-x="1647" d="M101 724q0 165 53 307q52 139 147 239q93 98 230 154q134 55 295 55q156 0 292 -56t229 -155q94 -100 146 -238q54 -143 54 -301q0 -161 -52 -303q-51 -140 -143 -239q-92 -100 -228 -157q-133 -56 -298 -56q-160 0 -298 56q-137 56 -230 155q-92 98 -145 238 q-52 138 -52 301zM304 728q0 -125 35 -239q34 -111 99 -197q64 -86 165 -135q102 -50 223 -50q98 0 184 33t145 91q64 62 104 137q41 77 63 171q21 92 21 191q0 103 -22 192q-23 95 -65 168q-43 76 -106 134q-61 56 -145 88q-85 32 -180 32q-118 0 -217 -48 q-100 -49 -165 -131q-66 -84 -102 -196q-37 -116 -37 -241zM531 1823q0 16 40 16h93q47 0 67 -10q18 -9 49 -46l119 -146q18 -24 18 -37q0 -21 -45 -21h-6q-50 0 -72 8q-19 7 -58 41l-183 163q-22 21 -22 32z" />
<glyph unicode="&#xd3;" horiz-adv-x="1648" d="M101 724q0 165 53 307q52 139 147 239q93 98 230 154q134 55 296 55q156 0 292 -56q134 -55 228 -155q96 -102 147 -238q53 -141 53 -301q0 -163 -51 -303q-50 -138 -144 -239q-92 -100 -228 -157q-133 -56 -297 -56q-160 0 -298 56q-137 56 -230 155q-94 100 -146 238 t-52 301zM305 728q0 -128 34 -239q33 -109 100 -197q65 -86 164 -135q102 -50 223 -50q100 0 185 33q86 33 145 91q62 60 103 137q43 80 64 171q21 92 21 191q0 103 -22 192q-22 92 -66 168q-44 78 -105 134q-63 58 -145 89q-85 32 -181 32q-117 0 -216 -48t-165 -132 q-68 -86 -103 -196q-36 -113 -36 -241zM745 1597q0 11 19 36l118 146q30 38 50 47t68 9h91q41 0 41 -16q0 -11 -22 -32l-183 -162q-38 -35 -58 -42q-22 -8 -71 -8h-7q-46 0 -46 22z" />
<glyph unicode="&#xd4;" horiz-adv-x="1648" d="M101 724q0 165 53 307q52 139 147 239q93 98 230 154q134 55 296 55q156 0 292 -56q134 -55 228 -155q96 -102 147 -238q53 -141 53 -301q0 -163 -51 -303q-50 -138 -144 -239q-92 -100 -228 -157q-133 -56 -297 -56q-160 0 -298 56q-137 56 -230 155q-94 100 -146 238 t-52 301zM305 728q0 -128 34 -239q33 -109 100 -197q65 -86 164 -135q102 -50 223 -50q100 0 185 33q86 33 145 91q62 60 103 137q43 80 64 171q21 92 21 191q0 103 -22 192q-22 92 -66 168q-44 78 -105 134q-63 58 -145 89q-85 32 -181 32q-117 0 -216 -48t-165 -132 q-68 -86 -103 -196q-36 -113 -36 -241zM551 1596q0 14 21 38l130 149q29 33 50 43q20 9 67 9h6q47 0 67 -9t51 -43l132 -149q22 -25 22 -38q0 -21 -48 -21h-6q-50 0 -74 11q-23 11 -56 51l-87 106l-93 -108q-34 -39 -56 -49q-24 -11 -72 -11h-7q-47 0 -47 21z" />
<glyph unicode="&#xd5;" horiz-adv-x="1647" d="M101 724q0 165 53 307q52 139 147 239q93 98 230 154q134 55 295 55q156 0 292 -56t229 -155q94 -100 146 -238q54 -143 54 -301q0 -161 -52 -303q-51 -140 -143 -239q-92 -100 -228 -157q-133 -56 -298 -56q-160 0 -298 56q-137 56 -230 155q-92 98 -145 238 q-52 138 -52 301zM304 728q0 -125 35 -239q34 -111 99 -197q64 -86 165 -135q102 -50 223 -50q98 0 184 33t145 91q64 62 104 137q41 77 63 171q21 92 21 191q0 103 -22 192q-23 95 -65 168q-43 76 -106 134t-145 89q-85 32 -180 32q-118 0 -217 -48t-165 -132t-102 -196 q-37 -116 -37 -241zM563 1621q0 9 2 19q17 79 59 121t92 42q36 0 62 -10q27 -10 44 -26q22 -20 31 -30q14 -15 29 -26q16 -11 33 -11q36 0 53 47q10 31 22 41q11 10 42 10h6q25 0 36 -8t11 -25q0 -9 -2 -19q-16 -77 -59 -120t-93 -43q-34 0 -62 11q-27 11 -43 25 q-17 15 -31 31q-14 15 -29 26q-14 10 -33 10q-36 0 -53 -47q-10 -31 -22 -41q-11 -10 -42 -10h-6q-23 0 -36 8q-11 7 -11 25z" />
<glyph unicode="&#xd6;" horiz-adv-x="1648" d="M101 724q0 165 53 307q52 139 147 239q93 98 230 154q134 55 296 55q156 0 292 -56q134 -55 228 -155q96 -102 147 -238q53 -141 53 -301q0 -163 -51 -303q-50 -138 -144 -239q-92 -100 -228 -157q-133 -56 -297 -56q-160 0 -298 56q-137 56 -230 155q-94 100 -146 238 t-52 301zM305 728q0 -128 34 -239q33 -109 100 -197q65 -86 164 -135q102 -50 223 -50q100 0 185 33q86 33 145 91q62 60 103 137q43 80 64 171q21 92 21 191q0 103 -22 192q-22 92 -66 168q-44 78 -105 134q-63 58 -145 89q-85 32 -181 32q-117 0 -216 -48t-165 -132 q-68 -86 -103 -196q-36 -113 -36 -241zM520 1689q0 45 32 76t78 31q44 0 75 -31q29 -29 29 -76q0 -48 -29 -77q-30 -30 -75 -30q-46 0 -78 31t-32 76zM915 1689q0 45 31 76t77 31t76 -31q30 -32 30 -76q0 -47 -30 -77t-76 -30t-77 31t-31 76z" />
<glyph unicode="&#xd7;" horiz-adv-x="1149" d="M125 270q0 14 20 34l305 306l-305 306q-20 20 -20 34q0 13 20 33l59 58q19 19 34 19q14 0 34 -20l304 -304l305 304q20 20 34 20q12 0 34 -20l55 -56q19 -19 19 -34q0 -14 -20 -34l-303 -304l306 -305q20 -20 20 -34t-20 -34l-58 -60q-19 -19 -33 -19q-15 0 -34 19 l-306 307l-306 -307q-19 -19 -34 -19q-14 0 -33 19l-57 58q-20 20 -20 33z" />
<glyph unicode="&#xd8;" horiz-adv-x="1649" d="M102 724q0 165 53 307q52 139 147 239q93 98 230 154q134 55 296 55q234 0 413 -122l107 134q25 31 44 31q18 0 43 -22l4 -4q30 -26 30 -46q0 -16 -21 -43l-106 -134q98 -101 152 -240t54 -304q0 -163 -51 -303q-50 -138 -144 -239q-92 -100 -228 -157q-133 -56 -297 -56 q-243 0 -420 120l-106 -133q-24 -30 -42 -30q-17 0 -44 21l-5 4q-31 23 -31 44q0 20 22 46l105 132q-99 101 -152 241q-53 141 -53 305zM305 728q0 -240 114 -408l723 912q-131 112 -316 112q-118 0 -217 -48t-164 -131q-68 -86 -103 -196q-37 -116 -37 -241zM508 220 q133 -113 319 -113q99 0 184 33q87 34 146 91q62 60 103 137q43 80 64 171q20 87 20 191q0 237 -113 402z" />
<glyph unicode="&#xd9;" horiz-adv-x="1494" d="M177 494v887q0 42 15 57t57 15h47q41 0 56 -15t15 -57v-840q0 -204 95 -319q94 -114 292 -114q195 0 294 112q100 114 100 313v838q0 47 17 64q18 18 65 18h6q46 0 64 -18q17 -17 17 -64v-867q0 -132 -39 -234q-39 -101 -114 -166q-76 -66 -178 -98q-100 -32 -236 -32 q-177 0 -303 58q-128 59 -199 176t-71 286zM465 1815q0 16 40 16h92q47 0 67 -10t50 -46l119 -146q18 -23 18 -37q0 -21 -45 -21h-7q-49 0 -71 8q-19 7 -58 41l-183 163q-22 21 -22 32z" />
<glyph unicode="&#xda;" horiz-adv-x="1494" d="M177 494v887q0 42 15 57t57 15h47q41 0 56 -15t15 -57v-840q0 -204 95 -319q94 -114 292 -114q195 0 294 112q100 114 100 313v838q0 47 17 64q18 18 65 18h6q46 0 64 -18q17 -17 17 -64v-867q0 -132 -39 -234q-39 -101 -114 -166q-76 -66 -178 -98q-100 -32 -236 -32 q-177 0 -303 58q-128 59 -199 176t-71 286zM656 1588q0 13 18 37l119 146q31 37 49 46q20 10 67 10h92q41 0 41 -16q0 -11 -23 -32l-182 -163q-39 -34 -58 -41q-22 -8 -71 -8h-6q-46 0 -46 21z" />
<glyph unicode="&#xdb;" horiz-adv-x="1494" d="M178 494v887q0 42 15 57t56 15h47q42 0 57 -15t15 -57v-840q0 -206 94 -319q94 -114 293 -114q195 0 294 112t99 313v838q0 46 18 64t64 18h6q47 0 65 -18q17 -17 17 -64v-867q0 -129 -40 -234q-39 -101 -114 -166q-76 -66 -178 -98q-100 -32 -235 -32q-177 0 -303 58 q-128 59 -199 176t-71 286zM486 1588q0 14 21 38l130 149q29 33 50 43q19 9 67 9h6q48 0 67 -9q20 -9 51 -43l132 -149q22 -25 22 -38q0 -21 -48 -21h-6q-50 0 -74 11q-23 11 -56 51l-87 106l-92 -108q-33 -39 -55 -49q-24 -11 -74 -11h-6q-48 0 -48 21z" />
<glyph unicode="&#xdc;" horiz-adv-x="1494" d="M178 494v887q0 42 15 57t56 15h47q42 0 57 -15t15 -57v-840q0 -206 94 -319q94 -114 293 -114q195 0 294 112t99 313v838q0 46 18 64t64 18h6q47 0 65 -18q17 -17 17 -64v-867q0 -129 -40 -234q-39 -101 -114 -166q-76 -66 -178 -98q-100 -32 -235 -32q-177 0 -303 58 q-128 59 -199 176t-71 286zM443 1682q0 46 33 77q32 31 78 31q45 0 74 -31t29 -77q0 -45 -29 -76t-74 -31q-44 0 -78 32q-33 31 -33 75zM838 1682q0 45 32 77q31 31 77 31q45 0 75 -31q31 -33 31 -77q0 -45 -31 -76t-75 -31q-45 0 -77 32t-32 75z" />
<glyph unicode="&#xdd;" horiz-adv-x="1247" d="M12 1428q0 25 48 25h77q46 0 66 -11q17 -9 43 -51l392 -646l413 647q24 39 45 50q20 11 66 11h40q48 0 48 -24q0 -16 -14 -37l-518 -802v-518q0 -42 -15 -57t-57 -15h-48q-42 0 -57 15t-15 57v518l-500 802q-14 23 -14 36zM552 1582q0 11 19 36l118 147q30 36 50 46 t67 10h92q40 0 40 -16q0 -11 -22 -32l-182 -163q-38 -34 -59 -41q-22 -8 -70 -8h-7q-46 0 -46 21z" />
<glyph unicode="&#xdf;" horiz-adv-x="1221" d="M158 65v996q0 213 125 336t339 123q63 0 114 -10q55 -11 104 -33q47 -22 85 -56q36 -33 57 -83t21 -112q0 -50 -16 -91q-16 -40 -43 -72q-26 -30 -57 -57q-28 -24 -63 -49q-37 -26 -58 -45q-24 -21 -42 -51q-17 -28 -17 -59q0 -36 16 -70q14 -30 41 -52q30 -25 60 -39 q41 -20 72 -32q11 -4 23.5 -9.5t28 -12.5t23.5 -11q37 -16 71 -40t60 -54q28 -33 42 -75q15 -45 15 -102q0 -87 -28 -150q-29 -66 -75 -102q-51 -40 -105 -57q-60 -19 -120 -19q-195 0 -306 168q-13 19 -13 32q0 19 33 35l5 2q24 11 34 11q17 0 42 -28q79 -91 204 -91 q42 0 76 18q35 18 57 58q23 41 23 99q0 39 -15 69q-15 31 -42 50q-30 22 -60 36q-15 7 -72 30q-50 20 -75 31q-33 14 -71 41q-32 22 -61 56q-25 29 -41 80t-16 110q0 44 16 80q17 38 42 65q21 22 56 52q4 3 61 49q40 32 57 48q23 22 41 56q16 31 16 68q0 94 -61 143t-161 49 q-54 0 -102 -19q-43 -17 -74 -50q-31 -32 -50 -75q-18 -41 -28 -92q-9 -48 -9 -102v-991q0 -38 -13 -51q-14 -14 -51 -14h-51q-37 0 -51 14q-13 13 -13 51z" />
<glyph unicode="&#xe0;" horiz-adv-x="1080" d="M81 283q0 78 30 138q29 58 79 97t115 62q73 26 134 34q67 9 143 9q87 0 174 -13v40q0 111 -61 176q-61 66 -181 66q-74 0 -141 -32q-69 -33 -122 -89q-23 -24 -39 -24q-13 0 -32 11l-5 3q-31 17 -31 35q0 11 11 30q57 94 159 149q100 54 221 54q86 0 157 -19 q67 -18 113 -52q47 -34 75 -87q29 -54 41 -117q12 -65 12 -146v-543q0 -38 -13 -51q-14 -14 -51 -14h-49q-37 0 -51 14q-13 13 -13 51v92h-1q-120 -180 -314 -180q-75 0 -139 21q-66 21 -114 58q-50 38 -78 96q-29 60 -29 131zM249 1440q0 18 39 18h92q42 0 59 -10 q19 -11 39 -45l127 -206q13 -20 13 -35q0 -24 -46 -24h-6q-46 0 -65 9q-18 8 -49 44l-187 218q-16 19 -16 31zM270 296q0 -92 62 -143q60 -50 155 -50q37 0 70 11q37 12 71 35q35 23 64 57q29 33 46 78q18 47 18 98v108q-106 14 -186 14q-49 0 -83 -5q-41 -6 -81 -21 q-41 -15 -70 -37t-48 -61q-18 -38 -18 -84z" />
<glyph unicode="&#xe1;" horiz-adv-x="1080" d="M82 283q0 78 30 138q30 59 78 97q50 39 115 62q72 26 135 34q67 9 143 9q88 0 173 -13v40q0 112 -60 176q-62 66 -182 66q-73 0 -140 -32q-69 -33 -122 -89q-22 -24 -39 -24q-13 0 -32 11l-6 3q-30 17 -30 35q0 11 11 30q57 95 158 149q100 54 221 54q86 0 157 -19 q69 -18 114 -52q46 -34 75 -87q29 -54 41 -117q12 -65 12 -146v-543q0 -37 -14 -51t-51 -14h-48q-37 0 -51 14t-14 51v92h-1q-120 -180 -314 -180q-73 0 -138 21q-67 22 -115 58q-50 38 -78 96q-28 57 -28 131zM270 296q0 -92 62 -143q60 -50 156 -50q36 0 69 11 q39 13 72 35q35 23 64 57q29 33 46 78q17 44 17 98v108q-106 14 -185 14q-50 0 -84 -5q-39 -6 -80 -21t-70 -37t-48 -61q-19 -40 -19 -84zM458 1162q0 12 13 35l127 206q20 34 39 45q17 10 59 10h91q39 0 39 -18q0 -12 -16 -31l-186 -218q-31 -36 -49 -44q-19 -9 -64 -9h-7 q-46 0 -46 24z" />
<glyph unicode="&#xe2;" horiz-adv-x="1080" d="M81 283q0 78 30 138q29 58 79 97t115 62q73 26 134 34q67 9 143 9q87 0 174 -13v40q0 111 -61 176q-61 66 -181 66q-74 0 -141 -32q-69 -33 -122 -89q-23 -24 -39 -24q-13 0 -32 11l-5 3q-31 17 -31 35q0 11 11 30q57 94 159 149q100 54 221 54q86 0 157 -19 q67 -18 113 -52q47 -34 75 -87q29 -54 41 -117q12 -65 12 -146v-543q0 -38 -13 -51q-14 -14 -51 -14h-49q-37 0 -51 14q-13 13 -13 51v92h-1q-120 -180 -314 -180q-75 0 -139 21q-66 21 -114 58q-50 38 -78 96q-29 60 -29 131zM270 296q0 -92 62 -143q60 -50 155 -50 q37 0 70 11q37 12 71 35q35 23 64 57q29 33 46 78q18 47 18 98v108q-106 14 -186 14q-49 0 -83 -5q-41 -6 -81 -21q-41 -15 -70 -37t-48 -61q-18 -38 -18 -84zM286 1161q0 13 16 37l135 205q22 34 42 45q17 10 61 10h6q43 0 61 -9q17 -9 42 -46l139 -205q15 -23 15 -37 q0 -24 -48 -24h-6q-47 0 -67 12q-21 13 -45 51l-91 145l-94 -146q-27 -41 -45 -51q-20 -11 -67 -11h-6q-48 0 -48 24z" />
<glyph unicode="&#xe3;" horiz-adv-x="1079" d="M80 283q0 76 31 138q30 59 78 97q50 39 115 62q72 26 135 34q67 9 142 9q89 0 174 -13v40q0 111 -61 176q-62 67 -181 67q-71 0 -140 -33q-71 -34 -122 -88q-24 -24 -40 -24q-15 0 -32 10l-5 3q-30 17 -30 35q0 11 11 30q59 96 158 149q100 54 221 54q112 0 189 -28 q81 -29 124 -83q43 -53 65 -131q21 -75 21 -179v-543q0 -37 -14 -51t-51 -14h-48q-37 0 -51 14t-14 51v92h-1q-120 -180 -314 -180q-74 0 -139 21q-66 21 -114 58q-49 38 -78 96q-29 60 -29 131zM269 296q0 -92 62 -143q60 -50 156 -50q36 0 69 11q39 13 72 35q35 23 64 57 q29 33 46 78q17 44 17 98v108q-106 14 -185 14q-50 0 -84 -5q-39 -6 -80 -21q-43 -16 -71 -37t-47 -61t-19 -84zM274 1201q0 4 3 19q17 84 58 127q42 44 94 44q34 0 62 -11q25 -10 44 -27q17 -15 31 -31q16 -18 29 -27q16 -11 32 -11q37 0 53 51q11 31 22 41t42 10h6 q25 0 36 -7q12 -7 12 -26q0 -4 -3 -19q-17 -83 -59 -127t-93 -44q-33 0 -61 11q-29 11 -45 26q-7 6 -30 32q-12 14 -30 26q-16 11 -32 11q-37 0 -53 -50q-11 -32 -21 -41q-13 -11 -42 -11h-6q-24 0 -37 8q-12 7 -12 26z" />
<glyph unicode="&#xe4;" horiz-adv-x="1080" d="M81 283q0 78 30 138q29 58 79 97t115 62q73 26 134 34q67 9 143 9q87 0 174 -13v40q0 111 -61 176q-61 66 -181 66q-74 0 -141 -32q-69 -33 -122 -89q-23 -24 -39 -24q-13 0 -32 11l-5 3q-31 17 -31 35q0 11 11 30q57 94 159 149q100 54 221 54q86 0 157 -19 q67 -18 113 -52q47 -34 75 -87q29 -54 41 -117q12 -65 12 -146v-543q0 -38 -13 -51q-14 -14 -51 -14h-49q-37 0 -51 14q-13 13 -13 51v92h-1q-120 -180 -314 -180q-75 0 -139 21q-66 21 -114 58q-50 38 -78 96q-29 60 -29 131zM240 1263q0 47 33 77t78 30q47 0 75 -30 q29 -31 29 -77q0 -45 -29 -76t-75 -31q-44 0 -78 31q-33 30 -33 76zM270 296q0 -92 62 -143q60 -50 155 -50q37 0 70 11q37 12 71 35q35 23 64 57q29 33 46 78q18 47 18 98v108q-106 14 -186 14q-49 0 -83 -5q-41 -6 -81 -21q-41 -15 -70 -37t-48 -61q-18 -38 -18 -84z M635 1263q0 47 32 77q31 30 77 30q45 0 75 -30q31 -31 31 -77q0 -45 -31 -76t-75 -31t-77 31q-32 30 -32 76z" />
<glyph unicode="&#xe5;" horiz-adv-x="1080" d="M81 283q0 78 30 138q29 58 79 97t115 62q73 26 134 34q67 9 143 9q87 0 174 -13v40q0 111 -61 176q-61 66 -181 66q-74 0 -141 -32q-69 -33 -122 -89q-23 -24 -39 -24q-13 0 -32 11l-5 3q-31 17 -31 35q0 11 11 30q57 94 159 149q100 54 221 54q86 0 157 -19 q67 -18 113 -52q47 -34 75 -87q29 -54 41 -117q12 -65 12 -146v-543q0 -38 -13 -51q-14 -14 -51 -14h-49q-37 0 -51 14q-13 13 -13 51v92h-1q-120 -180 -314 -180q-75 0 -139 21q-66 21 -114 58q-50 38 -78 96q-29 60 -29 131zM270 296q0 -92 62 -143q60 -50 155 -50 q37 0 70 11q37 12 71 35q35 23 64 57q29 33 46 78q18 47 18 98v108q-106 14 -186 14q-49 0 -83 -5q-41 -6 -81 -21q-41 -15 -70 -37t-48 -61q-18 -38 -18 -84zM331 1338q0 88 62 150t150 62q87 0 149 -62t62 -150q0 -87 -62 -149q-61 -61 -149 -61q-89 0 -150 61 q-62 62 -62 149zM422 1338q0 -50 35 -84q38 -36 86 -36q47 0 85 36q35 34 35 84t-35 85q-36 36 -85 36q-50 0 -86 -36q-35 -35 -35 -85z" />
<glyph unicode="&#xe6;" horiz-adv-x="1797" d="M80 283q0 76 31 138q30 59 78 97q50 39 115 62q72 26 135 34q67 9 142 9q83 0 174 -12v39q0 111 -61 176q-62 67 -181 67q-71 0 -140 -33q-71 -34 -122 -88q-24 -24 -40 -24q-10 0 -32 11l-5 3q-30 16 -30 34q0 12 11 30q57 95 158 149q100 54 220 54q255 0 343 -153 q66 72 162 113q93 40 209 40q32 0 65 -3q27 -2 78 -16q48 -13 85 -32q41 -21 82 -58q42 -38 73 -86q32 -50 54 -123q22 -71 28 -164q3 -37 -11 -51q-13 -13 -52 -13h-716q0 -45 10 -91t36 -98q24 -49 64 -90q39 -40 97 -65q59 -25 133 -25q184 0 302 151q21 27 38 27 q11 0 30 -11l5 -3q30 -16 30 -35q0 -11 -10 -30q-134 -236 -421 -236q-131 0 -238 52q-103 50 -170 146q-43 -60 -88 -95q-48 -38 -102 -61q-47 -20 -105 -32q-49 -10 -104 -10q-74 0 -139 21q-66 21 -114 58q-49 38 -78 96q-29 60 -29 131zM269 296q0 -92 62 -143 q60 -50 156 -50q36 0 69 11q39 13 72 35q35 23 64 57q29 33 46 78q17 44 17 98v108q-106 14 -185 14q-50 0 -84 -5q-40 -6 -81 -21t-70 -37q-28 -21 -47 -61t-19 -84zM933 600h598q0 37 -9 76q-9 38 -30 79q-20 39 -53 72q-32 32 -83 53q-49 20 -114 20q-50 0 -95 -14 q-46 -14 -75 -36q-32 -24 -56 -51t-40 -57q-12 -23 -25 -58q-11 -30 -14 -50q-4 -28 -4 -34z" />
<glyph unicode="&#xe7;" horiz-adv-x="1077" d="M96 495q0 112 35 211q35 98 99 170q64 71 159 112q96 41 211 41q130 0 225 -56q95 -55 150 -159q11 -22 11 -34q0 -21 -35 -40l-6 -3q-20 -11 -32 -11q-19 0 -40 33q-92 140 -257 140q-148 0 -239 -105q-91 -104 -91 -288q0 -80 21 -150t61 -125q38 -53 104 -87 q61 -32 142 -32q87 0 155 37q69 37 117 105q18 26 34 26q13 0 30 -11l5 -3q30 -19 30 -37q0 -11 -9 -29q-90 -181 -299 -216l-58 -90q61 0 115 -41q51 -39 51 -104q0 -47 -18 -81q-17 -33 -52 -55q-34 -22 -72 -30q-40 -9 -86 -9q-61 0 -120 21q-30 12 -30 32q0 13 7 28l2 6 q11 29 30 29q7 0 25 -5q45 -14 83 -14t67 16q27 15 27 50q0 36 -32 56t-81 31q-43 7 -43 30q0 11 12 32l55 92q-142 7 -247 75q-106 68 -161 181t-55 261z" />
<glyph unicode="&#xe8;" horiz-adv-x="1147" d="M94 501q0 154 63 274q63 121 177 187q115 67 264 67q32 0 65 -3q27 -2 78 -16q37 -10 85 -33q39 -19 82 -57q45 -40 74 -86q30 -46 53 -123q22 -71 28 -164q3 -37 -11 -51q-13 -13 -52 -13h-717q0 -31 6 -64t18 -69q13 -39 30 -70q18 -33 46 -64q27 -30 62 -53t80 -36 t99 -13q184 0 302 151q21 27 38 27q11 0 30 -11l5 -3q30 -16 30 -35q0 -11 -10 -30q-134 -236 -421 -236q-113 0 -210 40q-95 39 -160 109q-64 68 -99 166q-35 97 -35 209zM284 600h598q0 38 -9 75q-10 41 -30 80q-22 42 -52 72t-83 52q-51 21 -115 21q-57 0 -109 -19 q-48 -17 -82 -47q-33 -28 -57 -63t-36 -69q-15 -43 -19 -60q-6 -26 -6 -42zM338 1440q0 18 39 18h92q42 0 59 -10q19 -11 39 -45l127 -206q13 -20 13 -35q0 -24 -46 -24h-6q-45 0 -65 9q-18 8 -49 44l-186 218q-17 20 -17 31z" />
<glyph unicode="&#xe9;" horiz-adv-x="1149" d="M94 501q0 154 63 274q63 121 177 187q115 67 264 67q32 0 65 -3q27 -2 78 -16q37 -10 85 -33q39 -19 82 -57q45 -40 74 -86q30 -46 53 -123q22 -71 28 -164q3 -37 -11 -51q-13 -13 -52 -13h-717q0 -31 6 -64t18 -69q13 -39 30 -70q18 -33 46 -64q27 -30 62 -53t80 -36 t99 -13q184 0 302 151q21 27 38 27q11 0 30 -11l5 -3q30 -16 30 -35q0 -11 -10 -30q-134 -236 -421 -236q-113 0 -210 40q-95 39 -160 109q-64 68 -99 166q-35 97 -35 209zM284 600h598q0 38 -9 75q-10 41 -30 80q-22 42 -52 72t-83 52q-51 21 -115 21q-57 0 -109 -19 q-48 -17 -82 -47q-33 -28 -57 -63t-36 -69q-15 -43 -19 -60q-6 -26 -6 -42zM520 1162q0 13 14 35l126 206q20 34 39 45q17 10 59 10h92q39 0 39 -18q0 -12 -16 -31l-187 -219q-30 -35 -48 -43q-20 -9 -65 -9h-6q-47 0 -47 24z" />
<glyph unicode="&#xea;" horiz-adv-x="1147" d="M93 501q0 154 63 274t178 187t263 67q32 0 65 -3q27 -2 78 -16q39 -10 86 -33q39 -19 82 -57q42 -38 73 -86q30 -46 53 -123q22 -71 28 -164q3 -37 -11 -51q-13 -13 -51 -13h-717q0 -37 5 -64q6 -33 18 -69q11 -34 31 -70q18 -33 46 -64q27 -30 62 -53t80 -36t99 -13 q183 0 301 151q21 27 38 27q12 0 31 -11l4 -3q31 -17 31 -35q0 -10 -11 -30q-134 -236 -420 -236q-114 0 -211 40q-93 38 -159 109q-66 70 -100 166q-35 97 -35 209zM284 600h597q0 42 -8 75q-10 41 -30 80t-53 72q-30 30 -83 52q-51 21 -115 21q-57 0 -109 -19 q-48 -17 -82 -47q-30 -26 -56 -63t-37 -69q-12 -34 -18 -60t-6 -42zM339 1161q0 11 16 37l136 205q25 35 41 45q17 10 61 10h6q43 0 61 -9q17 -9 42 -46l139 -204q16 -23 16 -38q0 -24 -48 -24h-7q-48 0 -67 12q-23 14 -46 51l-89 145l-95 -147q-26 -40 -45 -50 q-20 -11 -67 -11h-6q-48 0 -48 24z" />
<glyph unicode="&#xeb;" horiz-adv-x="1147" d="M93 501q0 154 63 274t178 187t263 67q32 0 65 -3q27 -2 78 -16q39 -10 86 -33q39 -19 82 -57q42 -38 73 -86q30 -46 53 -123q22 -71 28 -164q3 -37 -11 -51q-13 -13 -51 -13h-717q0 -37 5 -64q6 -33 18 -69q11 -34 31 -70q18 -33 46 -64q27 -30 62 -53t80 -36t99 -13 q183 0 301 151q21 27 38 27q12 0 31 -11l4 -3q31 -17 31 -35q0 -10 -11 -30q-134 -236 -420 -236q-114 0 -211 40q-93 38 -159 109q-66 70 -100 166q-35 97 -35 209zM284 600h597q0 42 -8 75q-10 41 -30 80t-53 72q-30 30 -83 52q-51 21 -115 21q-57 0 -109 -19 q-48 -17 -82 -47q-30 -26 -56 -63t-37 -69q-12 -34 -18 -60t-6 -42zM304 1263q0 48 32 77q33 30 78 30q44 0 74 -30t30 -77q0 -46 -30 -76q-31 -31 -74 -31q-44 0 -78 31q-32 29 -32 76zM699 1263q0 47 31 77q32 30 77 30t75 -30t30 -77q0 -46 -30 -76q-31 -31 -75 -31 t-77 31q-31 30 -31 76z" />
<glyph unicode="&#xec;" horiz-adv-x="494" d="M-49 1440q0 18 40 18h91q42 0 59 -10q21 -12 40 -45l126 -207q14 -23 14 -35q0 -24 -47 -24h-6q-46 0 -65 9q-20 9 -49 44l-186 219q-17 20 -17 31zM158 65v877q0 38 13 51t51 13h50q38 0 51 -13q14 -14 14 -51v-877q0 -37 -14 -51t-51 -14h-50q-37 0 -51 14 q-13 13 -13 51z" />
<glyph unicode="&#xed;" horiz-adv-x="494" d="M158 65v877q0 38 13 51t51 13h50q38 0 51 -13q14 -14 14 -51v-877q0 -37 -14 -51t-51 -14h-50q-37 0 -51 14q-13 13 -13 51zM178 1161q0 12 14 35l126 207q19 33 40 45q17 10 59 10h91q39 0 39 -18q0 -12 -16 -31l-186 -219q-29 -35 -49 -44q-19 -9 -65 -9h-6 q-47 0 -47 24z" />
<glyph unicode="&#xee;" horiz-adv-x="494" d="M-12 1162q0 10 16 36l136 206q24 34 42 45q17 10 60 10h6q41 0 61 -10q18 -9 42 -45l139 -205q16 -23 16 -37q0 -24 -48 -24h-6q-47 0 -69 11q-20 10 -45 52l-90 145l-94 -147q-26 -40 -45 -50q-20 -11 -67 -11h-6q-48 0 -48 24zM158 65v877q0 38 13 51t51 13h50 q38 0 51 -13q14 -14 14 -51v-877q0 -37 -14 -51t-51 -14h-50q-37 0 -51 14q-13 13 -13 51z" />
<glyph unicode="&#xef;" horiz-adv-x="494" d="M-57 1261q0 45 32 76t78 31q45 0 75 -30q29 -29 29 -77q0 -47 -29 -76q-31 -31 -75 -31q-46 0 -78 31t-32 76zM158 65v877q0 38 13 51t51 13h50q38 0 51 -13t13 -51v-877q0 -38 -13 -51q-14 -14 -51 -14h-50q-37 0 -51 14q-13 13 -13 51zM337 1261q0 44 32 76 q31 31 77 31q45 0 75 -30q31 -31 31 -77q0 -43 -31 -76q-30 -31 -75 -31q-46 0 -77 31q-32 32 -32 76z" />
<glyph unicode="&#xf1;" d="M158 65v877q0 38 13 51t51 13h50q38 0 51 -13t13 -51v-100h1q55 86 145 137q88 50 196 50q61 0 109 -12q46 -12 83 -34q33 -20 60 -55q28 -36 42 -71q17 -43 25 -85q10 -55 13 -96q3 -46 3 -105v-506q0 -38 -13 -51q-14 -14 -51 -14h-49q-37 0 -51 14t-14 51v559 q0 68 -10 112q-10 45 -35 81t-66 52t-105 16q-71 0 -138 -38q-63 -36 -105 -103q-40 -64 -40 -138v-541q0 -38 -13 -51q-14 -14 -51 -14h-50q-37 0 -51 14q-13 13 -13 51zM334 1203q0 11 1 18q16 81 59 127q42 45 93 45q34 0 62 -11q25 -10 44 -27q12 -11 30 -31 q15 -16 30 -27q16 -11 32 -11q37 0 54 50q11 32 21 41q11 10 42 10h6q26 0 37 -7t11 -26q0 -4 -3 -19q-16 -82 -59 -126q-43 -45 -93 -45q-33 0 -61 11q-25 10 -44 27q-12 11 -31 32q-14 15 -29 26q-16 11 -33 11q-37 0 -53 -51q-10 -28 -22 -41q-10 -10 -41 -10h-6 q-25 0 -36 8t-11 26z" />
<glyph unicode="&#xf2;" horiz-adv-x="1198" d="M95 495q0 117 34 213q35 99 97 170q61 69 161 111q96 40 219 40q114 0 209 -39q94 -39 158 -109q61 -67 97 -165q35 -96 35 -204q0 -120 -34 -216q-34 -97 -98 -168q-65 -73 -160 -111q-100 -40 -218 -40q-115 0 -211 38q-95 38 -158 107q-62 68 -97 164q-34 93 -34 209z M285 506q0 -63 11 -124q10 -55 36 -112q24 -52 60 -90q36 -37 89 -60q51 -22 119 -22q69 0 125 25q58 26 99 74q44 52 67 127t23 180q0 68 -11 122q-13 64 -36 110q-28 55 -61 90q-34 35 -89 59q-51 22 -117 22q-80 0 -142 -33t-99 -90q-37 -56 -55 -127q-19 -74 -19 -151z M335 1440q0 18 40 18h91q42 0 59 -10q21 -12 40 -45l126 -206q14 -23 14 -34q0 -25 -47 -25h-6q-46 0 -65 9t-49 43l-186 219q-17 20 -17 31z" />
<glyph unicode="&#xf3;" horiz-adv-x="1199" d="M95 495q0 117 34 213q35 99 97 170q61 69 161 111q96 40 219 40q114 0 209 -39q94 -39 158 -109q61 -67 97 -165q35 -96 35 -204q0 -120 -34 -216q-34 -97 -98 -168q-65 -73 -160 -111q-100 -40 -218 -40q-115 0 -211 38q-95 38 -158 107q-62 68 -97 164q-34 93 -34 209z M285 506q0 -63 11 -124q10 -55 36 -112q24 -52 60 -90q36 -37 89 -60q51 -22 119 -22q69 0 125 25q58 26 99 74q44 52 67 127t23 180q0 68 -11 122q-13 64 -36 110q-28 55 -61 90q-34 35 -89 59q-51 22 -117 22q-80 0 -142 -33t-99 -90q-37 -56 -55 -127q-19 -74 -19 -151z M505 1162q0 10 14 35l126 206q19 33 40 45q17 10 58 10h91q40 0 40 -18q0 -11 -17 -31l-185 -218q-30 -35 -50 -44t-64 -9h-6q-47 0 -47 24z" />
<glyph unicode="&#xf4;" horiz-adv-x="1199" d="M95 495q0 117 34 213q35 99 97 170q61 69 161 111q96 40 219 40q114 0 209 -39q94 -39 158 -109q61 -67 97 -165q35 -96 35 -204q0 -120 -34 -216q-34 -97 -98 -168q-65 -73 -160 -111q-100 -40 -218 -40q-115 0 -211 38q-95 38 -158 107q-62 68 -97 164q-34 93 -34 209z M285 506q0 -63 11 -124q10 -55 36 -112q24 -52 60 -90q36 -37 89 -60q51 -22 119 -22q69 0 125 25q58 26 99 74q44 52 67 127t23 180q0 68 -11 122q-13 64 -36 110q-27 53 -61 89q-36 37 -89 60q-49 21 -117 21q-69 0 -118 -21q-53 -23 -89 -60q-34 -36 -61 -89 q-26 -51 -36 -109q-11 -61 -11 -121zM340 1161q0 13 16 37l136 205q24 35 42 45q17 10 60 10h6q43 0 61 -9q17 -9 42 -46l139 -204q16 -23 16 -38q0 -24 -48 -24h-6q-48 0 -68 12q-21 13 -45 51l-90 145l-94 -146q-27 -41 -45 -51q-20 -11 -67 -11h-6q-49 0 -49 24z" />
<glyph unicode="&#xf5;" horiz-adv-x="1199" d="M95 495q0 118 34 214q35 98 97 169q61 69 161 111q96 40 219 40q114 0 209 -39q94 -39 158 -109q61 -67 97 -165q35 -96 35 -204q0 -120 -34 -216q-34 -97 -98 -168q-65 -73 -160 -111q-100 -40 -218 -40q-115 0 -211 38q-95 38 -158 107q-62 68 -97 164q-34 93 -34 209z M285 506q0 -63 11 -124q10 -55 36 -112q24 -52 60 -90q36 -37 89 -60q51 -22 119 -22q69 0 125 25q58 26 99 74q44 52 67 127t23 180q0 69 -11 123q-13 63 -36 109q-28 55 -61 90q-34 35 -89 59q-51 22 -117 22q-80 0 -142 -33t-99 -90q-37 -56 -55 -127q-19 -74 -19 -151z M338 1201q0 9 2 19q17 83 59 127t94 44q33 0 61 -11q25 -10 44 -27q17 -15 31 -31q16 -18 29 -27q16 -11 33 -11q37 0 53 51q11 31 22 41t41 10h7q25 0 36 -7t11 -26q0 -9 -2 -19q-17 -83 -59 -127t-93 -44q-34 0 -62 11q-27 10 -44 26q-7 6 -30 32q-12 14 -30 26 q-16 11 -32 11q-37 0 -53 -50q-10 -31 -22 -41q-13 -11 -41 -11h-7q-23 0 -36 8q-12 7 -12 26z" />
<glyph unicode="&#xf6;" horiz-adv-x="1200" d="M95 495q0 117 34 213q34 97 98 170q61 69 161 111q96 40 218 40q116 0 210 -39t158 -109q61 -67 97 -165q34 -93 34 -204q0 -120 -34 -216q-35 -98 -97 -168q-65 -73 -161 -111q-100 -40 -217 -40q-116 0 -212 38q-95 38 -158 107q-62 68 -97 164q-34 93 -34 209z M286 506q0 -63 11 -124q10 -58 35 -112q24 -52 60 -90q36 -37 89 -60q51 -22 119 -22q69 0 125 25q60 27 100 74q42 50 66 127q24 78 24 180q0 68 -11 122q-13 61 -37 110q-28 55 -61 90q-34 35 -89 59q-51 22 -116 22q-81 0 -143 -33t-99 -90q-37 -56 -55 -127t-18 -151z M296 1263q0 48 32 77q33 30 78 30q46 0 75 -30q29 -31 29 -77q0 -45 -29 -76t-75 -31q-44 0 -78 31q-32 29 -32 76zM691 1263q0 47 31 77q32 30 77 30q46 0 76 -30t30 -77q0 -46 -30 -76q-31 -31 -76 -31q-44 0 -77 31q-31 30 -31 76z" />
<glyph unicode="&#xf7;" horiz-adv-x="1271" d="M120 571v77q0 28 10 38t38 10h936q28 0 38 -10t10 -38v-77q0 -28 -10 -38q-9 -9 -38 -9h-936q-29 0 -38 9q-10 10 -10 38zM506 178q0 53 38 91t92 38t92 -38t38 -91q0 -54 -38 -92t-92 -38t-92 38t-38 92zM506 1042q0 54 38 92q37 37 92 37t92 -37q38 -38 38 -92t-38 -92 t-92 -38t-92 38t-38 92z" />
<glyph unicode="&#xf8;" horiz-adv-x="1200" d="M95 495q0 117 34 213q34 97 98 170q61 69 161 111q96 40 218 40q156 0 273 -72l68 91q17 23 31 23q12 0 32 -14l4 -4q24 -18 24 -32q0 -11 -14 -31l-69 -92q73 -72 112 -170q38 -96 38 -216t-34 -216q-35 -98 -97 -168q-65 -73 -161 -111q-100 -40 -217 -40 q-157 0 -276 70l-66 -89q-16 -23 -32 -23q-12 0 -32 14l-4 4q-23 17 -23 32q0 12 14 32l66 88q-73 70 -110 169q-38 102 -38 221zM286 506q0 -156 60 -263l445 596q-76 67 -190 67q-81 0 -143 -33t-99 -90q-37 -56 -55 -127q-18 -70 -18 -150zM408 165q76 -67 192 -67 q69 0 125 25q60 27 100 74q42 50 66 127q24 78 24 180q0 152 -62 258z" />
<glyph unicode="&#xf9;" horiz-adv-x="1158" d="M146 435v507q0 38 13 51t51 13h49q38 0 51 -13q14 -14 14 -51v-560q0 -68 10 -112q11 -48 34 -81q24 -34 67 -51t104 -17q71 0 138 38t106 103q39 64 39 138v542q0 37 14 51q13 13 51 13h49q38 0 51 -13q14 -14 14 -51v-877q0 -37 -14 -51t-51 -14h-49q-37 0 -51 14 t-14 51v99l-1 1q-55 -86 -145 -137t-195 -51q-57 0 -109 13q-46 12 -83 34q-33 20 -60 55q-29 38 -42 70q-17 42 -25 86q-10 56 -13 95q-3 46 -3 105zM305 1440q0 18 39 18h91q42 0 59 -10q19 -11 39 -45l127 -206q13 -22 13 -34q0 -25 -46 -25h-6q-47 0 -66 9q-20 9 -48 43 l-186 219q-16 19 -16 31z" />
<glyph unicode="&#xfa;" d="M146 435v507q0 37 14 51q13 13 51 13h49q38 0 51 -13t13 -51v-560q0 -63 11 -112q11 -48 34 -81q24 -34 67 -51t103 -17q72 0 139 38q65 37 105 103t40 138v542q0 38 13 51t51 13h50q38 0 51 -13q14 -14 14 -51v-877q0 -37 -14 -51t-51 -14h-50q-37 0 -51 14 q-13 13 -13 51v99l-1 1q-55 -86 -145 -137t-196 -51q-57 0 -109 13q-46 12 -83 34q-33 20 -60 55t-41 70q-17 42 -25 86q-10 56 -13 95q-4 62 -4 105zM482 1162q0 13 14 35l126 206q20 34 39 45q17 10 59 10h92q39 0 39 -18q0 -11 -17 -31l-186 -219q-30 -34 -49 -43t-64 -9 h-7q-46 0 -46 24z" />
<glyph unicode="&#xfb;" d="M146 435v507q0 37 14 51q13 13 51 13h49q38 0 51 -13t13 -51v-560q0 -63 11 -112q11 -48 34 -81q24 -34 67 -51t103 -17q72 0 139 38q65 37 105 103t40 138v542q0 38 13 51t51 13h50q38 0 51 -13q14 -14 14 -51v-877q0 -37 -14 -51t-51 -14h-50q-37 0 -51 14 q-13 13 -13 51v99l-1 1q-55 -86 -145 -137t-196 -51q-57 0 -109 13q-46 12 -83 34q-33 20 -60 55t-41 70q-17 42 -25 86q-10 56 -13 95q-4 62 -4 105zM327 1161q0 13 15 37l137 205q25 35 41 45q17 10 61 10h6q42 0 60 -9q17 -9 42 -46l139 -205q16 -24 16 -37 q0 -24 -48 -24h-6q-48 0 -68 12q-21 13 -45 51l-90 145l-94 -147q-26 -40 -45 -50q-20 -11 -67 -11h-6q-48 0 -48 24z" />
<glyph unicode="&#xfc;" horiz-adv-x="1158" d="M146 435v507q0 38 13 51t51 13h49q38 0 51 -13q14 -14 14 -51v-560q0 -68 10 -112q11 -48 34 -81q24 -34 67 -51t104 -17q71 0 138 38t106 103q39 64 39 138v542q0 37 14 51q13 13 51 13h49q38 0 51 -13q14 -14 14 -51v-877q0 -37 -14 -51t-51 -14h-49q-37 0 -51 14 t-14 51v99l-1 1q-55 -86 -145 -137t-195 -51q-57 0 -109 13q-46 12 -83 34q-33 20 -60 55q-29 38 -42 70q-17 42 -25 86q-10 56 -13 95q-3 46 -3 105zM269 1261q0 48 32 77q33 30 78 30q44 0 74 -30t30 -77q0 -46 -30 -76t-74 -30q-45 0 -78 30q-32 29 -32 76zM664 1261 q0 47 31 77t77 30q45 0 75 -30t30 -77q0 -46 -30 -76t-75 -30q-46 0 -77 30t-31 76z" />
<glyph unicode="&#xfd;" horiz-adv-x="1002" d="M38 979q0 27 48 27h74q42 0 57 -11q18 -13 31 -49l261 -674l274 675q15 37 32 48t57 11h45q48 0 48 -28q0 -12 -8 -31l-414 -994q-29 -66 -35 -81q-4 -9 -34 -72q-22 -46 -35 -67q-21 -34 -38 -57q-25 -33 -43 -50q-13 -12 -49 -40q-24 -19 -57 -32q-22 -9 -67 -20 q-36 -9 -77 -12q-29 -3 -40 8t-11 41v6q0 30 10 40t40 16q33 7 68 26q30 16 67 55q38 39 70 97q35 63 66 145l37 97l-369 894q-8 19 -8 32zM431 1161q0 10 14 35l126 207q19 33 40 45q17 10 59 10h91q40 0 40 -18q0 -11 -17 -31l-186 -219q-30 -34 -49 -43q-22 -10 -65 -10 h-6q-47 0 -47 24z" />
<glyph unicode="&#xff;" horiz-adv-x="1002" d="M38 979q0 27 48 27h74q42 0 57 -11q18 -13 31 -49l261 -674l274 675q15 37 32 48t57 11h45q48 0 48 -28q0 -12 -8 -31l-414 -994q-29 -66 -35 -81q-4 -9 -34 -72q-22 -46 -35 -67q-21 -34 -38 -57q-25 -33 -43 -50q-13 -12 -49 -40q-24 -19 -57 -32q-22 -9 -67 -20 q-36 -9 -77 -12q-29 -3 -40 8t-11 41v6q0 30 10 40t40 16q33 7 68 26q30 16 67 55q38 39 70 97q35 63 66 145l37 97l-369 894q-8 19 -8 32zM216 1261q0 45 33 76q32 31 78 31q47 0 75 -30q29 -31 29 -77q0 -45 -29 -76t-75 -31t-78 31q-33 31 -33 76zM611 1261q0 44 32 76 q31 31 77 31q45 0 75 -30q31 -31 31 -77q0 -43 -31 -76q-30 -31 -75 -31q-46 0 -77 31q-32 32 -32 76z" />
<glyph unicode="&#x152;" horiz-adv-x="2047" d="M101 724q0 165 53 307q52 139 147 239q93 98 230 154q134 55 295 55q110 0 207 -27h832q38 0 51 -13t13 -51v-6q0 -38 -13 -51t-51 -13h-642v-496h576q36 0 49 -13t13 -50v-6q0 -37 -13 -50t-49 -13h-576v-557h654q37 0 50 -13t13 -50v-6q0 -38 -13 -51t-50 -13h-840 q-36 0 -102 -13t-109 -13q-160 0 -298 56q-135 55 -229 155t-146 238t-52 301zM305 728q0 -128 34 -239q33 -109 100 -197q65 -86 164 -135q102 -50 223 -50q112 0 207 42v1152q-93 43 -208 43q-117 0 -216 -48q-100 -49 -165 -131q-68 -86 -103 -196q-36 -113 -36 -241z " />
<glyph unicode="&#x153;" horiz-adv-x="1968" d="M95 495q0 118 34 214q35 98 97 169q61 69 161 111q96 40 219 40q134 0 237 -52q105 -53 169 -146q67 94 171 146t235 52q32 0 65 -3q27 -2 78 -16q50 -13 86 -32q41 -21 82 -58q42 -38 73 -86q30 -46 53 -123q22 -71 28 -164q3 -37 -11 -51q-13 -13 -51 -13h-717 q0 -41 11 -91q10 -46 36 -98q25 -51 63 -90t98 -65q59 -25 133 -25q183 0 301 151q21 27 38 27q12 0 31 -11l4 -3q30 -18 30 -36q0 -13 -10 -29q-134 -236 -420 -236q-132 0 -239 52q-103 50 -170 146q-67 -95 -171 -146q-107 -52 -244 -52q-115 0 -211 38q-95 38 -158 107 q-62 68 -97 164q-34 93 -34 209zM285 506q0 -63 11 -124q10 -55 36 -112q24 -52 60 -90q36 -37 89 -60q51 -22 119 -22q69 0 125 25q58 26 99 74q44 52 67 127t23 180q0 69 -11 123q-13 63 -36 109q-28 55 -61 90q-34 35 -89 59q-51 22 -117 22q-80 0 -142 -33t-99 -90 q-37 -56 -55 -127q-19 -74 -19 -151zM1105 600h597q0 37 -9 76q-10 42 -29 79q-20 39 -53 72q-32 32 -83 53q-49 20 -115 20q-50 0 -95 -14q-46 -14 -75 -36q-32 -24 -56 -51q-22 -24 -39 -57q-15 -29 -26 -58q-11 -30 -14 -50q-3 -21 -3 -34z" />
<glyph unicode="&#x178;" horiz-adv-x="1247" d="M11 1428q0 25 48 25h77q46 0 66 -11q19 -10 44 -51l392 -646l413 647q24 39 44 50t66 11h41q48 0 48 -24q0 -15 -15 -37l-517 -802v-518q0 -42 -15 -57t-57 -15h-49q-42 0 -57 15t-15 57v518l-500 802q-14 23 -14 36zM339 1676q0 45 32 76t79 31q45 0 74 -31t29 -76 q0 -46 -29 -77q-28 -30 -74 -30q-47 0 -79 31t-32 76zM734 1676q0 45 31 76t77 31q45 0 76 -31q30 -30 30 -76q0 -44 -30 -76q-30 -31 -76 -31t-77 31t-31 76z" />
<glyph unicode="&#x2c6;" horiz-adv-x="704" d="M86 1192q0 11 10 24l160 241q16 25 31 33q13 7 44 7h41q32 0 45 -7q15 -8 30 -32l164 -243q10 -13 10 -24q0 -15 -32 -15h-57q-31 0 -44 7q-12 7 -30 34l-103 166l-108 -167q-17 -26 -30 -33t-44 -7h-56q-31 0 -31 16z" />
<glyph unicode="&#x2dc;" horiz-adv-x="765" d="M123 1253q13 91 57 141q43 49 98 49q33 0 61 -11t44 -27q22 -22 31 -32q16 -18 29 -27q16 -11 33 -11q41 0 58 68q6 20 13 27t27 7h43q20 0 26 -7q7 -9 4 -27q-13 -90 -57 -140q-43 -49 -98 -49q-34 0 -62 11q-25 10 -44 27q-17 15 -31 31q-14 15 -29 26q-16 11 -32 11 q-42 0 -58 -67q-4 -19 -12 -27q-7 -7 -28 -7h-43q-20 0 -26 7q-7 9 -4 27z" />
<glyph unicode="&#x2000;" horiz-adv-x="985" />
<glyph unicode="&#x2001;" horiz-adv-x="1971" />
<glyph unicode="&#x2002;" horiz-adv-x="985" />
<glyph unicode="&#x2003;" horiz-adv-x="1971" />
<glyph unicode="&#x2004;" horiz-adv-x="657" />
<glyph unicode="&#x2005;" horiz-adv-x="492" />
<glyph unicode="&#x2006;" horiz-adv-x="328" />
<glyph unicode="&#x2007;" horiz-adv-x="328" />
<glyph unicode="&#x2008;" horiz-adv-x="246" />
<glyph unicode="&#x2009;" horiz-adv-x="394" />
<glyph unicode="&#x200a;" horiz-adv-x="109" />
<glyph unicode="&#x2010;" horiz-adv-x="797" d="M141 514v76q0 25 8 33q9 9 33 9h434q23 0 32 -9t9 -33v-76q0 -24 -9 -33q-8 -8 -32 -8h-434q-25 0 -33 8t-8 33z" />
<glyph unicode="&#x2011;" horiz-adv-x="797" d="M141 514v76q0 25 8 33q9 9 33 9h434q23 0 32 -9t9 -33v-76q0 -24 -9 -33q-8 -8 -32 -8h-434q-25 0 -33 8t-8 33z" />
<glyph unicode="&#x2012;" horiz-adv-x="797" d="M141 514v76q0 25 8 33q9 9 33 9h434q23 0 32 -9t9 -33v-76q0 -24 -9 -33q-8 -8 -32 -8h-434q-25 0 -33 8t-8 33z" />
<glyph unicode="&#x2013;" horiz-adv-x="1277" d="M144 520v64q0 24 9 33t33 9h905q23 0 32 -9t9 -33v-64q0 -24 -9 -33q-8 -8 -32 -8h-905q-25 0 -33 8q-9 9 -9 33z" />
<glyph unicode="&#x2014;" horiz-adv-x="2231" d="M144 520v64q0 24 9 33t33 9h1859q23 0 32 -9t9 -33v-64q0 -24 -9 -33q-8 -8 -32 -8h-1859q-25 0 -33 8q-9 9 -9 33z" />
<glyph unicode="&#x2018;" horiz-adv-x="409" d="M89 1146q0 44 29 116q26 65 113 220q11 20 21 27t26 7q9 0 18 -1h6q32 -3 32 -22q0 -9 -7 -23q-61 -129 -82 -244q31 -15 47 -39q18 -27 18 -60q0 -45 -33 -77q-34 -32 -79 -32q-46 0 -78 35q-31 34 -31 93z" />
<glyph unicode="&#x2019;" horiz-adv-x="415" d="M101 1045q0 9 7 23q59 127 81 244q-28 13 -46 40t-18 60q0 46 32 77t80 31t78 -34t30 -94q0 -43 -29 -116q-27 -67 -113 -220q-11 -20 -21 -27t-26 -7q-9 0 -18 1l-5 1q-32 3 -32 21z" />
<glyph unicode="&#x201a;" horiz-adv-x="457" d="M94 -267q0 8 7 22q59 126 81 244q-28 13 -46 40t-18 60q0 45 33 77q34 32 79 32q48 0 78 -35q31 -36 31 -93q0 -43 -30 -117t-112 -219q-11 -20 -21 -27q-11 -8 -27 -8q-1 0 -3.5 0.5t-7 1t-7.5 0.5h-5q-32 3 -32 22z" />
<glyph unicode="&#x201c;" horiz-adv-x="741" d="M90 1146q0 44 29 116q26 65 113 220q10 20 21 27q10 7 26 7q9 0 18 -1h5q32 -3 32 -22q0 -11 -6 -23q-61 -129 -82 -244q29 -14 46 -39q18 -27 18 -60q0 -46 -32 -77q-34 -32 -79 -32q-46 0 -78 35q-31 34 -31 93zM419 1146q0 44 29 116q26 65 113 220q11 20 21 27t26 7 q9 0 18 -1h6q32 -3 32 -22q0 -9 -7 -23q-61 -129 -82 -244q31 -15 47 -39q18 -27 18 -60q0 -45 -33 -77q-34 -32 -79 -32q-46 0 -78 35q-31 34 -31 93z" />
<glyph unicode="&#x201d;" horiz-adv-x="745" d="M103 1045q0 11 6 23q59 127 81 244q-28 13 -46 40t-18 60q0 46 33 77q32 31 78 31q48 0 79 -34t31 -94q0 -40 -30 -116q-29 -73 -112 -220q-11 -20 -21 -27t-27 -7q-9 0 -18 1l-5 1q-31 3 -31 21zM432 1045q0 9 7 23q59 127 81 244q-30 14 -47 40q-18 27 -18 60 q0 46 33 77q32 31 79 31q48 0 78 -34q31 -36 31 -94q0 -43 -29 -116q-27 -67 -113 -220q-10 -20 -21 -27q-10 -7 -26 -7q-9 0 -18 1l-6 1q-31 3 -31 21z" />
<glyph unicode="&#x201e;" horiz-adv-x="786" d="M93 -267q0 8 7 22q61 129 82 244q-30 14 -47 40q-18 27 -18 60q0 45 33 77q34 32 79 32q46 0 78 -35q31 -34 31 -93q0 -44 -29 -116q-26 -65 -113 -220q-10 -20 -21 -27q-11 -8 -26 -8q-1 0 -3.5 0.5t-7 1t-7.5 0.5h-6q-32 3 -32 22zM423 -267q0 8 7 22q59 126 81 244 q-28 13 -46 40t-18 60q0 45 33 77q34 32 79 32q48 0 78 -35t30 -93q0 -45 -29 -117q-27 -67 -113 -219q-11 -20 -21 -27q-11 -8 -26 -8q-1 0 -3.5 0.5t-7 1t-7.5 0.5h-5q-32 3 -32 22z" />
<glyph unicode="&#x2022;" horiz-adv-x="782" d="M101 697q0 79 38 145q39 67 106 106t146 39q77 0 145 -39q67 -39 106 -106q39 -68 39 -145q0 -79 -39 -146t-106 -106q-66 -38 -145 -38q-80 0 -146 38q-67 39 -106 106q-38 66 -38 146z" />
<glyph unicode="&#x2026;" horiz-adv-x="1776" d="M117 104q0 49 34 82q35 33 83 33q49 0 82 -33t33 -82t-33 -82t-82 -33t-83 34t-34 81zM772 104q0 49 35 82t83 33t81 -33q34 -34 34 -82t-34 -82q-33 -33 -81 -33q-49 0 -83 34q-35 35 -35 81zM1427 104q0 49 35 82q34 33 83 33q48 0 81 -33q34 -34 34 -82t-34 -82 q-33 -33 -81 -33q-49 0 -83 34q-35 35 -35 81z" />
<glyph unicode="&#x202f;" horiz-adv-x="394" />
<glyph unicode="&#x2039;" horiz-adv-x="623" d="M62 524q0 15 20 44l236 332q23 31 35 37q14 7 51 7h67q37 0 37 -18q0 -9 -12 -28l-241 -374l241 -376q12 -21 12 -28q0 -18 -37 -18h-67q-35 0 -51 8q-13 7 -35 36l-236 333q-20 28 -20 45z" />
<glyph unicode="&#x203a;" horiz-adv-x="623" d="M116 120q0 9 11 28l242 376l-242 374q-11 17 -11 28q0 18 36 18h68q37 0 51 -7q12 -6 35 -37l236 -332q19 -26 19 -44q0 -19 -19 -45l-236 -333q-22 -29 -35 -36q-16 -8 -51 -8h-68q-36 0 -36 18z" />
<glyph unicode="&#x205f;" horiz-adv-x="492" />
<glyph unicode="&#x20ac;" horiz-adv-x="1343" d="M86 544q0 12 6 30q12 35 27 47q14 11 53 11h61q0 4 -0.5 19t-0.5 26q0 59 6 118h-107q-23 0 -35 7q-10 6 -10 21q0 7 5 27l2 7q10 33 26 44t50 11h88q27 113 78 208q51 94 124 163q75 70 169 107q97 38 208 38q120 0 222 -52q103 -52 170 -146q15 -22 15 -36 q0 -19 -29 -41l-5 -3q-22 -16 -35 -16q-18 0 -40 27q-106 125 -291 125q-81 0 -151 -28q-66 -26 -113 -78q-47 -51 -77 -118q-31 -68 -47 -150h542q22 0 34 -7q11 -6 11 -21q0 -7 -5 -27l-2 -7q-10 -33 -26 -44t-50 -11h-520q-3 -46 -3 -93t1 -70h471q23 0 34 -6t11 -22 q0 -14 -5 -28l-2 -5q-12 -35 -26 -45q-16 -11 -51 -11h-419q14 -84 46 -160q29 -69 78 -126q46 -54 116 -84q69 -30 153 -30q149 0 265 114q26 26 44 26q14 0 38 -15l5 -3q30 -19 30 -37q0 -16 -15 -35q-143 -191 -380 -191q-159 0 -283 67t-200 188q-77 122 -102 286h-114 q-23 0 -34 6t-11 23z" />
<glyph unicode="&#x2122;" horiz-adv-x="2027" d="M98 1380v31q0 23 9 32t32 9h603q23 0 32 -9t9 -32v-31q0 -23 -9 -32t-32 -9h-232v-717q0 -24 -9 -33q-8 -8 -32 -8h-56q-25 0 -33 8t-8 33v717h-233q-23 0 -32 9t-9 32zM916 622v789q0 24 8 32q9 9 33 9h136q26 0 36 -7q11 -8 20 -31l243 -619l239 619q9 23 20 31 q10 7 36 7h134q24 0 33 -9q8 -8 8 -32v-789q0 -25 -8 -33t-33 -8h-56q-24 0 -32 8q-9 9 -9 33v699h-1l-273 -701q-11 -25 -21 -32t-37 -7h-6q-27 0 -37 7t-21 32l-272 701h-2v-699q0 -25 -8 -33t-33 -8h-56q-25 0 -33 8t-8 33z" />
<glyph unicode="&#x25fc;" horiz-adv-x="1007" d="M0 0v1008h1008v-1008h-1008z" />
</font>
</defs>
</svg>
